<svg width="31" height="30" viewBox="0 0 31 30" fill="none" xmlns="http://www.w3.org/2000/svg">
<mask id="mask0_430_1150" style="mask-type:luminance" maskUnits="userSpaceOnUse" x="2" y="3" width="28" height="23">
<path d="M18.35 3.60001H12.9001C7.76224 3.60001 5.19262 3.60001 3.59716 5.19682C2.44723 6.34539 2.12569 7.99943 2.03576 10.753H29.2144C29.1245 7.99943 28.8029 6.34539 27.653 5.19682C26.0575 3.60001 23.4879 3.60001 18.35 3.60001ZM12.9001 25.3996H18.35C23.4879 25.3996 26.0575 25.3996 27.653 23.8028C29.2484 22.2059 29.2498 19.6377 29.2498 14.4998C29.2498 13.8985 29.2489 13.3308 29.2471 12.7967H2.00307C2.00034 13.3308 1.99943 13.8985 2.00034 14.4998C2.00034 19.6377 2.00034 22.2073 3.59716 23.8028C5.19398 25.3982 7.76224 25.3996 12.9001 25.3996Z" fill="white"/>
<path fill-rule="evenodd" clip-rule="evenodd" d="M6.42908 19.9496C6.42908 19.6786 6.53674 19.4187 6.72837 19.227C6.92001 19.0354 7.17992 18.9277 7.45093 18.9277H12.9008C13.1718 18.9277 13.4318 19.0354 13.6234 19.227C13.815 19.4187 13.9227 19.6786 13.9227 19.9496C13.9227 20.2206 13.815 20.4805 13.6234 20.6722C13.4318 20.8638 13.1718 20.9714 12.9008 20.9714H7.45093C7.17992 20.9714 6.92001 20.8638 6.72837 20.6722C6.53674 20.4805 6.42908 20.2206 6.42908 19.9496ZM15.2852 19.9496C15.2852 19.6786 15.3928 19.4187 15.5844 19.227C15.7761 19.0354 16.036 18.9277 16.307 18.9277H18.3507C18.6217 18.9277 18.8816 19.0354 19.0733 19.227C19.2649 19.4187 19.3726 19.6786 19.3726 19.9496C19.3726 20.2206 19.2649 20.4805 19.0733 20.6722C18.8816 20.8638 18.6217 20.9714 18.3507 20.9714H16.307C16.036 20.9714 15.7761 20.8638 15.5844 20.6722C15.3928 20.4805 15.2852 20.2206 15.2852 19.9496Z" fill="black"/>
</mask>
<g mask="url(#mask0_430_1150)">
<path d="M-0.72406 -1.84988H31.9753V30.8495H-0.72406V-1.84988Z" fill="white"/>
</g>
</svg>
