<svg width="30" height="30" viewBox="0 0 30 30" fill="none" xmlns="http://www.w3.org/2000/svg">
<path d="M22.5 17.1428C23.3525 17.1428 24.17 17.4815 24.7728 18.0843C25.3756 18.6871 25.7143 19.5046 25.7143 20.3571V21.1232C25.7143 24.9557 21.2036 27.8571 15 27.8571C8.79642 27.8571 4.28571 25.1068 4.28571 21.1232V20.3571C4.28571 19.5046 4.62435 18.6871 5.22715 18.0843C5.82994 17.4815 6.64751 17.1428 7.49999 17.1428H22.5ZM15 2.14282C15.8442 2.14282 16.6801 2.3091 17.4601 2.63217C18.24 2.95523 18.9487 3.42876 19.5457 4.02571C20.1426 4.62266 20.6162 5.33134 20.9392 6.11129C21.2623 6.89124 21.4286 7.72718 21.4286 8.57139C21.4286 9.41561 21.2623 10.2516 20.9392 11.0315C20.6162 11.8115 20.1426 12.5201 19.5457 13.1171C18.9487 13.714 18.24 14.1876 17.4601 14.5106C16.6801 14.8337 15.8442 15 15 15C13.295 15 11.6599 14.3227 10.4543 13.1171C9.24871 11.9115 8.57142 10.2764 8.57142 8.57139C8.57142 6.86643 9.24871 5.2313 10.4543 4.02571C11.6599 2.82012 13.295 2.14282 15 2.14282Z" fill="white" />
</svg>
