<svg width="30" height="31" viewBox="0 0 30 31" fill="none" xmlns="http://www.w3.org/2000/svg">
<path fill-rule="evenodd" clip-rule="evenodd" d="M26.375 10.505C26.3042 10.5008 26.2288 10.4991 26.1488 10.5H22.9925C20.4075 10.5 18.1963 12.535 18.1963 15.1875C18.1963 17.84 20.4088 19.875 22.9925 19.875H26.1488C26.2288 19.8758 26.3046 19.8741 26.3763 19.87C26.9076 19.8379 27.4091 19.6138 27.7874 19.2394C28.1657 18.865 28.395 18.3659 28.4325 17.835C28.4375 17.76 28.4375 17.6787 28.4375 17.6037V12.7712C28.4375 12.6962 28.4375 12.615 28.4325 12.54C28.395 12.009 28.1657 11.5099 27.7874 11.1355C27.4091 10.7611 26.9063 10.537 26.375 10.505ZM22.7163 16.4375C23.3813 16.4375 23.92 15.8775 23.92 15.1875C23.92 14.4975 23.3813 13.9375 22.7163 13.9375C22.05 13.9375 21.5113 14.4975 21.5113 15.1875C21.5113 15.8775 22.05 16.4375 22.7163 16.4375Z" fill="white"/>
<path fill-rule="evenodd" clip-rule="evenodd" d="M26.1475 21.75C26.1907 21.7483 26.2337 21.7567 26.2731 21.7748C26.3124 21.7928 26.3469 21.8198 26.3738 21.8536C26.4007 21.8875 26.4193 21.9272 26.4279 21.9696C26.4366 22.012 26.4352 22.0558 26.4237 22.0975C26.1737 22.9875 25.775 23.7475 25.1362 24.385C24.2 25.3225 23.0138 25.7362 21.5487 25.9338C20.1238 26.125 18.305 26.125 16.0075 26.125H13.3675C11.07 26.125 9.25 26.125 7.82625 25.9338C6.36125 25.7362 5.175 25.3212 4.23875 24.3862C3.30375 23.45 2.88875 22.2638 2.69125 20.7987C2.5 19.3738 2.5 17.555 2.5 15.2575V15.1175C2.5 12.82 2.5 11 2.69125 9.575C2.88875 8.11 3.30375 6.92375 4.23875 5.9875C5.175 5.0525 6.36125 4.6375 7.82625 4.44C9.25125 4.25 11.07 4.25 13.3675 4.25H16.0075C18.305 4.25 20.125 4.25 21.5487 4.44125C23.0138 4.63875 24.2 5.05375 25.1362 5.98875C25.775 6.62875 26.1737 7.3875 26.4237 8.2775C26.4352 8.31921 26.4366 8.36303 26.4279 8.4054C26.4193 8.44777 26.4007 8.4875 26.3738 8.52135C26.3469 8.55521 26.3124 8.58224 26.2731 8.60025C26.2337 8.61826 26.1907 8.62674 26.1475 8.625H22.9925C19.4462 8.625 16.3212 11.425 16.3212 15.1875C16.3212 18.95 19.4462 21.75 22.9925 21.75H26.1475ZM7.1875 9.25C6.93886 9.25 6.7004 9.34877 6.52459 9.52459C6.34877 9.7004 6.25 9.93886 6.25 10.1875C6.25 10.4361 6.34877 10.6746 6.52459 10.8504C6.7004 11.0262 6.93886 11.125 7.1875 11.125H12.1875C12.4361 11.125 12.6746 11.0262 12.8504 10.8504C13.0262 10.6746 13.125 10.4361 13.125 10.1875C13.125 9.93886 13.0262 9.7004 12.8504 9.52459C12.6746 9.34877 12.4361 9.25 12.1875 9.25H7.1875Z" fill="white"/>
</svg>
