<svg width="19" height="18" viewBox="0 0 19 18" fill="none" xmlns="http://www.w3.org/2000/svg">
<path opacity="0.4" d="M10.4545 0H8.54545C7.49109 0 6.63635 0.805888 6.63635 1.8C6.63635 2.93761 5.41917 3.66087 4.42 3.11697L4.31852 3.06172C3.40541 2.56467 2.23782 2.85964 1.71064 3.72057L0.756091 5.27942C0.228908 6.14034 0.541762 7.24121 1.45487 7.73826C2.45451 8.28242 2.45451 9.71758 1.45487 10.2617C0.54176 10.7588 0.228907 11.8597 0.756089 12.7206L1.71064 14.2794C2.23782 15.1404 3.40541 15.4353 4.31851 14.9383L4.42 14.883C5.41917 14.3391 6.63635 15.0624 6.63635 16.2C6.63635 17.1941 7.49109 18 8.54545 18H10.4545C11.5089 18 12.3636 17.1941 12.3636 16.2C12.3636 15.0624 13.5808 14.3391 14.58 14.883L14.6815 14.9383C15.5946 15.4353 16.7622 15.1403 17.2894 14.2794L18.2439 12.7206C18.7711 11.8596 18.4582 10.7588 17.5451 10.2617C16.5455 9.71757 16.5455 8.28243 17.5451 7.73828C18.4582 7.24122 18.7711 6.14036 18.2439 5.27943L17.2894 3.72058C16.7622 2.85966 15.5946 2.56468 14.6815 3.06174L14.58 3.11698C13.5808 3.66088 12.3636 2.93762 12.3636 1.8C12.3636 0.805887 11.5089 0 10.4545 0Z" fill="#09E5E5"/>
<circle cx="9.5" cy="9" r="3" fill="#09E5E5"/>
</svg>
