<svg width="393" height="281" viewBox="0 0 393 281" fill="none" xmlns="http://www.w3.org/2000/svg">
<g clip-path="url(#clip0_52_74)">
<path d="M0 0H393V261C393 272.046 384.046 281 373 281H20C8.9543 281 0 272.046 0 261V0Z" fill="#003333"/>
<g filter="url(#filter0_f_52_74)">
<ellipse cx="128.07" cy="194.724" rx="128.07" ry="194.724" transform="matrix(0.504245 0.863561 0.863561 -0.504245 42.9742 69.5623)" fill="#328E8E"/>
</g>
<mask id="mask0_52_74" style="mask-type:alpha" maskUnits="userSpaceOnUse" x="-67" y="-173" width="636" height="573">
<path d="M487.468 -172.867L568.237 190.153L274.455 362.247L164.597 399.931L-40.2966 295.185L-66.7165 133.638L236.647 -43.4999L487.468 -172.867Z" fill="url(#paint0_linear_52_74)"/>
</mask>
<g mask="url(#mask0_52_74)">
</g>
<mask id="mask1_52_74" style="mask-type:alpha" maskUnits="userSpaceOnUse" x="-101" y="-164" width="721" height="641">
<path d="M-100.298 143.875C-16.6537 286.593 90.0772 468.638 93.6784 476.075L619.771 168.883L425.794 -163.318L-100.298 143.875Z" fill="url(#paint1_linear_52_74)"/>
</mask>
<g mask="url(#mask1_52_74)">
<path d="M288.259 301.567C347.596 266.92 367.61 186.628 340.827 140.761C314.045 94.8932 254.878 48.7259 191.215 85.8995C159.667 104.321 103.459 96.0266 79.3142 140.754C54.7359 186.284 99.9399 243.775 113.45 266.913C140.233 312.781 228.923 336.214 288.259 301.567Z" fill="#328E8E"/>
<g filter="url(#filter1_f_52_74)">
<path d="M285.254 298.053C348.891 260.895 368.755 190.325 345.734 150.899C322.712 111.473 268.491 73.7528 204.854 110.911C173.319 129.325 119.042 124.302 93.0395 165.813C66.5702 208.069 106.641 256.777 118.254 276.666C141.275 316.092 221.617 335.212 285.254 298.053Z" fill="#328E8E"/>
</g>
<g filter="url(#filter2_f_52_74)">
<path d="M287.182 296.928C358.506 255.28 377.893 171.256 349.51 122.649C321.128 74.0415 256.97 25.9661 185.646 67.6135C150.301 88.2517 85.0309 75.0253 57.1723 123.751C28.8132 173.352 79.6442 238.082 93.9618 262.602C122.344 311.21 215.857 338.575 287.182 296.928Z" fill="#328E8E"/>
</g>
<g filter="url(#filter3_f_52_74)">
<path d="M292.052 286.365C373.15 223.022 409.28 117.386 376.062 60.4975C342.844 3.60881 262.238 -31.7928 176.699 18.1548C134.31 42.9063 43.614 12.7223 9.79426 70.4585C-24.6331 129.232 32.3295 200.014 49.0864 228.712C82.3045 285.601 198.105 359.743 292.052 286.365Z" fill="#328E8E"/>
</g>
<g filter="url(#filter4_f_52_74)">
<path d="M308.278 246.017C400.381 192.237 436.874 72.6416 404.397 17.0211C371.919 -38.5994 288.684 -70.6273 196.581 -16.8467C150.939 9.80424 83.1263 20.9365 45.073 80.2979C6.33618 140.726 63.1833 209.256 79.5667 237.314C112.044 292.934 216.174 299.798 308.278 246.017Z" fill="#328E8E"/>
</g>
<g filter="url(#filter5_f_52_74)">
<path d="M331.161 202.884C426.342 147.306 464.508 24.4936 431.29 -32.3952C398.072 -89.2839 312.428 -121.744 217.248 -66.1668C170.081 -38.6255 100.135 -26.8962 60.6387 34.1545C20.4332 96.3019 78.7097 166.317 95.4666 195.015C128.685 251.903 235.981 258.461 331.161 202.884Z" fill="#328E8E"/>
</g>
<g filter="url(#filter6_f_52_74)">
<path d="M264.855 253.732C348.138 205.102 376.061 88.2698 342.843 31.3811C309.625 -25.5077 230.199 -61.5978 146.915 -12.9677C105.645 11.1309 46.698 25.2585 14.2067 82.219C-18.8683 140.203 37.7868 211.165 54.5438 239.862C87.7619 296.751 181.572 302.362 264.855 253.732Z" fill="#328E8E"/>
</g>
</g>
<g filter="url(#filter7_f_52_74)">
<path d="M93.9288 98.661C97.1177 120.147 131.048 155.632 170.01 191.252L202.919 247.611C231.547 296.638 301.776 237.812 350.042 171.535C398.307 105.258 397.468 107.591 368.002 60.8977C338.535 14.2041 384.053 19.5752 411.008 -23.8129C437.962 -67.2009 377.943 17.3987 312.62 6.3884C247.296 -4.62193 272.166 -28.7603 222.919 40.5478C173.671 109.856 167.047 92.2159 154.829 76.0042C142.61 59.7926 162.311 48.2853 150.895 33.4469C139.478 18.6084 135.139 30.9727 113.132 55.497C91.1245 80.0214 90.7399 77.1751 93.9288 98.661Z" fill="#218196"/>
</g>
<mask id="mask2_52_74" style="mask-type:alpha" maskUnits="userSpaceOnUse" x="-33" y="-186" width="484" height="541">
<path d="M450.066 309.641L86.2045 354.338L-18.327 95.1832L-32.5941 -1.41884L106.541 -173.778L266.569 -185.515L375.98 86.1665L450.066 309.641Z" fill="url(#paint2_linear_52_74)"/>
</mask>
<g mask="url(#mask2_52_74)">
<mask id="mask3_52_74" style="mask-type:alpha" maskUnits="userSpaceOnUse" x="-79" y="-208" width="527" height="618">
<path d="M250.28 -207.276C96.9157 -145.274 -70.4516 -77.5363 -78.2931 -74.954L119.129 409.351L447.702 277.029L250.28 -207.276Z" fill="url(#paint3_linear_52_74)"/>
</mask>
<g mask="url(#mask3_52_74)">
<path d="M35.1141 107.108C56.5142 160.248 129.463 182.794 178.732 162.953C228.001 143.111 283.994 95.5618 261.034 38.5477C249.656 10.2945 268.776 -37.2737 230.723 -60.9602C191.986 -85.0723 127.919 -50.2413 103.065 -40.2322C53.7958 -20.3908 13.714 53.9687 35.1141 107.108Z" fill="#328E8E"/>
<g filter="url(#filter8_f_52_74)">
<path d="M39.0777 104.772C62.0289 161.763 121.12 185.368 159.371 169.963C197.622 154.559 239.16 112.842 216.209 55.8508C204.835 27.6091 217.59 -17.3795 185.03 -43.262C151.884 -69.6095 102.842 -40.8334 83.5468 -33.0627C45.296 -17.6585 16.1266 47.7815 39.0777 104.772Z" fill="#328E8E"/>
</g>
<g filter="url(#filter9_f_52_74)">
<path d="M39.7726 106.497C65.4964 170.373 136.589 194.87 183.821 175.849C231.053 156.828 283.33 107.767 257.606 43.8915C244.859 12.2381 266.583 -41.1767 227.918 -69.3116C188.558 -97.952 123.65 -61.696 99.8242 -52.1009C52.5926 -33.0799 14.0489 42.6216 39.7726 106.497Z" fill="#328E8E"/>
</g>
<g filter="url(#filter10_f_52_74)">
<path d="M58.1787 107.681C102.746 181.387 196.772 219.44 257.88 194.83C318.988 170.221 368.929 103.59 338.078 26.9841C322.791 -10.9779 369.738 -86.5999 321.145 -119.447C271.678 -152.884 161.902 -103.39 131.076 -90.9754C69.9683 -66.3663 6.55055 22.2975 58.1787 107.681Z" fill="#328E8E"/>
</g>
<g filter="url(#filter11_f_52_74)">
<path d="M81.9852 122.101C115.203 204.586 224.904 249.781 284.65 225.72C344.395 201.66 391.627 132.55 358.409 50.0654C341.948 9.19026 344.762 -49.6222 295.453 -86.2037C245.258 -123.442 111.668 -97.6593 81.5289 -85.522C21.7834 -61.4614 48.7672 39.6165 81.9852 122.101Z" fill="#328E8E"/>
</g>
<g filter="url(#filter12_f_52_74)">
<path d="M121.134 150.492C155.462 235.732 265.541 276.685 326.649 252.076C387.757 227.467 435.881 156.324 401.553 71.0842C384.542 28.8435 276.472 -0.934271 225.831 -38.8649C174.281 -77.477 95.6155 -32.2968 64.7896 -19.8826C3.68184 4.72649 86.8067 65.2517 121.134 150.492Z" fill="#328E8E"/>
</g>
<g filter="url(#filter13_f_52_74)">
<path d="M85.5977 90.2927C115.634 164.878 222.019 196.658 283.127 172.049C344.235 147.44 394.601 81.8647 364.565 7.27946C349.68 -29.6811 347.862 -81.1043 299.748 -112.762C250.769 -144.988 171.519 -101.26 140.693 -88.8457C79.5848 -64.2366 55.561 15.7075 85.5977 90.2927Z" fill="#328E8E"/>
</g>
</g>
</g>
<mask id="mask4_52_74" style="mask-type:alpha" maskUnits="userSpaceOnUse" x="-14" y="-214" width="729" height="601">
<path d="M714.199 282.381C687.994 120.528 635.432 -205.22 634.823 -213.392L-13.7816 -109.546L65.5947 386.226L714.199 282.381Z" fill="url(#paint4_linear_52_74)"/>
</mask>
<g mask="url(#mask4_52_74)">
<path d="M307.762 -145.698C242.387 -119.961 182.385 -66.1559 190.708 -14.1736C199.03 37.8086 239.565 101.285 318.053 88.7183C356.948 82.491 361.278 117.437 403.344 84.1527C446.165 50.2702 424.118 -18.9146 419.919 -45.1371C411.596 -97.1193 373.137 -171.435 307.762 -145.698Z" fill="#65B5B5"/>
<g filter="url(#filter14_f_52_74)">
<path d="M299.772 -141.289C195.15 -86.7995 182.727 -69.9938 189.881 -25.3115C197.035 19.3707 236.024 73.2689 314.48 60.7076C353.358 54.4828 356.142 85.8636 398.771 56.2173C442.165 26.0384 421.513 -34.4611 417.904 -57.0011C410.75 -101.683 350.968 -171.183 299.772 -141.289Z" fill="#65B5B5"/>
</g>
<g filter="url(#filter15_f_52_74)">
<path d="M306.975 -141.003C179.16 -92.9177 136.268 -9.02473 145.087 46.063C153.907 101.151 228.338 121.754 316.272 107.675C359.848 100.698 337.696 148.746 385.075 113.025C433.306 76.6615 416.809 -9.43624 412.36 -37.2253C403.54 -92.313 394.909 -155.082 306.975 -141.003Z" fill="#65B5B5"/>
</g>
<g filter="url(#filter16_f_52_74)">
<path d="M297.871 -132.856C184.541 -92.1997 81.3471 3.40962 91.6697 67.8826C101.992 132.356 199.886 173.708 305.345 156.824C357.605 148.456 354.03 221.099 410.979 179.052C468.951 136.249 440.5 50.617 435.293 18.0935C424.971 -46.3795 411.2 -173.512 297.871 -132.856Z" fill="#65B5B5"/>
</g>
<g filter="url(#filter17_f_52_74)">
<path d="M219.602 -87.8625C60.9021 4.80443 59.7151 9.89414 69.8075 72.9299C79.8999 135.966 157.89 200.711 271.442 182.53C327.712 173.521 339.7 160.048 401.528 117.954C464.468 75.1033 429.265 -23.9057 424.174 -55.7041C414.082 -118.74 311.635 -141.602 219.602 -87.8625Z" fill="#65B5B5"/>
</g>
<g filter="url(#filter18_f_52_74)">
<path d="M284.585 -70.4957C167.24 -51.7079 79.8212 49.4276 90.1437 113.901C100.466 178.374 172.939 238.256 290.285 219.468C348.435 210.158 447.363 196.791 511.31 153.623C576.406 109.68 459.925 1.41883 454.718 -31.1047C444.396 -95.5777 401.931 -89.2834 284.585 -70.4957Z" fill="#65B5B5"/>
</g>
<g filter="url(#filter19_f_52_74)">
<path d="M311.924 -93.0484C209.246 -76.6091 134.455 22.5046 144.778 86.9776C155.1 151.451 219.909 212.56 322.587 196.12C373.468 187.974 341.076 210.75 396.387 168.965C452.692 126.43 424.621 40.7367 419.413 8.21321C409.091 -56.2598 414.601 -109.488 311.924 -93.0484Z" fill="#65B5B5"/>
</g>
</g>
<g opacity="0.6" filter="url(#filter20_f_52_74)">
<path d="M312.959 174.342C385.998 131.694 431.82 16.5949 410.127 -20.5555C388.435 -57.706 393.317 -173.969 256.064 5.69031C183.025 48.3385 54.368 26.8123 145.631 133.887C167.324 171.038 219.606 85.681 312.959 174.342Z" fill="#75F8F0"/>
</g>
</g>
<defs>
<filter id="filter0_f_52_74" x="26.6475" y="-134.808" width="498.123" height="433.556" filterUnits="userSpaceOnUse" color-interpolation-filters="sRGB">
<feFlood flood-opacity="0" result="BackgroundImageFix"/>
<feBlend mode="normal" in="SourceGraphic" in2="BackgroundImageFix" result="shape"/>
<feGaussianBlur stdDeviation="34.4414" result="effect1_foregroundBlur_52_74"/>
</filter>
<filter id="filter1_f_52_74" x="81.4112" y="92.9351" width="276.329" height="227.831" filterUnits="userSpaceOnUse" color-interpolation-filters="sRGB">
<feFlood flood-opacity="0" result="BackgroundImageFix"/>
<feBlend mode="normal" in="SourceGraphic" in2="BackgroundImageFix" result="shape"/>
<feGaussianBlur stdDeviation="1.37766" result="effect1_foregroundBlur_52_74"/>
</filter>
<filter id="filter2_f_52_74" x="39.0672" y="42.1013" width="332.627" height="284.895" filterUnits="userSpaceOnUse" color-interpolation-filters="sRGB">
<feFlood flood-opacity="0" result="BackgroundImageFix"/>
<feBlend mode="normal" in="SourceGraphic" in2="BackgroundImageFix" result="shape"/>
<feGaussianBlur stdDeviation="4.8218" result="effect1_foregroundBlur_52_74"/>
</filter>
<filter id="filter3_f_52_74" x="-14.8399" y="-19.4851" width="416.97" height="350.286" filterUnits="userSpaceOnUse" color-interpolation-filters="sRGB">
<feFlood flood-opacity="0" result="BackgroundImageFix"/>
<feBlend mode="normal" in="SourceGraphic" in2="BackgroundImageFix" result="shape"/>
<feGaussianBlur stdDeviation="6.88828" result="effect1_foregroundBlur_52_74"/>
</filter>
<filter id="filter4_f_52_74" x="-5.38374" y="-81.6669" width="458.628" height="401.762" filterUnits="userSpaceOnUse" color-interpolation-filters="sRGB">
<feFlood flood-opacity="0" result="BackgroundImageFix"/>
<feBlend mode="normal" in="SourceGraphic" in2="BackgroundImageFix" result="shape"/>
<feGaussianBlur stdDeviation="18.5984" result="effect1_foregroundBlur_52_74"/>
</filter>
<filter id="filter5_f_52_74" x="-45.5415" y="-187.234" width="580.915" height="520.834" filterUnits="userSpaceOnUse" color-interpolation-filters="sRGB">
<feFlood flood-opacity="0" result="BackgroundImageFix"/>
<feBlend mode="normal" in="SourceGraphic" in2="BackgroundImageFix" result="shape"/>
<feGaussianBlur stdDeviation="46.1515" result="effect1_foregroundBlur_52_74"/>
</filter>
<filter id="filter6_f_52_74" x="-38.6818" y="-78.439" width="437.886" height="407.85" filterUnits="userSpaceOnUse" color-interpolation-filters="sRGB">
<feFlood flood-opacity="0" result="BackgroundImageFix"/>
<feBlend mode="normal" in="SourceGraphic" in2="BackgroundImageFix" result="shape"/>
<feGaussianBlur stdDeviation="21.3537" result="effect1_foregroundBlur_52_74"/>
</filter>
<filter id="filter7_f_52_74" x="45.642" y="-83.1279" width="418.814" height="395.713" filterUnits="userSpaceOnUse" color-interpolation-filters="sRGB">
<feFlood flood-opacity="0" result="BackgroundImageFix"/>
<feBlend mode="normal" in="SourceGraphic" in2="BackgroundImageFix" result="shape"/>
<feGaussianBlur stdDeviation="23.4202" result="effect1_foregroundBlur_52_74"/>
</filter>
<filter id="filter8_f_52_74" x="28.206" y="-56.9025" width="197.332" height="234.228" filterUnits="userSpaceOnUse" color-interpolation-filters="sRGB">
<feFlood flood-opacity="0" result="BackgroundImageFix"/>
<feBlend mode="normal" in="SourceGraphic" in2="BackgroundImageFix" result="shape"/>
<feGaussianBlur stdDeviation="1.37766" result="effect1_foregroundBlur_52_74"/>
</filter>
<filter id="filter9_f_52_74" x="21.891" y="-89.7647" width="252.154" height="281.537" filterUnits="userSpaceOnUse" color-interpolation-filters="sRGB">
<feFlood flood-opacity="0" result="BackgroundImageFix"/>
<feBlend mode="normal" in="SourceGraphic" in2="BackgroundImageFix" result="shape"/>
<feGaussianBlur stdDeviation="4.8218" result="effect1_foregroundBlur_52_74"/>
</filter>
<filter id="filter10_f_52_74" x="25.4002" y="-144.631" width="335.847" height="360.705" filterUnits="userSpaceOnUse" color-interpolation-filters="sRGB">
<feFlood flood-opacity="0" result="BackgroundImageFix"/>
<feBlend mode="normal" in="SourceGraphic" in2="BackgroundImageFix" result="shape"/>
<feGaussianBlur stdDeviation="6.88828" result="effect1_foregroundBlur_52_74"/>
</filter>
<filter id="filter11_f_52_74" x="8.96929" y="-142.762" width="397.616" height="412.127" filterUnits="userSpaceOnUse" color-interpolation-filters="sRGB">
<feFlood flood-opacity="0" result="BackgroundImageFix"/>
<feBlend mode="normal" in="SourceGraphic" in2="BackgroundImageFix" result="shape"/>
<feGaussianBlur stdDeviation="18.5984" result="effect1_foregroundBlur_52_74"/>
</filter>
<filter id="filter12_f_52_74" x="-49.3254" y="-146.463" width="554.628" height="497.917" filterUnits="userSpaceOnUse" color-interpolation-filters="sRGB">
<feFlood flood-opacity="0" result="BackgroundImageFix"/>
<feBlend mode="normal" in="SourceGraphic" in2="BackgroundImageFix" result="shape"/>
<feGaussianBlur stdDeviation="46.1515" result="effect1_foregroundBlur_52_74"/>
</filter>
<filter id="filter13_f_52_74" x="29.9837" y="-167.087" width="386.224" height="390.046" filterUnits="userSpaceOnUse" color-interpolation-filters="sRGB">
<feFlood flood-opacity="0" result="BackgroundImageFix"/>
<feBlend mode="normal" in="SourceGraphic" in2="BackgroundImageFix" result="shape"/>
<feGaussianBlur stdDeviation="21.3537" result="effect1_foregroundBlur_52_74"/>
</filter>
<filter id="filter14_f_52_74" x="185.47" y="-151.284" width="243.254" height="223.214" filterUnits="userSpaceOnUse" color-interpolation-filters="sRGB">
<feFlood flood-opacity="0" result="BackgroundImageFix"/>
<feBlend mode="normal" in="SourceGraphic" in2="BackgroundImageFix" result="shape"/>
<feGaussianBlur stdDeviation="1.37766" result="effect1_foregroundBlur_52_74"/>
</filter>
<filter id="filter15_f_52_74" x="134.335" y="-152.652" width="294" height="288.672" filterUnits="userSpaceOnUse" color-interpolation-filters="sRGB">
<feFlood flood-opacity="0" result="BackgroundImageFix"/>
<feBlend mode="normal" in="SourceGraphic" in2="BackgroundImageFix" result="shape"/>
<feGaussianBlur stdDeviation="4.8218" result="effect1_foregroundBlur_52_74"/>
</filter>
<filter id="filter16_f_52_74" x="77.179" y="-154.492" width="383.451" height="360.514" filterUnits="userSpaceOnUse" color-interpolation-filters="sRGB">
<feFlood flood-opacity="0" result="BackgroundImageFix"/>
<feBlend mode="normal" in="SourceGraphic" in2="BackgroundImageFix" result="shape"/>
<feGaussianBlur stdDeviation="6.88828" result="effect1_foregroundBlur_52_74"/>
</filter>
<filter id="filter17_f_52_74" x="29.0774" y="-155.144" width="446.688" height="377.983" filterUnits="userSpaceOnUse" color-interpolation-filters="sRGB">
<feFlood flood-opacity="0" result="BackgroundImageFix"/>
<feBlend mode="normal" in="SourceGraphic" in2="BackgroundImageFix" result="shape"/>
<feGaussianBlur stdDeviation="18.5984" result="effect1_foregroundBlur_52_74"/>
</filter>
<filter id="filter18_f_52_74" x="-2.98718" y="-175.624" width="626.32" height="490.898" filterUnits="userSpaceOnUse" color-interpolation-filters="sRGB">
<feFlood flood-opacity="0" result="BackgroundImageFix"/>
<feBlend mode="normal" in="SourceGraphic" in2="BackgroundImageFix" result="shape"/>
<feGaussianBlur stdDeviation="46.1515" result="effect1_foregroundBlur_52_74"/>
</filter>
<filter id="filter19_f_52_74" x="101.118" y="-138.769" width="372.594" height="380.306" filterUnits="userSpaceOnUse" color-interpolation-filters="sRGB">
<feFlood flood-opacity="0" result="BackgroundImageFix"/>
<feBlend mode="normal" in="SourceGraphic" in2="BackgroundImageFix" result="shape"/>
<feGaussianBlur stdDeviation="21.3537" result="effect1_foregroundBlur_52_74"/>
</filter>
<filter id="filter20_f_52_74" x="56.2412" y="-149.766" width="417.155" height="381.97" filterUnits="userSpaceOnUse" color-interpolation-filters="sRGB">
<feFlood flood-opacity="0" result="BackgroundImageFix"/>
<feBlend mode="normal" in="SourceGraphic" in2="BackgroundImageFix" result="shape"/>
<feGaussianBlur stdDeviation="28.9308" result="effect1_foregroundBlur_52_74"/>
</filter>
<linearGradient id="paint0_linear_52_74" x1="216.469" y1="181.643" x2="25.3601" y2="151.142" gradientUnits="userSpaceOnUse">
<stop stop-color="#C4C4C4"/>
<stop offset="1" stop-color="#C4C4C4" stop-opacity="0"/>
</linearGradient>
<linearGradient id="paint1_linear_52_74" x1="282.91" y1="295.011" x2="153.01" y2="55.3375" gradientUnits="userSpaceOnUse">
<stop stop-color="#C4C4C4"/>
<stop offset="1" stop-color="#C4C4C4" stop-opacity="0"/>
</linearGradient>
<linearGradient id="paint2_linear_52_74" x1="148.772" y1="161.052" x2="92.9472" y2="-18.8555" gradientUnits="userSpaceOnUse">
<stop stop-color="#C4C4C4"/>
<stop offset="0.943414" stop-color="#C4C4C4" stop-opacity="0"/>
</linearGradient>
<linearGradient id="paint3_linear_52_74" x1="92.2965" y1="83.2163" x2="285.253" y2="-19.0668" gradientUnits="userSpaceOnUse">
<stop stop-color="#C4C4C4"/>
<stop offset="1" stop-color="#C4C4C4" stop-opacity="0"/>
</linearGradient>
<linearGradient id="paint4_linear_52_74" x1="368.414" y1="-140.152" x2="255.222" y2="221.161" gradientUnits="userSpaceOnUse">
<stop stop-color="#C4C4C4"/>
<stop offset="1" stop-color="#C4C4C4" stop-opacity="0"/>
</linearGradient>
<clipPath id="clip0_52_74">
<path d="M0 0H393V261C393 272.046 384.046 281 373 281H20C8.9543 281 0 272.046 0 261V0Z" fill="white"/>
</clipPath>
</defs>
</svg>
