<svg width="202" height="170" viewBox="0 0 202 170" fill="none" xmlns="http://www.w3.org/2000/svg">
<g opacity="0.2">
<path d="M92.6309 48.4457C93.5903 46.863 93.7102 47.1332 92.1638 46.1103C91.924 45.9559 91.6715 45.8272 91.4317 45.6792L91.2549 45.8272C91.4127 46.0781 91.5768 46.3226 91.7409 46.5799C91.0088 46.2196 91.0025 46.2261 90.447 47.2297C89.9232 48.1626 89.3867 49.089 88.8691 50.0283C87.4237 52.6596 85.9594 55.2845 84.5456 57.9352C82.9361 60.9461 81.3519 63.9699 79.8055 67.0129C78.4043 69.7665 77.0662 72.5522 75.7029 75.3251C74.6867 77.3838 73.6516 79.4361 72.6669 81.5078C71.1458 84.7117 69.6436 87.922 68.1604 91.1452C67.302 93.011 66.4815 94.8896 65.6546 96.7682C64.7584 98.7883 63.8874 100.821 62.9658 102.829C62.8649 103.054 62.5051 103.285 62.2652 103.292C60.6242 103.33 58.9768 103.311 57.279 103.311C57.2601 103.137 57.2411 102.957 57.2285 102.784C56.7488 102.964 56.3259 103.157 55.8778 103.285C55.0068 103.543 54.4513 103.015 53.9338 102.41C53.6245 102.05 53.3089 101.696 52.9492 101.285C53.2837 100.911 53.6371 100.538 53.959 100.133C54.06 100.004 54.0726 99.8113 54.1231 99.644C53.9527 99.7083 53.7823 99.7662 53.6119 99.8306C53.593 99.837 53.5866 99.8692 53.5677 99.882C52.5705 100.969 52.5642 100.976 51.5417 99.9335C50.9862 99.3673 50.4623 98.7755 49.9259 98.1964C49.9006 98.1643 49.8943 98.1128 49.8754 98.0485C50.3109 97.5659 50.7464 97.0706 51.1882 96.5816C51.1377 96.5301 51.0872 96.4787 51.0367 96.4208C50.3551 96.6202 50.0268 97.2957 49.4967 97.7525C48.5751 96.8068 47.6599 95.8675 46.7448 94.9217C46.7763 94.8445 46.8016 94.7738 46.8331 94.6966C48.897 95.3335 50.9673 95.9511 53.0249 96.6138C54.1358 96.9676 55.2088 97.463 56.3322 97.7718C57.0328 97.9648 57.7966 97.952 58.5287 97.9906C60.3212 98.0871 62.1138 98.1643 63.9126 98.2479C64.2534 98.2672 64.4428 98.1578 64.6132 97.7847C66.4562 93.6736 68.3182 89.569 70.2117 85.4773C71.493 82.7173 72.8437 79.983 74.1754 77.2423C75.7029 74.0899 77.224 70.9374 78.7956 67.8107C79.9948 65.411 81.2446 63.037 82.5132 60.6759C84.3689 57.2146 86.2434 53.7598 88.1369 50.3178C89.191 48.4006 90.2892 46.5156 91.3685 44.6177C88.9827 41.536 88.036 38.0619 88.5472 34.221C89.0585 30.3609 90.9646 27.3243 94.07 24.9889C93.281 23.6957 92.5236 22.4026 91.7283 21.1352C90.2703 18.8255 88.7997 16.5287 87.3101 14.2448C86.7168 13.3377 86.0856 12.4499 85.4166 11.6006C84.6529 10.6292 84.7097 9.29097 85.7133 8.33881C86.092 7.97209 86.578 7.65685 87.0703 7.48314C88.219 7.07783 89.2352 7.57965 89.8537 8.65405C90.9898 10.642 92.1512 12.6236 93.3315 14.5858C94.821 17.0627 96.3422 19.5203 97.8444 21.9973C98.4377 22.9752 98.425 22.9752 99.5359 22.7629C101.126 22.4605 102.704 22.4734 104.282 22.8787C104.409 22.9108 104.655 22.795 104.73 22.6728C106.529 19.7455 108.315 16.8118 110.089 13.8717C111.162 12.0896 112.222 10.2946 113.27 8.49321C114.318 6.68538 116.268 7.2065 117.297 8.35167C118.269 9.42608 118.408 10.6871 117.291 11.9287C116.287 13.0482 115.561 14.4314 114.728 15.7052C113.567 17.4873 112.399 19.2694 111.263 21.0708C110.487 22.3061 109.773 23.5799 109.035 24.828C115.801 29.6339 116.647 38.8661 111.724 44.8686C121.86 62.3357 130.69 80.5041 138.896 99.0135C141.477 98.6661 144.071 98.4409 146.609 97.9391C148.111 97.6432 149.518 96.8518 150.995 96.3757C152.529 95.8803 154.101 95.4943 155.653 95.0826C155.855 95.0311 156.083 95.0761 156.512 95.0761C155.83 95.7774 155.294 96.3436 154.738 96.8904C154.423 97.2057 154.075 97.7268 153.747 97.7268C153.432 97.7268 153.116 97.1671 152.788 96.8711C152.611 96.7103 152.409 96.5687 152.131 96.4851C152.22 97.2764 153.015 97.5917 153.261 98.1064C152.352 99.0907 151.469 100.036 150.358 101.24C149.929 100.648 149.531 100.094 149.127 99.5346C149.051 99.6054 148.969 99.6826 148.893 99.7533C149.209 100.126 149.499 100.525 149.84 100.873C150.206 101.24 150.238 101.523 149.828 101.883C149.455 102.211 149.146 102.603 148.799 102.964C148.389 103.395 146.968 103.466 146.495 103.092C146.325 102.957 146.148 102.829 145.883 102.629C145.87 102.912 145.864 103.092 145.851 103.318C144.078 103.318 142.304 103.33 140.53 103.298C140.354 103.298 140.101 103.067 140.013 102.88C139.565 101.934 139.161 100.969 138.738 100.011C137.589 97.4115 136.459 94.7995 135.292 92.2068C133.853 89.0157 132.407 85.8311 130.911 82.6658C129.7 80.0859 128.425 77.5382 127.162 74.9905C125.401 71.4457 123.64 67.9008 121.835 64.3752C120.585 61.9304 119.279 59.5114 117.972 57.0924C116.502 54.3774 115.006 51.6817 113.516 48.9732C113.188 48.3749 112.885 47.7508 112.525 47.1718C112.45 47.0496 112.153 47.0624 111.976 47.0238C111.989 46.8952 112.014 46.6829 112.039 46.477H111.326C111.427 46.2904 111.572 46.0395 111.711 45.7886L111.497 45.602C110.922 46.0138 110.323 46.3934 109.799 46.863C109.679 46.9659 109.736 47.4356 109.862 47.6415C111.806 50.929 113.788 54.1908 115.732 57.4784C116.704 59.1254 117.6 60.8174 118.528 62.4901C118.597 62.6124 118.616 62.7603 118.585 62.9276C115.505 57.7036 112.431 52.4795 109.338 47.2297C108.789 47.5128 108.688 47.7315 108.966 48.2012C110.992 51.5852 112.999 54.9822 114.987 58.3919C116.237 60.5343 117.467 62.696 118.667 64.8706C120.289 67.8107 121.905 70.7508 123.476 73.7231C125.477 77.519 127.459 81.3276 129.384 85.162C130.93 88.2308 132.407 91.3318 133.878 94.4392C135.191 97.225 136.447 100.036 137.728 102.835C137.785 102.957 137.823 103.086 137.886 103.273H132.369C133.013 102.597 133.569 102.031 134.105 101.452C134.478 101.053 134.856 100.66 135.191 100.236C135.525 99.8177 135.658 99.3931 135.374 98.8205C133.96 95.9382 132.603 93.0238 131.202 90.1352C129.851 87.3494 128.488 84.5701 127.093 81.8101C125.805 79.2689 124.486 76.7533 123.148 74.2443C121.646 71.4264 120.131 68.6213 118.591 65.8292C117.228 63.3651 115.845 60.9139 114.438 58.4756C112.746 55.5483 111.023 52.6403 109.3 49.7259C108.934 49.1019 108.517 48.5036 108.114 47.8666C106.34 48.9603 104.415 49.43 102.452 49.5908C101.309 49.6809 100.104 49.5715 98.9868 49.2949C97.6992 48.9796 96.4684 48.4135 95.2313 47.8988C94.8526 47.7444 94.7706 47.9245 94.6191 48.1754C93.6155 49.8546 92.5804 51.508 91.6021 53.2065C89.0648 57.6006 86.5275 61.9883 84.047 66.4146C82.2418 69.6314 80.4998 72.8803 78.7767 76.1422C77.4828 78.5998 76.2709 81.096 75.0149 83.5794C74.977 83.6566 74.9013 83.7209 74.8382 83.7852C74.7372 83.6823 74.6362 83.5794 74.5352 83.4764C75.7723 81.0188 76.9905 78.5483 78.2528 76.11C79.471 73.7553 80.7144 71.4071 81.9893 69.0845C83.4726 66.3889 84.9937 63.7125 86.5211 61.0361C88.0928 58.2761 89.6896 55.529 91.2802 52.7754C92.1891 51.2057 93.1169 49.6552 94.0131 48.0789C94.1015 47.9181 93.9942 47.6479 93.9753 47.4227C93.7733 47.5257 93.5335 47.59 93.382 47.7508C93.1548 47.9953 92.997 48.2977 92.8076 48.5743C92.7508 48.5293 92.6877 48.4778 92.6309 48.4328V48.4457ZM96.2538 43.8135C96.4936 44.0773 96.7335 44.341 97.0365 44.6756C97.2637 44.5212 97.2447 44.1866 96.9733 43.9422C96.2854 43.331 95.5595 42.7713 94.84 42.2051C94.7516 42.1343 94.5875 42.1601 94.3919 42.1343C94.8652 42.604 95.2755 43.0029 95.6794 43.4017C94.9725 43.1701 94.6506 43.3181 94.6885 43.8392C94.5749 43.8199 94.4613 43.8006 94.3161 43.7749C94.3792 43.9743 94.4234 44.1159 94.4928 44.341C94.2972 44.2317 94.1836 44.1738 93.95 44.0451C94.0636 44.3668 94.1331 44.5469 94.2088 44.7592H93.767C93.7922 44.9587 93.8175 45.1388 93.849 45.3704C93.6218 45.3382 93.4703 45.3189 93.281 45.2932C93.3567 45.5055 93.4072 45.6599 93.4767 45.8529C93.1926 45.795 92.9843 45.75 92.7697 45.6985C92.7508 45.7436 92.7382 45.7886 92.7192 45.8272C93.3252 46.2647 93.9248 46.7022 94.6317 47.2169C94.6191 46.9466 94.6065 46.8051 94.6001 46.6571H95.0672C95.0167 46.4191 94.9788 46.2261 94.941 46.0395C95.6226 46.1424 95.3323 45.6921 95.2376 45.364C96.0771 45.5441 95.8751 45.1259 95.6731 44.7078C96.3548 44.7528 96.4684 44.5855 96.2601 43.8135H96.2538ZM98.8921 31.1136C99.7442 31.2745 99.6874 30.4896 100.009 30.0778C99.2266 29.6596 99.5675 29.0099 99.6684 28.4823C99.7694 27.9805 99.6684 27.7296 99.1761 27.6974C98.4818 27.6588 98.0842 27.2664 97.8759 26.6037C98.04 26.4493 98.2168 26.2949 98.3872 26.1341C98.3682 26.1019 98.3493 26.0633 98.3304 26.0311C98.1158 26.1148 97.9075 26.192 97.6866 26.2756C97.2574 25.7802 97.4404 25.2527 97.5288 24.7122C97.5603 24.5128 97.3899 24.0817 97.3079 24.0817C96.2412 24.0624 95.7867 23.3097 95.4207 22.4862C95.2692 22.1452 95.1619 21.7078 95.2313 21.3475C95.4207 20.3696 95.4333 20.2795 94.4487 20.1766C93.8301 20.1122 93.7354 19.8292 93.8301 19.4431C92.7887 18.5167 92.391 17.4745 92.795 16.1813C90.8384 15.3643 90.7437 15.2678 90.9962 14.4957C90.7563 14.3606 90.4344 14.2963 90.365 14.129C90.2387 13.8202 90.1946 13.4406 90.2451 13.1061C90.3965 12.141 90.4218 12.1475 89.4813 11.9545C88.6166 11.7743 88.3011 11.1567 88.6798 10.3782C88.4967 10.4297 88.32 10.4748 88.0486 10.552C88.0991 10.2946 88.1433 10.1273 88.1559 9.95363C88.1874 9.56119 88.3074 9.13657 88.2001 8.77629C88.0738 8.34524 87.8024 7.79839 87.2217 7.98496C86.2687 8.28734 85.6186 8.96286 85.385 9.9858C85.202 10.8029 85.7953 11.4848 86.3255 11.3368C86.4896 11.7422 86.6032 12.1346 86.8052 12.4756C87.0703 12.9195 87.4048 13.312 87.7393 13.7752C87.815 13.743 87.9602 13.6851 87.9539 13.6851C88.0107 14.0196 87.9728 14.3864 88.1306 14.6244C89.7275 17.1721 91.3875 19.6812 92.9717 22.2417C94.5812 24.8473 96.1213 27.4915 97.6992 30.1164C98.0526 30.7019 98.4313 31.2616 98.8037 31.8406C98.8795 31.8085 98.9489 31.7763 99.0246 31.7506C98.9868 31.5382 98.9552 31.3195 98.9173 31.1072L98.9047 31.1201L98.8921 31.1136ZM98.6459 39.651C100.786 36.1382 102.875 32.7092 104.964 29.2801C105.014 29.3122 105.065 29.3444 105.122 29.3766C104.699 30.1164 104.276 30.8563 103.847 31.5961C103.411 32.3424 102.976 33.0952 102.54 33.8415C102.092 34.6071 101.638 35.3598 101.202 36.1254C100.773 36.8717 100.337 37.618 99.9588 38.39C99.6053 39.1106 99.0814 39.7603 98.9742 40.5903C99.1509 40.5066 99.2582 40.3973 99.3339 40.2622C100.565 38.1198 101.758 35.9517 103.026 33.8286C105.475 29.7304 107.956 25.6451 110.449 21.5727C112.084 18.9027 113.775 16.2778 115.429 13.6208C115.643 13.2734 115.77 12.8616 115.94 12.4756C116.432 12.7072 116.192 12.2118 116.161 11.9159C116.325 11.9094 116.483 11.8966 116.716 11.8837C116.578 11.6199 116.477 11.4269 116.35 11.1953C117.007 11.4913 117.366 11.3368 117.505 10.6742C117.568 10.3782 117.55 10.0308 117.467 9.74132C117.253 9.00146 116.767 8.49321 116.085 8.15223C115.536 7.87559 115.094 7.99783 114.829 8.55112C114.539 9.16874 114.52 9.77349 115.069 10.4426H114.23C114.716 11.131 114.482 11.8001 112.563 12.1282C112.639 12.5657 112.721 12.9967 112.797 13.4342C112.898 14.0454 112.443 14.5408 111.863 14.3864C112.336 14.9525 111.976 15.4029 111.598 15.6473C111.206 15.9111 110.676 15.9497 110.171 16.0977C110.234 16.5352 110.367 16.9662 110.335 17.3844C110.304 17.7511 110.102 18.1114 109.944 18.4588C109.742 18.9092 109.553 19.4174 108.707 19.0121C108.997 19.3402 109.142 19.4946 109.433 19.8227C108.751 20.0543 108.196 20.2473 107.609 20.4532C108.006 22.4219 107.457 23.8244 105.324 24.1847C105.381 24.5707 105.444 24.8859 105.463 25.2012C105.482 25.4843 105.538 25.8317 105.406 26.0375C105.311 26.192 104.939 26.1662 104.655 26.2241C104.794 26.385 104.945 26.5522 105.033 26.6552C104.844 27.7875 103.859 27.6073 103.216 27.8968C103.216 28.6624 103.702 29.383 103.083 30.0843C102.919 29.9878 102.755 29.8913 102.591 29.7948C102.578 29.8205 102.559 29.8462 102.547 29.8784C102.673 30.0521 102.799 30.2322 102.881 30.348C102.793 31.0622 102.307 31.1651 101.827 31.178C101.24 31.1973 101.158 31.4868 101.278 31.9822C101.366 32.3424 101.417 32.7092 101.505 33.1659C100.836 32.825 100.388 33.0244 100.016 33.5069C99.5359 34.131 99.7884 34.6907 100.255 35.3019C99.8073 35.3855 99.4349 35.4563 99.0688 35.5271C98.6964 35.5978 98.526 35.7973 98.6396 36.1961C98.7785 36.6851 98.8984 37.1805 99.0436 37.7466C98.7722 37.7209 98.5955 37.7016 98.3872 37.6759C98.5323 37.9396 98.6396 38.1391 98.8164 38.4608C98.4503 38.2935 98.2294 38.1906 97.8696 38.0297C98.1789 38.4222 98.3809 38.6731 98.5828 38.9304C98.545 38.9626 98.5134 38.9883 98.4755 39.0205C98.1978 38.8596 97.9138 38.7052 97.6361 38.5444L97.5603 38.6538C97.8949 38.969 98.2294 39.2778 98.6459 39.6638V39.651ZM110.36 39.6896C110.512 39.6638 110.638 39.6317 110.764 39.6188C111.219 39.5738 111.635 39.4387 112.002 39.9791C112.399 40.5645 112.147 40.9699 111.856 41.4009C111.629 41.7355 111.32 42.0185 111.042 42.3145C110.487 42.8999 110.493 43.0865 111.118 43.6913C115.094 39.0655 114.798 30.2065 108.366 25.8703C107.905 26.668 107.451 27.4529 106.996 28.2378C110.398 30.7534 112.065 35.289 110.36 39.7024V39.6896ZM91.9492 43.5947C92.4163 43.1251 92.4163 42.752 91.9366 42.3145C91.5579 41.9671 91.2486 41.536 90.9204 41.1243C90.567 40.6803 90.7942 40.2943 91.0214 39.8761C91.2486 39.4644 91.5453 39.548 91.8798 39.6188C92.2206 39.696 92.5615 39.7539 92.9023 39.8182C92.7382 39.162 92.5615 38.5573 92.4289 37.9396C91.9934 35.9388 92.2901 34.0152 93.0601 32.1623C93.6281 30.792 94.5055 29.6468 95.6542 28.7268C95.9319 28.5016 96.0329 28.2443 95.812 27.9033C95.4207 27.2985 95.0546 26.6809 94.6822 26.0633C90.2892 28.7654 87.0829 36.6143 91.9492 43.5947ZM107.482 46.8437C107.325 46.5799 107.129 46.3226 107.003 46.0395C106.756 45.4798 106.403 45.4862 105.917 45.6985C105.488 45.8915 105.033 46.0717 104.579 46.136C104.162 46.1939 103.594 46.2454 103.323 46.0138C102.988 45.7371 102.704 45.6535 102.326 45.6406C101.701 45.6213 101.076 45.5699 100.451 45.5763C100.243 45.5763 99.9272 45.6406 99.8452 45.7886C99.6116 46.2132 99.2645 46.2968 98.8732 46.2132C98.0274 46.0202 97.1943 45.7822 96.2854 45.5441C96.0708 45.8915 95.8057 46.3161 95.5469 46.7408C98.7532 48.8896 104.118 49.1083 107.489 46.8501L107.482 46.8437ZM106.176 22.1388C106.188 22.0101 106.138 21.7271 106.245 21.5341C106.687 20.7427 107.16 19.9643 107.653 19.2051C107.912 18.8127 108.233 18.4652 108.53 18.0985C108.82 16.7989 109.856 15.8339 110.386 14.6308C110.613 14.6759 110.777 14.7145 110.79 14.7145C110.828 14.3735 110.777 14.0518 110.903 13.8202C111.396 12.9002 111.932 11.9995 112.481 11.1181C112.601 10.9315 112.854 10.8286 112.992 10.7257C113.024 10.3847 113.056 10.0437 113.087 9.69629C107.041 19.4817 101.007 29.2479 94.9725 39.0141C95.1682 38.9755 95.2755 38.8725 95.3575 38.7503C96.2222 37.4314 97.0743 36.0996 97.9517 34.7872C98.0842 34.5878 98.3114 34.4462 98.5134 34.2661C98.5576 34.0859 98.5765 33.8093 98.6901 33.5713C99.1067 32.6834 99.7884 31.9693 100.287 31.1201C101.96 28.2571 103.765 25.4714 105.538 22.6664C105.677 22.4476 105.949 22.3254 106.182 22.1388H106.176ZM103.941 23.8887H98.9742C99.4917 24.6929 99.902 25.3041 100.293 25.9346C100.805 26.7645 102.048 26.8803 102.603 26.089C103.058 25.4457 103.43 24.738 103.948 23.8823L103.941 23.8887ZM101.467 37.5279C100.823 38.6345 100.243 39.651 99.6243 40.7125C100.912 41.1178 102.092 41.2594 103.354 40.7254C102.711 39.6317 102.111 38.628 101.467 37.5343V37.5279ZM94.3098 18.1822C94.9283 18.3623 96.8597 21.5727 96.7651 22.1131C96.9607 22.2417 97.1816 22.3061 97.2826 22.4605C98.0085 23.5799 98.7091 24.7187 99.416 25.851C99.9462 26.7002 100.476 27.5559 101 28.4051C101.082 28.3536 101.164 28.2957 101.246 28.2443C97.7118 22.4669 94.1709 16.6896 90.6364 10.9122C90.5859 10.938 90.5354 10.9701 90.4849 10.9959C90.5796 11.1953 90.6553 11.4012 90.7626 11.5813C91.034 12.0317 91.4443 12.4306 91.5705 12.9195C91.7346 13.5307 92.8518 14.0261 91.8987 14.8753C92.1133 14.7981 92.3216 14.7209 92.5236 14.6501C93.5966 16.117 94.3666 17.6353 94.3035 18.1822H94.3098ZM109.622 45.3125C108.921 45.261 108.745 44.8429 108.934 44.1673C108.745 44.2381 108.612 44.2896 108.36 44.3861C108.568 43.6591 108.738 43.0415 108.94 42.3273C108.24 42.8613 107.571 43.3503 106.933 43.8843C106.775 44.0129 106.719 44.2767 106.618 44.4826C106.826 44.5791 107.028 44.6692 107.23 44.7592C107.211 44.8815 107.173 45.1066 107.135 45.3318C107.343 45.3511 107.558 45.3704 107.747 45.3897C107.672 45.5699 107.59 45.7629 107.482 46.0202H108.132C108.107 46.2711 107.552 46.7794 108.372 46.6571C108.385 46.8115 108.391 46.9595 108.41 47.204C109.098 46.6893 109.698 46.2454 110.297 45.8015C110.278 45.7629 110.253 45.7243 110.234 45.6857C110.001 45.75 109.767 45.8143 109.445 45.9044C109.527 45.6471 109.578 45.4862 109.628 45.3254L109.622 45.3125ZM104.383 35.6815C103.96 35.5721 103.639 35.437 103.31 35.4177C103.089 35.4048 102.755 35.4692 102.654 35.6236C102.496 35.868 102.414 36.2219 102.439 36.5178C102.458 36.7687 102.679 37.0003 102.818 37.232C103.298 38.0361 103.777 38.8403 104.295 39.7153C104.655 39.3229 104.932 39.0269 105.204 38.7245L105.122 38.6216C104.901 38.7567 104.674 38.8982 104.453 39.0334L104.364 38.9368C104.598 38.6473 104.825 38.3578 105.141 37.9654C104.762 38.1134 104.528 38.2099 104.289 38.2999C104.263 38.2678 104.244 38.2356 104.219 38.2034C104.377 38.0104 104.535 37.811 104.806 37.4764C104.465 37.618 104.282 37.6952 103.904 37.8496C104.074 37.0647 104.219 36.3956 104.377 35.675L104.383 35.6815ZM110.651 40.5066C109.212 40.3844 104.806 43.3631 104.017 45.1838C105.949 43.2152 108.101 41.581 110.651 40.5066ZM92.2332 40.378C94.5812 41.5038 96.7083 42.9771 98.6333 44.7464C96.9165 42.6426 94.8084 41.15 92.2332 40.378ZM104.289 33.018C104.257 33.0566 104.219 33.0887 104.188 33.1273C104.263 33.5777 104.339 34.0345 104.39 34.3433C104.648 34.5363 104.97 34.6714 105.128 34.9159C105.961 36.1833 106.756 37.4764 107.564 38.7567C107.64 38.8725 107.76 38.9626 107.861 39.0655L107.968 38.9561C106.744 36.9746 105.513 34.9995 104.289 33.018ZM107.104 35.7201C108.252 36.2669 109.269 36.1704 110.266 35.6043C109.25 35.1282 108.24 35.1861 107.104 35.7201ZM105.084 31.5575C106.176 31.2359 107.072 30.0135 106.927 29.1192C105.848 29.5889 105.614 30.689 105.084 31.5575ZM96.0834 34.9545C95.4143 34.176 93.7544 33.8929 93.1043 34.4076C94.0258 34.9416 94.9662 35.2568 96.0834 34.9545ZM106.378 35.4177C106.264 34.3304 106.024 33.4619 104.604 32.1816C104.724 33.5262 105.797 34.3368 106.378 35.4177ZM103.102 41.581C102.786 42.6812 103.342 43.5368 103.512 44.4311C104.219 43.8264 104.099 42.7005 103.102 41.581ZM102.016 36.6851C101.903 36.8717 101.777 37.0003 101.802 37.0454C102.465 38.242 103.14 39.4258 103.809 40.6096C103.885 40.571 103.96 40.5259 104.036 40.4873C103.519 39.1878 102.774 38.004 102.016 36.6787V36.6851ZM97.8696 31.5575C97.3268 30.7534 97.1311 29.6596 96.0455 29.0227C96.2412 30.3416 97.0428 30.9528 97.8696 31.5575ZM108.852 42.0314L108.644 41.7676C107.76 42.4817 106.851 43.1637 106.005 43.9293C105.576 44.3217 105.639 44.4633 106.094 44.7785C106.037 43.9293 106.738 43.6784 107.236 43.2731C107.76 42.842 108.315 42.4431 108.852 42.0314ZM99.5801 41.343C98.5828 42.0636 98.2357 43.2538 98.8669 43.6269C99.0941 42.9064 99.3087 42.2115 99.5801 41.343ZM96.8282 34.7229C96.885 34.755 96.9418 34.7872 96.9986 34.8258C97.4972 34.0602 97.9958 33.301 98.4945 32.5355C98.4061 32.4776 98.3114 32.4196 98.2231 32.3682C97.756 33.1531 97.2952 33.938 96.8282 34.7229Z" fill="white"/>
<path d="M74.9074 86.2046C76.8451 84.3196 78.6755 82.4346 80.6195 80.6718C83.4913 78.0726 86.704 75.9753 90.2575 74.4891C91.8543 73.82 93.5585 73.4147 95.1869 72.8228C96.4997 72.3532 97.8315 72.173 99.2138 72.173C100.034 72.173 100.855 71.9607 101.663 71.9993C102.698 72.0508 103.739 72.2181 104.762 72.3982C106.011 72.6169 107.286 72.7842 108.479 73.196C110.234 73.8072 111.938 74.5792 113.63 75.3641C114.804 75.9109 115.94 76.5543 117.057 77.2234C118.66 78.182 120.169 79.2757 121.507 80.6074C122.523 81.6175 123.621 82.5375 124.631 83.5411C125.395 84.3003 126.089 85.1238 126.783 85.9473C126.891 86.076 126.922 86.4362 126.828 86.5456C125.843 87.6908 124.858 88.836 123.817 89.9232C122.018 91.7954 120.005 93.4102 117.84 94.8128C116.18 95.8872 114.488 96.9358 112.733 97.8301C111.522 98.4477 110.196 98.8916 108.877 99.239C106.883 99.7666 104.869 100.281 102.837 100.539C101.29 100.732 99.6682 100.674 98.1282 100.423C96.0705 100.082 94.0066 99.5993 92.0437 98.8981C90.1375 98.2161 88.2882 97.2961 86.5462 96.2474C84.5264 95.0315 82.5635 93.6804 80.7457 92.175C79.0857 90.8046 77.653 89.1576 76.1319 87.6136C75.7531 87.234 75.4249 86.7965 74.9074 86.2046ZM96.6386 75.6407C96.6007 75.5635 96.5565 75.4927 96.5187 75.4155C95.0354 75.956 93.5522 76.4964 92.0689 77.0432C89.5947 77.9504 87.3351 79.295 85.2397 80.8583C83.1757 82.396 81.3264 84.2231 79.4013 85.9537C79.2688 86.0695 79.2246 86.5134 79.3319 86.6357C79.8431 87.234 80.3859 87.8195 80.9792 88.3341C82.0712 89.2799 83.1947 90.1934 84.3371 91.0813C85.3469 91.8597 86.3505 92.6639 87.4424 93.3202C89.6894 94.6712 92.05 95.8035 94.5431 96.6141C95.3636 96.8844 96.2031 97.0709 97.0362 97.2961L97.1562 97.1288C97.0615 96.968 96.9857 96.6913 96.8658 96.6656C95.6224 96.389 94.7009 95.6169 93.7668 94.7935C91.4314 92.7218 90.2007 90.0905 89.9924 87.0024C89.8598 85.053 90.1754 83.1165 91.1032 81.3537C91.3557 80.8776 91.6902 80.4466 91.9679 79.9769C92.8516 78.4715 94.0887 77.3649 95.6098 76.5607C96.0201 76.342 96.525 76.2004 96.6386 75.6536V75.6407ZM105.267 75.4477C105.235 75.512 105.197 75.5828 105.166 75.6472C105.279 75.7694 105.368 75.9495 105.507 76.0139C107.653 76.9725 109.426 78.4007 110.524 80.5302C111.13 81.7011 111.692 82.9493 111.97 84.236C112.317 85.8637 112.412 87.5685 111.932 89.2155C111.642 90.2127 111.395 91.255 110.89 92.1364C109.773 94.0793 108.05 95.3918 106.087 96.389C105.753 96.5562 105.418 96.7364 105.09 96.9101C105.109 96.9744 105.128 97.0323 105.153 97.0967C105.412 97.0967 105.69 97.1546 105.929 97.0838C106.763 96.8393 107.589 96.5562 108.41 96.286C111.156 95.3725 113.68 94.015 116.072 92.368C118.49 90.6953 120.749 88.8424 122.794 86.7193C123.053 86.4491 123.059 86.3011 122.801 86.0631C122.321 85.6192 121.879 85.1302 121.387 84.6992C119.948 83.4446 118.521 82.1772 117.032 80.9934C116.3 80.4144 115.384 80.067 114.633 79.5073C112.146 77.6351 109.3 76.5929 106.39 75.6793C106.03 75.5635 105.645 75.5314 105.273 75.4606L105.267 75.4477ZM100.621 78.079C100.161 78.1305 99.6745 78.1112 99.239 78.2527C97.9388 78.6709 96.7522 79.3079 95.755 80.2858C94.2402 81.7655 93.3186 83.554 93.123 85.6835C93.0094 86.8995 92.9841 88.1476 93.4827 89.3056C94.177 90.9397 95.2311 92.2522 96.727 93.2365C97.9956 94.0729 99.3463 94.6004 100.83 94.6197C102.426 94.6326 103.998 94.3302 105.298 93.2687C106.119 92.5996 106.983 91.9241 107.621 91.0877C108.189 90.3414 108.625 89.4021 108.845 88.4821C109.148 87.2083 109.281 85.9151 108.953 84.5383C108.587 82.9943 107.911 81.6818 106.87 80.5946C105.178 78.8318 103.089 77.9504 100.628 78.0855L100.621 78.079Z" fill="white"/>
<path d="M122.813 129.489C122.201 128.917 121.696 128.447 121.191 127.977C121.115 128.048 121.046 128.125 120.97 128.196C121.412 128.724 121.854 129.251 122.378 129.875C121.519 130.731 120.686 131.58 119.822 132.397C119.739 132.474 119.405 132.384 119.266 132.268C118.957 132.005 118.711 131.67 118.414 131.393C118.3 131.284 118.117 131.252 117.972 131.188C117.928 131.258 117.89 131.323 117.846 131.393C118.225 131.799 118.635 132.178 118.969 132.622C119.083 132.77 119.108 133.156 119.001 133.285C118.263 134.173 117.48 135.028 116.609 136.006C115.99 135.331 115.536 134.835 114.999 134.244C114.974 134.443 114.924 134.584 114.943 134.72C114.962 134.816 115.062 134.906 115.138 134.99C116.274 136.231 116.255 136.212 115.025 137.364C114.501 137.853 114.078 138.457 113.472 139.172C112.891 138.457 112.449 137.917 112.008 137.377C111.945 137.409 111.875 137.441 111.812 137.467C111.844 137.647 111.825 137.866 111.926 137.994C112.172 138.316 112.5 138.573 112.727 138.908C112.847 139.082 112.929 139.448 112.834 139.57C112.102 140.497 111.326 141.385 110.55 142.298C109.912 141.655 109.527 141.243 109.117 140.857C109.022 140.767 108.852 140.767 108.719 140.729C108.751 140.883 108.782 141.037 108.814 141.185C108.814 141.205 108.845 141.217 108.858 141.237C110.278 142.665 109.982 142.408 108.808 143.682C108.315 144.216 107.861 144.775 107.451 145.258C106.58 144.923 106.415 143.952 105.488 144.01C105.936 144.531 106.384 145.052 106.813 145.554C105.904 146.493 105.002 147.432 104.074 148.397C103.752 148.018 103.43 147.606 103.07 147.239C102.944 147.111 102.71 147.104 102.521 147.04C102.578 147.207 102.597 147.413 102.698 147.542C103.026 147.947 103.38 148.327 103.771 148.758C103.026 149.446 102.307 150.109 101.499 150.855C100.931 150.179 100.249 149.369 99.5231 148.507C99.8197 148.166 100.255 147.664 100.691 147.156C100.615 147.078 100.539 147.001 100.463 146.93C99.9901 147.368 99.5167 147.799 99.0371 148.237C98.1282 147.362 97.2067 146.48 96.2725 145.579C96.7522 144.994 97.1562 144.505 97.5601 144.016C97.4844 143.939 97.4086 143.862 97.3392 143.784C96.8721 144.222 96.4051 144.659 95.9064 145.123C95.0417 144.216 94.177 143.302 93.2618 142.343C93.6468 141.874 94.0697 141.359 94.4926 140.844C94.4421 140.78 94.3916 140.709 94.3411 140.645C94.1013 140.825 93.8362 140.979 93.6279 141.192C93.3754 141.449 93.1798 141.764 92.8958 142.131C91.8796 141.089 91.0022 140.188 90.0934 139.249C90.5352 138.708 90.9581 138.207 91.3746 137.698C91.2926 137.621 91.2105 137.544 91.1285 137.467C90.6804 137.904 90.2322 138.335 89.7273 138.824C88.8941 137.853 88.0484 136.868 87.171 135.845C87.4424 135.524 87.8716 135.016 88.3008 134.514C88.2188 134.437 88.1304 134.366 88.0484 134.289C87.7959 134.546 87.5308 134.79 87.291 135.061C86.9312 135.466 86.603 135.717 86.1359 135.176C85.4416 134.372 84.7095 133.607 83.971 132.802C84.1477 132.236 85.0187 132.024 85.1071 131.29C85.044 131.233 84.9809 131.181 84.9178 131.123C84.5832 131.464 84.2361 131.786 83.9205 132.146C83.6491 132.455 83.485 132.558 83.1379 132.159C82.4057 131.323 81.5915 130.57 80.8151 129.779C81.0424 129.103 81.9071 128.859 82.027 128.144C81.9639 128.099 81.9008 128.048 81.8313 128.003C81.3643 128.44 80.9035 128.884 80.2786 129.476C79.5023 128.614 78.7512 127.771 77.9875 126.941C77.7098 126.639 77.7161 126.44 78.038 126.157C78.3978 125.841 78.6881 125.442 79.01 125.076C78.9469 124.998 78.8901 124.921 78.827 124.844C78.5808 125.031 78.3157 125.191 78.0885 125.404C77.8486 125.629 77.6467 125.899 77.3563 126.234C76.4601 125.339 75.608 124.51 74.7938 123.641C74.7054 123.551 74.8127 123.171 74.9326 122.998C75.1346 122.702 75.4376 122.483 75.6648 122.206C75.7531 122.09 75.7531 121.904 75.7973 121.75C75.7153 121.692 75.6269 121.634 75.5449 121.576C75.1283 122.065 74.7054 122.554 74.2825 123.049C73.6324 122.399 73.0076 121.775 72.2817 121.048C73.9228 121.048 75.4249 121.048 76.9208 121.048C77.148 121.048 77.369 121.048 77.5962 121.048C78.9427 120.997 80.0977 121.464 81.0613 122.451C84.539 125.989 88.0231 129.515 91.4946 133.06C94.4989 136.129 97.4844 139.223 100.489 142.305C100.956 142.787 101.454 143.238 102.029 143.784C103.304 142.453 104.528 141.153 105.772 139.879C108.631 136.946 111.503 134.031 114.362 131.104C116.533 128.878 118.704 126.652 120.876 124.426C121.841 123.435 122.807 122.451 123.792 121.479C123.987 121.286 124.278 121.074 124.53 121.068C126.619 121.035 128.708 121.048 130.892 121.203C130.305 121.775 129.731 122.361 129.119 122.895C129.018 122.985 128.696 122.927 128.557 122.824C128.311 122.631 128.159 122.329 127.926 122.123C127.749 121.968 127.509 121.891 127.295 121.782C127.389 122 127.427 122.271 127.579 122.431C127.888 122.766 128.254 123.036 128.689 123.416C127.635 124.394 126.695 125.262 125.704 126.176C125.319 125.809 124.795 125.307 124.278 124.812C124.202 124.889 124.126 124.966 124.05 125.044C124.517 125.59 124.985 126.137 125.439 126.671C124.574 127.598 123.716 128.518 122.807 129.489H122.813Z" fill="white"/>
<path d="M113.554 129.348C113.03 129.238 112.879 128.434 112.109 128.64C112.5 129.122 112.778 129.463 113.156 129.927C112.67 130.37 112.21 130.769 111.761 131.188C111.433 131.49 111.269 131.226 111.036 131.033C110.808 130.84 110.67 130.345 110.127 130.699C110.487 131.097 110.808 131.451 111.067 131.741C110.569 132.32 110.095 132.867 109.597 133.446C109.142 133.105 108.757 132.815 108.372 132.526C108.315 132.596 108.258 132.674 108.202 132.744C108.511 133.092 108.82 133.433 109.098 133.748C108.549 134.301 108.012 134.835 107.451 135.408C107.16 135.144 106.8 134.823 106.447 134.507L106.239 134.72C106.529 135.086 106.826 135.453 107.154 135.871C106.611 136.424 106.081 136.965 105.544 137.512C105.172 137.151 104.85 136.836 104.427 136.424C104.225 137.274 105.008 137.377 105.159 137.866C104.661 138.393 104.131 138.94 103.594 139.5C103.114 139.294 102.9 138.638 102.363 138.618L102.231 138.811C102.527 139.139 102.824 139.468 103.146 139.834C102.78 140.265 102.433 140.677 102.092 141.076C101.116 140.428 100.924 139.661 101.518 138.773C101.396 138.73 100.956 138.955 100.198 139.448C99.7124 138.953 99.2075 138.438 98.6457 137.866C98.9992 137.467 99.2895 137.139 99.5799 136.81C99.5546 136.746 99.5294 136.682 99.4978 136.617C99.3211 136.682 99.1065 136.708 98.9803 136.823C98.3112 137.454 98.3238 137.454 97.6864 136.772C97.396 136.463 97.0615 136.186 96.6828 135.833C96.9984 135.472 97.295 135.131 97.6737 134.7C96.9605 134.469 96.809 135.138 96.3293 135.369C95.8181 134.874 95.2753 134.346 94.7388 133.825C95.0481 133.42 95.3321 133.047 95.6224 132.667C95.5593 132.596 95.4962 132.532 95.4331 132.461C95.0796 132.751 94.7262 133.04 94.2212 133.446C93.792 132.854 93.3502 132.249 92.9147 131.651C92.82 131.278 93.6342 131.168 93.4828 130.364C93.0409 130.769 92.7127 131.059 92.4035 131.342C91.8543 130.795 91.3305 130.274 90.7561 129.708C91.0527 129.373 91.3368 129.052 91.6271 128.73C91.5766 128.659 91.5261 128.588 91.4756 128.518C91.261 128.666 91.0023 128.781 90.8382 128.968C90.5289 129.315 90.3269 129.354 89.9798 128.968C89.5947 128.537 89.0961 128.215 88.648 127.849C88.7111 127.784 88.7679 127.726 88.831 127.662C89.1024 127.321 89.3738 126.98 89.6452 126.639C89.5758 126.575 89.5001 126.51 89.4306 126.446C89.1024 126.736 88.7805 127.025 88.4208 127.347C87.8843 126.819 87.3478 126.285 86.786 125.732C87.1206 125.314 87.4046 124.96 87.6886 124.606C87.6318 124.542 87.575 124.477 87.5245 124.419C87.3036 124.593 87.0638 124.754 86.8681 124.953C86.5778 125.249 86.319 125.339 86.0413 124.953C85.9845 124.883 85.915 124.825 85.8519 124.76C85.53 124.413 85.0314 124.104 84.9493 123.705C84.8862 123.422 85.3785 123.01 85.6247 122.657C85.368 122.575 84.9409 122.839 84.3434 123.448C84.1162 123.146 83.9016 122.83 83.6617 122.534C83.4345 122.251 83.1757 121.994 82.898 121.685C83.1063 121.306 83.4093 121.042 83.9584 121.055C85.2649 121.087 86.5714 121.035 87.878 121.068C88.1557 121.074 88.4965 121.209 88.6922 121.402C90.9391 123.667 93.1545 125.957 95.3826 128.228C97.314 130.197 99.2643 132.153 101.202 134.121C101.499 134.424 101.688 134.514 102.067 134.121C104.831 131.258 107.64 128.44 110.43 125.597C111.78 124.226 113.106 122.83 114.469 121.473C114.696 121.248 115.075 121.074 115.384 121.068C116.937 121.029 118.49 121.023 120.042 121.068C120.339 121.074 120.629 121.383 120.92 121.556C120.775 121.775 120.661 122.02 120.491 122.219C120.156 122.612 119.796 122.978 119.437 123.358C119.058 123.01 118.73 122.708 118.408 122.412C118.332 122.464 118.263 122.522 118.187 122.573C118.439 122.959 118.692 123.345 118.906 123.673C118.42 124.233 117.941 124.793 117.461 125.339C117.025 124.986 116.678 124.703 116.331 124.413C116.262 124.477 116.199 124.548 116.129 124.612C116.438 124.986 116.741 125.365 116.988 125.661C116.489 126.208 115.997 126.755 115.441 127.372C115.17 127.122 114.905 126.858 114.621 126.62C114.545 126.555 114.4 126.581 114.286 126.568C114.299 126.684 114.274 126.826 114.324 126.922C114.52 127.257 114.93 127.591 114.905 127.887C114.873 128.183 114.412 128.434 114.141 128.704C113.939 128.916 113.743 129.135 113.541 129.354L113.554 129.348Z" fill="white"/>
<path d="M101.675 151.64C104.011 149.254 106.321 146.892 108.631 144.538C110.676 142.453 112.727 140.375 114.772 138.291C116.931 136.097 119.083 133.897 121.242 131.696C123.047 129.863 124.858 128.029 126.657 126.196C128.147 124.677 129.624 123.153 131.107 121.634C131.479 121.255 131.87 120.984 132.451 121.029C133.158 121.087 133.878 121.042 134.622 121.042C123.59 132.288 112.601 143.483 101.644 154.651C90.7055 143.521 79.6853 132.308 68.6335 121.062C69.5739 121.062 70.5838 120.888 71.499 121.126C72.086 121.28 72.5278 122.027 73.0138 122.529C75.8982 125.462 78.7827 128.402 81.6608 131.336C84.0467 133.768 86.4325 136.206 88.8183 138.638C90.7434 140.594 92.6748 142.543 94.5998 144.499C96.8405 146.77 99.0748 149.048 101.315 151.325C101.423 151.435 101.543 151.525 101.682 151.64H101.675Z" fill="white"/>
<path d="M159.472 119.325C158.822 119.325 158.209 119.376 157.616 119.299C157.376 119.267 157.118 119.01 156.941 118.797C154.65 115.947 152.377 113.091 150.099 110.234C149.96 110.06 149.802 109.906 149.537 109.61V119.267H147V104.914C147.65 104.914 148.256 104.888 148.849 104.933C149.032 104.946 149.241 105.132 149.373 105.293C150.673 106.902 151.955 108.523 153.248 110.131C154.422 111.598 155.609 113.058 156.909 114.673V104.965H159.466V119.325H159.472Z" fill="white"/>
<path d="M46.2272 119.157C44.3021 119.929 43.5384 118.584 42.6358 117.446C40.6981 114.988 38.7289 112.55 36.7785 110.105C36.6649 109.964 36.5703 109.816 36.463 109.668C36.4062 109.693 36.343 109.719 36.2862 109.745V119.279H33.7552V104.92C34.3927 104.92 34.9923 104.887 35.5919 104.939C35.7939 104.958 36.0148 105.164 36.16 105.338C38.2429 107.918 40.3194 110.504 42.396 113.084C42.781 113.56 43.1723 114.03 43.6962 114.654V104.945H46.2272V119.157Z" fill="white"/>
<path d="M135.74 119.619C132.603 119.491 130.211 118.365 128.753 115.598C127.301 112.838 127.875 108.901 130.072 106.765C132.464 104.443 136.163 104.102 138.978 105.356C142.758 107.035 144.021 111.462 142.638 115.013C141.666 117.509 139.754 118.963 137.154 119.439C136.63 119.536 136.093 119.574 135.733 119.619H135.74ZM140.6 112.053C140.575 109.036 138.384 106.823 135.374 106.926C132.622 107.016 130.533 109.017 130.545 112.176C130.558 115.109 132.735 117.348 135.5 117.316C138.555 117.277 140.631 115.142 140.6 112.06V112.053Z" fill="white"/>
<path d="M75.9806 113.115C74.0429 113.115 72.1367 113.122 70.2306 113.115C69.1387 113.115 69.145 113.096 69.1639 114.235C69.1765 114.988 69.227 115.74 69.1639 116.487C69.1197 117.027 69.2712 117.156 69.7825 117.149C72.1178 117.13 74.4531 117.149 76.7885 117.156C76.8768 117.156 76.9652 117.169 77.1356 117.188V119.298H66.6329V104.945H76.8705C76.8705 105.537 76.8958 106.161 76.8453 106.778C76.839 106.888 76.5297 107.061 76.3593 107.068C74.3143 107.087 72.2693 107.087 70.2306 107.068C69.2712 107.055 69.2523 107.029 69.2333 108.014C69.2144 108.979 69.2333 109.944 69.2333 110.999H75.9869V113.115H75.9806Z" fill="white"/>
<path d="M174.992 117.188V119.298H164.458V104.977H174.753C174.753 105.511 174.797 106.077 174.727 106.63C174.708 106.798 174.387 107.055 174.197 107.062C172.266 107.094 170.334 107.081 168.403 107.087C167.955 107.087 167.513 107.087 167.014 107.087V110.947H173.774V113.128C172.367 113.128 170.959 113.128 169.552 113.128C168.876 113.128 168.201 113.141 167.526 113.122C167.16 113.109 166.983 113.238 166.983 113.624C166.983 114.608 166.932 115.586 166.958 116.57C166.964 116.976 167.179 117.188 167.665 117.175C169.861 117.136 172.064 117.149 174.26 117.149C174.506 117.149 174.753 117.182 174.999 117.201L174.992 117.188Z" fill="white"/>
<path d="M121.803 107.145C120.73 107.145 119.765 107.145 118.793 107.145C117.297 107.145 115.795 107.113 114.299 107.132C113.825 107.132 113.642 106.978 113.661 106.502C113.68 106 113.661 105.492 113.661 104.945H125.205C125.445 105.903 125.325 106.714 124.631 107.55C122.176 110.497 119.802 113.508 117.398 116.5C117.29 116.635 117.234 116.808 117.082 117.111C118.016 117.111 118.837 117.111 119.651 117.111C121.462 117.124 123.268 117.124 125.079 117.162C125.237 117.162 125.515 117.374 125.527 117.503C125.578 118.082 125.546 118.674 125.546 119.292H113.642C113.257 118.101 113.737 117.239 114.482 116.345C116.899 113.424 119.241 110.439 121.614 107.48C121.671 107.415 121.696 107.325 121.791 107.145H121.803Z" fill="white"/>
<path d="M80.9353 115.909C82.9929 117.183 85.0632 117.852 87.3922 117.177C88.1496 116.958 88.6861 116.379 88.7745 115.665C88.8565 115.002 88.5535 114.385 87.7393 114.082C86.5464 113.632 85.2778 113.375 84.0786 112.944C83.2202 112.635 82.3176 112.3 81.6044 111.753C79.7487 110.325 80.0264 107.025 82.0146 105.719C83.8576 104.509 85.8648 104.458 87.9161 104.85C88.7177 105.005 89.4814 105.371 90.264 105.629C90.7185 105.777 90.6932 106.066 90.5354 106.426C90.3271 106.902 90.1315 107.385 89.9232 107.887C89.2037 107.61 88.522 107.282 87.8025 107.076C86.6032 106.729 85.3788 106.671 84.1795 107.115C83.4158 107.398 82.9614 107.983 82.9172 108.82C82.8793 109.624 83.3969 110.126 84.047 110.37C85.0001 110.737 86.0162 110.93 86.9819 111.271C87.9476 111.612 88.9449 111.934 89.8222 112.442C92.1134 113.767 91.5706 117.273 89.7275 118.47C87.5626 119.879 85.221 119.847 82.8604 119.229C82.0272 119.01 81.2383 118.573 80.4556 118.187C80.3041 118.11 80.1464 117.756 80.1968 117.608C80.3925 117.035 80.6702 116.489 80.929 115.916L80.9353 115.909Z" fill="white"/>
<path d="M56.6225 116.01C57.0959 114.917 57.5187 113.939 57.9416 112.961C58.8126 110.915 59.6774 108.869 60.5484 106.83C60.7377 106.392 60.9839 105.967 61.1164 105.517C61.2805 104.951 61.6403 104.874 62.1326 104.906C62.688 104.938 63.2498 104.912 63.9441 104.912C63.5464 105.839 63.1867 106.669 62.8395 107.499C61.2237 111.294 59.6205 115.09 57.9858 118.873C57.8974 119.079 57.5882 119.298 57.361 119.317C55.2781 119.459 55.2718 119.452 54.4386 117.503C52.8355 113.746 51.2449 109.982 49.6417 106.225C49.465 105.813 49.2567 105.421 49.0106 104.906C49.9321 104.906 50.721 104.874 51.4974 104.925C51.693 104.938 51.9518 105.195 52.0402 105.401C53.4603 108.708 54.8552 112.028 56.2564 115.341C56.3321 115.528 56.4458 115.695 56.6162 116.01H56.6225Z" fill="white"/>
<path d="M92.9904 104.94H104.894V107.082H100.268V119.267H97.6421V107.14H92.9904V104.94Z" fill="white"/>
<path d="M26.3704 104.946H28.813V119.325C28.0682 119.325 27.4181 119.319 26.768 119.325C26.4398 119.325 26.2757 119.216 26.2757 118.849C26.2883 114.314 26.2946 109.778 26.3009 105.236C26.3009 105.152 26.3388 105.062 26.3704 104.94V104.946Z" fill="white"/>
<path d="M42.7618 94.7024C43.7654 94.7024 44.6617 94.6445 45.5453 94.7346C45.8356 94.7603 46.107 95.1399 46.3595 95.3908C47.6597 96.7161 48.941 98.0607 50.2412 99.386C51.3395 100.505 52.4629 101.593 53.5675 102.706C53.7253 102.86 53.8515 103.047 54.0914 103.33C53.0626 103.33 52.1537 103.336 51.2511 103.323C51.1122 103.323 50.9418 103.227 50.8408 103.118C48.1962 100.428 45.5579 97.7326 42.9196 95.0369C42.8881 95.0048 42.8818 94.9598 42.7682 94.7088L42.7618 94.7024Z" fill="white"/>
<path d="M149.083 103.028C150.086 102.095 151.115 101.181 152.093 100.216C153.703 98.6207 155.262 96.9737 156.89 95.3975C157.206 95.0887 157.742 94.9279 158.197 94.8699C158.866 94.7799 159.554 94.8506 160.236 94.8506C160.267 94.9086 160.292 94.9729 160.324 95.0308C159.869 95.5069 159.421 95.9894 158.961 96.459C157.275 98.1832 155.59 99.9139 153.899 101.638C153.425 102.121 152.958 102.61 152.46 103.066C152.308 103.201 152.068 103.298 151.866 103.304C151.014 103.33 150.156 103.317 149.304 103.317C149.228 103.221 149.152 103.124 149.076 103.034L149.083 103.028Z" fill="white"/>
<path d="M74.5288 83.4902C74.6298 83.5932 74.7308 83.6961 74.8318 83.799C73.9797 85.5554 73.1213 87.3118 72.2692 89.0681C70.9879 91.7123 69.713 94.3565 68.4443 97.0072C68.1287 97.6634 67.8384 98.3325 67.5291 98.9951C67.4092 99.246 67.4218 99.3811 67.6112 99.6706C68.4001 100.912 69.5236 101.794 70.5272 102.804C70.6471 102.92 70.6976 103.106 70.8112 103.312H64.9918C65.623 101.942 66.2163 100.629 66.8222 99.3232C68.1666 96.4346 69.4858 93.5395 70.8743 90.6765C72.0483 88.2575 73.3043 85.8835 74.5225 83.4902H74.5288Z" fill="white"/>
<path d="M53.4288 131.895C54.0852 130.139 54.7416 128.376 55.4044 126.62C56.0418 124.915 56.673 123.21 57.3294 121.518C57.4115 121.306 57.6576 121.158 57.8281 120.984C57.8786 121.029 57.929 121.074 57.9859 121.119C56.4647 125.185 54.9436 129.245 53.372 133.446C52.6777 132.468 52.4189 131.516 52.2485 130.525C51.9771 128.91 52.299 127.411 52.9428 125.925C53.574 124.471 54.1041 122.965 54.6974 121.492C54.7732 121.299 54.9562 121.151 55.0888 120.984C55.1645 121.035 55.2339 121.08 55.3097 121.132C55.013 121.93 54.7164 122.734 54.4134 123.525C53.9905 124.619 53.5487 125.713 53.1321 126.806C53.0564 127.006 53.0564 127.244 53.0564 127.456C53.0943 128.749 53.1385 130.049 53.1889 131.342C53.1889 131.516 53.2205 131.683 53.2331 131.857C53.2962 131.869 53.3594 131.876 53.4225 131.889L53.4288 131.895Z" fill="white"/>
<path d="M145.188 120.977C145.365 121.228 145.605 121.447 145.712 121.723C146.154 122.823 146.552 123.936 146.962 125.043C147.776 127.23 148.584 129.424 149.392 131.618C149.411 131.67 149.48 131.708 149.682 131.901C149.682 131.245 149.663 130.737 149.682 130.235C149.726 129.302 149.821 128.376 149.846 127.443C149.853 127.095 149.777 126.729 149.651 126.407C148.982 124.651 148.294 122.907 147.606 121.157C147.656 121.112 147.707 121.061 147.757 121.016C147.896 121.125 148.111 121.202 148.161 121.344C149.001 123.563 149.916 125.751 150.604 128.015C151.172 129.875 150.566 131.644 149.531 133.323C148.003 129.27 146.482 125.217 144.955 121.164C145.024 121.099 145.1 121.041 145.169 120.977H145.188Z" fill="white"/>
<path d="M83.4345 64.7415C82.0586 67.3278 80.6763 69.9141 79.3004 72.5004C79.2436 72.4682 79.1867 72.4361 79.1299 72.4103C80.5059 69.824 81.8818 67.2313 83.2515 64.645L83.4345 64.7415Z" fill="white"/>
<path d="M92.6308 48.4463C92.6876 48.4913 92.7507 48.5428 92.8075 48.5878C91.9113 50.0868 91.015 51.5923 90.1187 53.0913C89.7274 53.7475 89.3298 54.3973 88.9321 55.0471L88.7365 54.9313C90.0304 52.7696 91.3306 50.608 92.6245 48.4463H92.6308Z" fill="white"/>
<path d="M87.2656 57.993C86.1169 60.0325 84.9618 62.0655 83.8131 64.1049C83.7437 64.0663 83.6806 64.0277 83.6111 63.9891C84.7536 61.9432 85.896 59.9038 87.0321 57.8579C87.1078 57.9029 87.1836 57.948 87.2593 57.9866L87.2656 57.993Z" fill="white"/>
<path d="M121.904 69.0126C121.418 68.2084 120.907 67.4106 120.453 66.5871C119.859 65.5256 119.31 64.4383 118.862 63.2803C119.032 63.544 119.222 63.795 119.373 64.0652C120.15 65.4999 120.92 66.941 121.683 68.3821C121.784 68.5751 121.822 68.8067 121.892 69.019L121.904 69.0062V69.0126Z" fill="white"/>
<path d="M124.284 73.2803C125.155 74.9916 126.032 76.7029 126.903 78.4143C126.853 78.44 126.796 78.4722 126.746 78.4979L124.126 73.3639L124.284 73.2803Z" fill="white"/>
<path d="M121.892 69.0207C121.955 69.04 122.056 69.04 122.075 69.0786C122.738 70.3589 123.4 71.6391 124.057 72.9194C123.994 72.9516 123.931 72.9838 123.867 73.0224C123.211 71.6842 122.555 70.346 121.898 69.0078L121.886 69.0207H121.892Z" fill="white"/>
<path d="M77.4132 75.7052C77.9119 74.7531 78.4105 73.8009 78.9091 72.8423C78.9596 72.868 79.0101 72.8938 79.0606 72.9195C78.5683 73.8781 78.076 74.8431 77.5837 75.8017C77.5268 75.7696 77.4764 75.7374 77.4196 75.6988L77.4132 75.7052Z" fill="white"/>
<path d="M87.43 57.2734C87.7393 56.7265 88.0486 56.1797 88.3579 55.6328C88.421 55.6714 88.4904 55.71 88.5535 55.7486C88.2442 56.2955 87.935 56.8423 87.6257 57.3892C87.5626 57.3506 87.4995 57.312 87.4363 57.2734H87.43Z" fill="white"/>
<path d="M127.623 79.9258C128.046 80.7557 128.468 81.5856 128.891 82.4156C128.847 82.4413 128.803 82.4606 128.759 82.4863C128.336 81.6628 127.913 80.8329 127.49 80.0094C127.534 79.9837 127.579 79.9579 127.623 79.9322V79.9258Z" fill="white"/>
<path d="M74.9644 80.614C75.3557 79.8292 75.7471 79.0378 76.1321 78.2529C76.1826 78.2787 76.2331 78.3108 76.2899 78.3366C75.8922 79.1279 75.4946 79.9192 75.097 80.7105L74.9644 80.6205V80.614Z" fill="white"/>
<path d="M112.974 12.4694C113.308 12.4051 113.535 12.3665 113.857 12.3086C113.857 12.5917 113.92 12.8619 113.832 13.0613C113.781 13.1771 113.384 13.2801 113.321 13.2093C113.163 13.042 113.106 12.7718 112.974 12.4694Z" fill="white"/>
<path d="M108.839 20.666C108.909 20.9427 108.959 21.1357 109.01 21.3222C108.454 21.5152 108.156 21.3265 108.114 20.7561C108.227 20.7304 108.353 20.6853 108.48 20.6725C108.587 20.6596 108.694 20.6725 108.839 20.6725V20.666Z" fill="white"/>
<path d="M111.503 16.2319C111.477 16.5858 111.522 16.8496 111.421 17.0233C111.345 17.1455 110.941 17.2356 110.909 17.1841C110.777 16.9847 110.733 16.7209 110.638 16.4378C110.922 16.3735 111.13 16.322 111.503 16.2319Z" fill="white"/>
<path d="M101.726 31.6797C102.01 31.6153 102.237 31.5574 102.496 31.4995C102.553 31.7826 102.597 32.0013 102.654 32.2844C102.401 32.3552 102.155 32.4195 101.865 32.5031C101.814 32.2072 101.783 31.9949 101.732 31.6861L101.726 31.6797Z" fill="white"/>
<path d="M103.815 27.9873C104.061 28.1353 104.307 28.2832 104.554 28.4312C104.434 28.6049 104.307 28.7786 104.187 28.9523C103.979 28.7529 103.765 28.5535 103.556 28.354C103.645 28.2318 103.727 28.1095 103.815 27.9937V27.9873Z" fill="white"/>
<path d="M105.835 25.1633C105.942 24.8996 105.986 24.4878 106.169 24.4106C106.611 24.224 106.706 24.6036 106.731 25.0218C106.523 25.1119 106.308 25.1955 106.1 25.2856C106.012 25.247 105.93 25.2019 105.841 25.1633H105.835Z" fill="white"/>
<path d="M99.0309 36.0345C99.3844 35.938 99.5927 35.8801 99.9209 35.79C99.8956 36.1182 99.9209 36.3819 99.8388 36.6071C99.8072 36.6972 99.4412 36.7744 99.3781 36.71C99.2266 36.5556 99.1635 36.3112 99.0309 36.0281V36.0345Z" fill="white"/>
<path d="M111.938 17.2687C112.304 16.6832 112.67 16.0977 113.03 15.5059C113.068 15.5316 113.112 15.5573 113.15 15.5831C112.797 16.1814 112.443 16.7797 112.083 17.378C112.033 17.3394 111.983 17.3008 111.932 17.2622L111.938 17.2687Z" fill="white"/>
<path d="M99.119 28.958C98.2985 29.0802 98.3174 28.6428 98.4815 28.0444C98.7277 28.0895 98.9802 28.1345 99.2768 28.186C99.22 28.469 99.1758 28.6878 99.119 28.9516V28.958Z" fill="white"/>
<path d="M89.721 13.3055C89.418 13.2154 89.2476 13.1639 89.0393 13.0996C89.0519 12.8873 89.0646 12.6686 89.0835 12.4048H89.8788C89.822 12.72 89.7778 12.9902 89.721 13.3055Z" fill="white"/>
<path d="M96.1842 25.1112C96.2726 24.7766 96.3231 24.5836 96.3735 24.3906C96.8532 24.4292 97.0636 24.7209 97.0047 25.2656C96.7396 25.2141 96.4872 25.1691 96.1842 25.1112Z" fill="white"/>
<path d="M92.3907 16.5935C92.1825 16.7736 91.9805 16.9602 91.7722 17.1403C91.627 16.9409 91.4819 16.7415 91.2357 16.394H92.2582L92.3907 16.5935Z" fill="white"/>
<path d="M98.8982 31.1006C98.4249 30.3607 97.9578 29.6273 97.4844 28.8874C97.5349 28.8553 97.5791 28.8295 97.6296 28.7974C98.0651 29.5565 98.772 30.1484 98.8856 31.1134L98.8982 31.1006Z" fill="white"/>
<path d="M93.9813 21.516C94.0381 21.1106 94.0634 20.8919 94.1076 20.5767C94.3726 20.6796 94.6188 20.7182 94.7703 20.8597C94.846 20.9305 94.8208 21.2908 94.7261 21.3487C94.5557 21.4645 94.3095 21.4516 93.975 21.516H93.9813Z" fill="white"/>
<path d="M90.9706 17.5329C90.5667 16.8766 90.1564 16.2204 89.7524 15.5642L89.8787 15.4741L91.1473 17.4171C91.0842 17.4557 91.0274 17.4943 90.9643 17.5393L90.9706 17.5329Z" fill="white"/>
<path d="M103.196 35.7578C103.417 35.8929 103.67 35.9959 103.834 36.1889C103.891 36.2532 103.752 36.5813 103.626 36.6842C103.525 36.7615 103.19 36.7164 103.152 36.6392C103.051 36.414 103.051 36.1374 103.013 35.8801C103.077 35.8415 103.133 35.8028 103.196 35.7578Z" fill="white"/>
<path d="M102.812 81.1415C102.351 82.0872 102.206 82.9622 102.938 83.7278C103.531 84.3454 104.402 84.7957 105.355 84.1009C105.766 83.7985 105.923 83.8822 106.094 84.3711C106.87 86.5843 106.479 88.5658 104.901 90.2385C103.809 91.3966 102.433 91.8405 100.817 91.7633C99.3908 91.6925 98.1853 91.2357 97.2133 90.2257C95.7174 88.6623 95.3765 86.5971 96.0519 84.5448C96.4937 83.2002 97.3206 82.0808 98.6208 81.4632C99.9399 80.8262 101.316 80.5046 102.818 81.1479L102.812 81.1415Z" fill="white"/>
</g>
</svg>
