<svg width="58" height="30" viewBox="0 0 58 30" fill="none" xmlns="http://www.w3.org/2000/svg">
<path d="M27.7407 0C23.8587 1.95864 20.6695 4.70235 18.0768 8.24723C18.2896 8.32574 18.4302 8.37607 18.623 8.44652C18.623 8.60152 18.623 8.77061 18.623 8.9397C18.623 13.0361 18.615 17.1306 18.6331 21.227C18.6331 21.694 18.5266 21.8933 18.0386 21.8329C17.7293 21.7947 17.41 21.8007 17.1007 21.8329C16.6709 21.8772 16.5786 21.69 16.5786 21.2934C16.5906 18.0143 16.5826 14.7351 16.5786 11.4539C16.5786 11.2748 16.5786 11.0936 16.4942 10.8923C14.9679 13.322 13.6866 15.8503 12.8391 18.7289C12.0318 16.0758 10.8147 13.8091 9.02733 11.8746C8.98114 11.8867 8.93696 11.9008 8.89077 11.9129C8.88072 12.09 8.86064 12.2692 8.86064 12.4463C8.86064 15.3813 8.8506 18.3142 8.86867 21.2492C8.87068 21.694 8.76223 21.8812 8.29631 21.8329C7.9549 21.7967 7.60545 21.8007 7.26404 21.8329C6.84631 21.8712 6.8202 21.6417 6.8202 21.3196C6.82623 18.3545 6.82422 15.3873 6.82422 12.4222C6.82422 11.7156 6.80815 11.0091 6.83025 10.3045C6.84029 9.96834 6.72782 9.75698 6.45068 9.56574C4.55082 8.2573 2.46419 7.48632 0.160664 7.32327C0.114473 7.31924 0.0702907 7.30515 0 7.19041C0.654707 7.03541 1.30138 6.82405 1.96412 6.73749C3.72541 6.50801 5.45857 6.62677 7.1335 7.28502C8.85863 7.9634 10.1178 9.1873 11.0135 10.7615C11.598 11.7901 12.0137 12.9154 12.5037 13.9984C12.5419 14.0829 12.5599 14.1775 12.6021 14.26C12.6202 14.2943 12.6704 14.3144 12.7809 14.3949C13.5601 10.6528 15.2511 7.46217 18.0567 4.89157C20.8342 2.34715 23.9872 0.577729 27.7387 0H27.7407Z" fill="white"/>
<path d="M47.9803 8.39038C48.5527 8.39038 49.099 8.36622 49.6392 8.40648C49.7838 8.41654 49.9525 8.59369 50.0449 8.73661C51.8463 11.5286 53.6377 14.3267 55.4312 17.1207C55.5456 17.2999 55.6782 17.469 55.9172 17.624C55.9332 17.4529 55.9654 17.2818 55.9654 17.1107C55.9694 14.3971 55.9794 11.6836 55.9553 8.97012C55.9513 8.48096 56.1039 8.32395 56.5699 8.37629C57.0137 8.42661 57.6041 8.27966 57.8632 8.51317C58.0902 8.71849 57.9656 9.33447 57.9676 9.76928C57.9717 13.5799 57.9636 17.3925 57.9797 21.2031C57.9817 21.6661 57.8592 21.7748 57.3872 21.8311C56.3831 21.9519 55.8268 21.5614 55.3046 20.7039C53.7161 18.095 52.0211 15.5486 50.3682 12.98C50.2738 12.8331 50.1654 12.6921 50.063 12.5492C50.0208 12.5613 49.9786 12.5754 49.9384 12.5875C49.9284 12.7646 49.9103 12.9418 49.9103 13.1189C49.9103 15.8324 49.9003 18.5459 49.9184 21.2594C49.9204 21.6902 49.7979 21.8493 49.3641 21.815C48.9162 21.7808 48.4643 21.807 47.9824 21.807V8.39038H47.9803Z" fill="white"/>
<path d="M32.7474 15.0693C32.7474 13.0463 32.7595 11.0232 32.7394 9.00014C32.7354 8.54319 32.8398 8.37008 33.3358 8.3741C35.6052 8.40027 37.8746 8.39826 40.142 8.3741C40.6039 8.37008 40.7585 8.52105 40.7123 8.96592C40.6641 9.4269 40.8148 10.0409 40.5718 10.3086C40.3589 10.5441 39.7222 10.4072 39.2724 10.4113C37.9569 10.4193 36.6435 10.4113 35.3281 10.4153C34.7175 10.4153 34.7095 10.4253 34.7075 11.0554C34.7055 11.8083 34.7055 12.5611 34.7075 13.314C34.7095 13.8998 34.7396 13.932 35.314 13.934C36.8323 13.938 38.3506 13.9481 39.8668 13.9259C40.3026 13.9199 40.4613 14.0628 40.4191 14.4936C40.389 14.7895 40.389 15.0915 40.4191 15.3874C40.4653 15.8322 40.3127 15.9872 39.8488 15.9792C38.3305 15.953 36.8122 15.9832 35.2959 15.9611C34.8481 15.955 34.6935 16.0939 34.6995 16.5489C34.7196 18.1331 34.6995 19.7173 34.7135 21.3015C34.7175 21.68 34.6131 21.8531 34.2115 21.8189C33.9002 21.7907 33.5829 21.7907 33.2736 21.8189C32.8559 21.8591 32.7354 21.688 32.7394 21.2814C32.7554 19.2121 32.7474 17.1407 32.7474 15.0693Z" fill="white"/>
<path d="M20.1614 8.36985C20.9486 8.36985 21.6515 8.34771 22.3504 8.38797C22.489 8.39602 22.6597 8.61947 22.736 8.78252C23.6137 10.6204 24.4752 12.4643 25.3428 14.3062C25.4191 14.4672 25.5115 14.6222 25.642 14.8678C25.7866 14.5981 25.8871 14.4249 25.9714 14.2458C26.8269 12.4321 27.6905 10.6224 28.528 8.80064C28.6826 8.46447 28.8714 8.33362 29.2409 8.35174C29.8454 8.38193 30.4539 8.35979 31.1508 8.35979C31.0404 8.60538 30.9721 8.77245 30.8897 8.93349C29.5562 11.5584 28.2167 14.1814 26.8932 16.8123C26.7727 17.0519 26.7044 17.3458 26.7004 17.6155C26.6803 18.8535 26.6763 20.0935 26.7004 21.3315C26.7085 21.7301 26.5699 21.8529 26.1883 21.8307C25.6923 21.8046 25.1922 21.8247 24.654 21.8247C24.6379 21.5952 24.6158 21.412 24.6158 21.2289C24.6118 20.0211 24.6278 18.8133 24.6038 17.6075C24.5977 17.3236 24.5234 17.0157 24.3969 16.762C23.0674 14.117 21.7198 11.4799 20.3783 8.8409C20.316 8.7181 20.2638 8.58927 20.1614 8.36784V8.36985Z" fill="white"/>
<path d="M42.8291 15.0997C42.8291 13.0465 42.8411 10.9912 42.821 8.93793C42.817 8.50715 42.9395 8.33806 43.3753 8.37832C43.7007 8.40851 44.034 8.40449 44.3594 8.37832C44.7329 8.35014 44.8434 8.50111 44.8414 8.86546C44.8293 11.1703 44.8353 13.4752 44.8353 15.7801C44.8353 17.6139 44.8253 19.4478 44.8434 21.2836C44.8474 21.6943 44.7309 21.8573 44.3132 21.8171C43.9878 21.7869 43.6545 21.7889 43.3291 21.8171C42.9355 21.8493 42.819 21.6943 42.823 21.3078C42.8391 19.2384 42.8311 17.1691 42.8311 15.0997H42.8291Z" fill="white"/>
<path d="M9.95431 27.3184C9.71532 27.2258 9.50646 27.2097 9.40404 27.097C8.75134 26.3763 8.02232 26.2696 7.42586 26.8393C6.79324 27.4412 6.78721 28.4678 7.42385 29.0657C7.76325 29.3857 8.15889 29.5347 8.62883 29.3857C9.11082 29.2328 9.38395 28.9147 9.48839 28.335C9.31768 28.3269 9.153 28.3189 8.98832 28.3128C8.83569 28.3048 8.68305 28.2987 8.50632 28.2887V27.7834H10.0547C10.0547 28.4316 10.0648 29.0556 10.0447 29.6776C10.0427 29.7682 9.85189 29.9393 9.81976 29.9232C9.67315 29.8548 9.55265 29.73 9.47834 29.6716C9.00037 29.7722 8.51235 29.9655 8.03236 29.9474C7.70099 29.9353 7.32745 29.6897 7.06235 29.4502C6.38555 28.8362 6.24497 27.8015 6.66069 26.9842C7.05633 26.2072 7.83354 25.7946 8.62883 25.9415C9.35182 26.0744 9.86193 26.5615 9.95833 27.3164L9.95431 27.3184Z" fill="white"/>
<path d="M21.9741 29.9008C21.5865 30.0417 21.3696 29.9471 21.221 29.6069C21.0643 29.2486 20.8314 28.9245 20.6807 28.5662C20.492 28.1173 20.1325 28.234 19.8071 28.2642C19.7469 28.2703 19.6645 28.4474 19.6565 28.5501C19.6364 28.8782 19.6344 29.2083 19.6525 29.5364C19.6726 29.9129 19.526 30.0195 19.1584 29.8806V25.9976C19.7911 25.9976 20.4217 25.913 21.0181 26.0177C21.7974 26.1546 22.0504 27.2718 21.4921 27.8878C21.3877 28.0025 21.2611 28.0951 21.1005 28.236C21.3816 28.7715 21.6688 29.319 21.9741 29.9008ZM20.3233 26.523C19.9678 26.5008 19.5862 26.4163 19.6364 27.0443C19.6866 27.6704 19.6445 27.6744 20.2831 27.6744C20.4397 27.6744 20.5964 27.6845 20.753 27.6684C21.0844 27.6341 21.2652 27.4308 21.2692 27.1067C21.2752 26.7827 21.0884 26.5793 20.7671 26.527C20.6305 26.5049 20.4859 26.523 20.3253 26.523H20.3233Z" fill="white"/>
<path d="M34.341 27.961C34.337 29.1084 33.5016 30.0082 32.4452 30.0001C31.4009 29.9921 30.5634 29.0661 30.5735 27.9308C30.5835 26.8276 31.429 25.9178 32.4532 25.9097C33.4975 25.9017 34.3451 26.8216 34.341 27.961ZM31.0996 27.9549C31.0996 28.7722 31.7262 29.4546 32.4733 29.4465C33.2124 29.4385 33.855 28.7319 33.843 27.9368C33.8329 27.1537 33.2063 26.4814 32.4773 26.4734C31.7182 26.4653 31.0976 27.1296 31.0976 27.9549H31.0996Z" fill="white"/>
<path d="M43.1897 25.9655C43.3785 25.9756 43.511 25.9816 43.6938 25.9917C43.6938 26.7224 43.6938 27.4229 43.6938 28.1254C43.6938 28.2965 43.6898 28.4737 43.7239 28.6388C43.8243 29.1239 44.2802 29.4782 44.7381 29.444C45.2281 29.4097 45.6358 28.985 45.6579 28.4234C45.684 27.7349 45.676 27.0465 45.6639 26.356C45.6579 26.0239 45.7623 25.883 46.1258 26.0058C46.1258 26.9458 46.1921 27.9 46.1037 28.8401C46.0375 29.5466 45.3004 30.0297 44.6035 29.9955C43.8846 29.9613 43.254 29.3896 43.2017 28.6005C43.1435 27.747 43.1877 26.8854 43.1877 25.9635L43.1897 25.9655Z" fill="white"/>
<path d="M55.344 25.9699C55.9706 25.9699 56.5188 25.9417 57.0611 25.978C57.6134 26.0142 58.005 26.5396 57.9889 27.1415C57.9729 27.7454 57.5531 28.1902 56.9767 28.2265C56.6092 28.2486 56.0971 28.152 55.9164 28.3513C55.7256 28.5647 55.8461 29.0619 55.834 29.4363C55.83 29.5752 55.834 29.7141 55.834 29.8791C55.601 29.9234 55.35 30.0724 55.346 29.6859C55.3339 28.466 55.342 27.2482 55.342 25.9679L55.344 25.9699ZM56.5269 26.5195C55.836 26.5174 55.8682 26.5195 55.826 27.0891C55.7898 27.5662 55.9425 27.7534 56.4184 27.6789C56.5711 27.6548 56.7297 27.6789 56.8844 27.6729C57.2619 27.6608 57.4688 27.4535 57.4607 27.0851C57.4547 26.7429 57.2499 26.5436 56.9004 26.5215C56.7759 26.5134 56.6514 26.5215 56.5269 26.5215V26.5195Z" fill="white"/>
</svg>
