<svg width="15" height="15" viewBox="0 0 15 15" fill="none" xmlns="http://www.w3.org/2000/svg">
  <path fill-rule="evenodd" clip-rule="evenodd"
    d="M8.84201 3.13502C8.88997 3.17992 8.92861 3.23383 8.95572 3.29367C8.98283 3.35351 8.99788 3.4181 9.00002 3.48376C9.00215 3.54941 8.99133 3.61485 8.96817 3.67632C8.945 3.7378 8.90995 3.7941 8.86501 3.84202L5.43501 7.50002L8.86501 11.158C8.95572 11.2548 9.00425 11.3837 8.99994 11.5163C8.99563 11.6489 8.93882 11.7743 8.84201 11.865C8.74521 11.9557 8.61634 12.0043 8.48375 11.9999C8.35116 11.9956 8.22572 11.9388 8.13502 11.842L4.38502 7.84202C4.29812 7.74935 4.24976 7.62707 4.24976 7.50002C4.24976 7.37298 4.29812 7.2507 4.38502 7.15802L8.13502 3.15802C8.17991 3.11007 8.23382 3.07143 8.29366 3.04432C8.3535 3.01721 8.41809 3.00216 8.48375 3.00002C8.54941 2.99788 8.61484 3.00871 8.67631 3.03187C8.73779 3.05504 8.79409 3.09009 8.84201 3.13502Z"
    fill="currentColor" />
</svg>
