<svg width="24" height="24" viewBox="0 0 24 24" fill="none" xmlns="http://www.w3.org/2000/svg">
<path d="M12 2.25C6.615 2.25 2.25 6.615 2.25 12C2.25 17.385 6.615 21.75 12 21.75C17.385 21.75 21.75 17.385 21.75 12C21.75 6.615 17.385 2.25 12 2.25ZM12 14.747C12.1989 14.747 12.3897 14.826 12.5303 14.9667C12.671 15.1073 12.75 15.2981 12.75 15.497V15.997C12.75 16.1959 12.671 16.3867 12.5303 16.5273C12.3897 16.668 12.1989 16.747 12 16.747C11.8011 16.747 11.6103 16.668 11.4697 16.5273C11.329 16.3867 11.25 16.1959 11.25 15.997V15.497C11.25 15.2981 11.329 15.1073 11.4697 14.9667C11.6103 14.826 11.8011 14.747 12 14.747ZM13.872 7.933C14.416 8.415 14.75 9.121 14.75 9.99C14.75 10.63 14.586 11.128 14.3 11.533C14.044 11.898 13.712 12.147 13.477 12.323L13.45 12.343C13.187 12.541 13.034 12.663 12.926 12.817C12.836 12.944 12.75 13.134 12.75 13.497C12.75 13.6959 12.671 13.8867 12.5303 14.0273C12.3897 14.168 12.1989 14.247 12 14.247C11.8011 14.247 11.6103 14.168 11.4697 14.0273C11.329 13.8867 11.25 13.6959 11.25 13.497C11.25 12.857 11.414 12.357 11.7 11.953C11.956 11.589 12.288 11.34 12.523 11.163L12.55 11.143C12.813 10.945 12.966 10.823 13.074 10.669C13.164 10.542 13.25 10.352 13.25 9.99C13.25 9.53 13.084 9.24 12.878 9.056C12.6322 8.85025 12.3205 8.74016 12 8.746C11.66 8.746 11.343 8.86 11.123 9.056C10.916 9.239 10.75 9.53 10.75 9.99C10.75 10.1889 10.671 10.3797 10.5303 10.5203C10.3897 10.661 10.1989 10.74 10 10.74C9.80109 10.74 9.61032 10.661 9.46967 10.5203C9.32902 10.3797 9.25 10.1889 9.25 9.99C9.25 9.121 9.584 8.415 10.127 7.933C10.6472 7.48423 11.313 7.24005 12 7.246C12.66 7.246 13.343 7.464 13.872 7.933Z" fill="white"/>
</svg>
