<svg width="20" height="20" viewBox="0 0 20 20" fill="none" xmlns="http://www.w3.org/2000/svg">
<path d="M6.78571 10C7.20782 10 7.62579 9.91686 8.01577 9.75532C8.40574 9.59379 8.76008 9.35703 9.05856 9.05855C9.35703 8.76008 9.59379 8.40574 9.75533 8.01577C9.91686 7.62579 10 7.20782 10 6.78571C10 6.36361 9.91686 5.94563 9.75533 5.55566C9.59379 5.16568 9.35703 4.81134 9.05856 4.51287C8.76008 4.21439 8.40574 3.97763 8.01577 3.8161C7.62579 3.65457 7.20782 3.57143 6.78571 3.57143C5.93323 3.57143 5.11567 3.91007 4.51287 4.51287C3.91008 5.11566 3.57143 5.93323 3.57143 6.78571C3.57143 7.63819 3.91008 8.45576 4.51287 9.05855C5.11567 9.66135 5.93323 10 6.78571 10ZM12.2143 15.4421C12.7593 15.61 13.4386 15.7143 14.2857 15.7143C18.5714 15.7143 18.5714 13.0357 18.5714 13.0357C18.5714 12.6095 18.4021 12.2007 18.1007 11.8993C17.7993 11.5979 17.3905 11.4286 16.9643 11.4286H12.21C12.6251 11.8605 12.8566 12.4366 12.8557 13.0357V13.4321L12.8536 13.4914C12.8385 13.73 12.8017 13.9667 12.7436 14.1986C12.633 14.6378 12.4547 15.0571 12.215 15.4414M16.7857 7.5C16.7857 7.8283 16.721 8.15339 16.5954 8.45671C16.4698 8.76002 16.2856 9.03562 16.0535 9.26776C15.8213 9.49991 15.5457 9.68406 15.2424 9.8097C14.9391 9.93533 14.614 10 14.2857 10C13.9574 10 13.6323 9.93533 13.329 9.8097C13.0257 9.68406 12.7501 9.49991 12.5179 9.26776C12.2858 9.03562 12.1017 8.76002 11.976 8.45671C11.8504 8.15339 11.7857 7.8283 11.7857 7.5C11.7857 6.83696 12.0491 6.20107 12.5179 5.73223C12.9868 5.26339 13.6227 5 14.2857 5C14.9488 5 15.5846 5.26339 16.0535 5.73223C16.5223 6.20107 16.7857 6.83696 16.7857 7.5ZM1.42857 13.0357C1.42857 12.6095 1.5979 12.2007 1.89929 11.8993C2.20069 11.5979 2.60947 11.4286 3.03571 11.4286H10.5357C10.962 11.4286 11.3707 11.5979 11.6721 11.8993C11.9735 12.2007 12.1429 12.6095 12.1429 13.0357V13.3929C12.1429 13.3929 12.1429 17.1429 6.78571 17.1429C1.42857 17.1429 1.42857 13.3929 1.42857 13.3929V13.0357Z" fill="white"/>
</svg>
