<svg width="24" height="24" viewBox="0 0 24 24" fill="none" xmlns="http://www.w3.org/2000/svg">
<path fill-rule="evenodd" clip-rule="evenodd" d="M11.606 2.07997C11.7305 2.0266 11.8645 1.99908 12 1.99908C12.1355 1.99908 12.2695 2.0266 12.394 2.07997L18.788 4.82097C19.1478 4.97523 19.4545 5.23171 19.6699 5.55861C19.8854 5.88551 20.0002 6.26846 20 6.65997V13.52C19.9999 14.7539 19.6736 15.9659 19.0542 17.0331C18.4348 18.1003 17.5443 18.9848 16.473 19.597L12.496 21.869C12.3449 21.9553 12.174 22.0007 12 22.0007C11.826 22.0007 11.6551 21.9553 11.504 21.869L7.527 19.597C6.45537 18.9846 5.5647 18.0998 4.94529 17.0322C4.32589 15.9646 3.99977 14.7522 4 13.518V6.65997C4.00004 6.26863 4.1149 5.8859 4.33033 5.55919C4.54576 5.23249 4.85231 4.97616 5.212 4.82197L11.606 2.07997ZM15.707 10.707C15.8892 10.5184 15.99 10.2658 15.9877 10.0036C15.9854 9.74138 15.8802 9.49056 15.6948 9.30516C15.5094 9.11975 15.2586 9.01458 14.9964 9.0123C14.7342 9.01002 14.4816 9.11082 14.293 9.29297L11 12.586L9.707 11.293C9.5184 11.1108 9.2658 11.01 9.0036 11.0123C8.7414 11.0146 8.49059 11.1197 8.30518 11.3052C8.11977 11.4906 8.0146 11.7414 8.01233 12.0036C8.01005 12.2658 8.11084 12.5184 8.293 12.707L10.293 14.707C10.4805 14.8944 10.7348 14.9998 11 14.9998C11.2652 14.9998 11.5195 14.8944 11.707 14.707L15.707 10.707Z" fill="white"/>
</svg>
