<svg width="24" height="24" viewBox="0 0 24 24" fill="none" xmlns="http://www.w3.org/2000/svg">
<path d="M6.75 8.24997C6.75 6.85758 7.30312 5.52222 8.28769 4.53766C9.27226 3.55309 10.6076 2.99997 12 2.99997C13.3924 2.99997 14.7277 3.55309 15.7123 4.53766C16.6969 5.52222 17.25 6.85758 17.25 8.24997C17.25 8.44888 17.329 8.63965 17.4697 8.7803C17.6103 8.92095 17.8011 8.99997 18 8.99997C18.1989 8.99997 18.3897 8.92095 18.5303 8.7803C18.671 8.63965 18.75 8.44888 18.75 8.24997C18.7499 7.09882 18.4554 5.96682 17.8945 4.96156C17.3336 3.95631 16.5249 3.11121 15.5453 2.50658C14.5657 1.90196 13.4478 1.5579 12.2978 1.50712C11.1477 1.45634 10.0038 1.70052 8.97477 2.21644C7.9457 2.73237 7.06568 3.5029 6.41835 4.4548C5.77102 5.4067 5.37789 6.50834 5.27632 7.655C5.17476 8.80167 5.36813 9.95525 5.83807 11.0061C6.30801 12.057 7.03889 12.9702 7.96125 13.659C8.75218 14.2498 9.66309 14.6599 10.6298 14.8605C10.764 15.1617 10.9938 15.4102 11.2836 15.5677C11.5733 15.7251 11.9069 15.7827 12.2327 15.7315C12.5584 15.6803 12.8583 15.5232 13.0857 15.2844C13.3132 15.0457 13.4557 14.7386 13.4911 14.4107C13.5265 14.0829 13.4529 13.7525 13.2816 13.4707C13.1104 13.1889 12.851 12.9713 12.5437 12.8518C12.2363 12.7322 11.8982 12.7172 11.5815 12.8092C11.2648 12.9011 10.9872 13.0949 10.7917 13.3605C9.64094 13.0883 8.61573 12.4356 7.88217 11.5081C7.14861 10.5805 6.74968 9.43252 6.75 8.24997ZM7.5 8.24997C7.50029 7.42211 7.72895 6.61038 8.16081 5.90409C8.59268 5.1978 9.211 4.62434 9.94775 4.24679C10.6845 3.86924 11.5111 3.70225 12.3367 3.76418C13.1622 3.82612 13.9547 4.11458 14.6268 4.59784C15.299 5.08109 15.8248 5.7404 16.1465 6.50322C16.4681 7.26604 16.5731 8.1028 16.4499 8.92144C16.3266 9.74007 15.98 10.5088 15.448 11.1432C14.916 11.7775 14.2194 12.2528 13.4347 12.5167C13.0312 12.1827 12.5238 12 12 12C11.4548 12 10.9552 12.1942 10.5652 12.5167C9.67181 12.2162 8.89531 11.6427 8.34533 10.8771C7.79535 10.1115 7.49966 9.1926 7.5 8.24997ZM12 16.5C12.3601 16.5002 12.7149 16.4139 13.0347 16.2485C13.3545 16.0832 13.63 15.8434 13.838 15.5495C14.0459 15.2556 14.1803 14.916 14.2298 14.5594C14.2793 14.2027 14.2425 13.8394 14.1225 13.5H18.375C19.0712 13.5 19.7389 13.7765 20.2312 14.2688C20.7234 14.7611 21 15.4288 21 16.125V16.5C21 18.2947 19.8577 19.8127 18.2362 20.8447C16.6058 21.8827 14.3985 22.5 12 22.5C9.6015 22.5 7.395 21.8827 5.76375 20.8447C4.14225 19.8127 3 18.2947 3 16.5V16.125C3 15.4288 3.27656 14.7611 3.76884 14.2688C4.26113 13.7765 4.92881 13.5 5.625 13.5H6.64425C7.60346 14.4794 8.81277 15.1772 10.1407 15.5175C10.5458 16.1107 11.2282 16.5 12 16.5Z" fill="white"/>
</svg>
