<svg width="25" height="25" viewBox="0 0 25 25" fill="none" xmlns="http://www.w3.org/2000/svg">
<ellipse opacity="0.4" cx="10.5" cy="17.3229" rx="7" ry="4" fill="white"/>
<circle cx="10.5" cy="7.32286" r="4" fill="white"/>
<path fill-rule="evenodd" clip-rule="evenodd" d="M18.75 13.3229C18.75 13.7371 19.0858 14.0729 19.5 14.0729C19.9142 14.0729 20.25 13.7371 20.25 13.3229V12.0729H21.5C21.9142 12.0729 22.25 11.7371 22.25 11.3229C22.25 10.9086 21.9142 10.5729 21.5 10.5729H20.25V9.32286C20.25 8.90865 19.9142 8.57286 19.5 8.57286C19.0858 8.57286 18.75 8.90865 18.75 9.32286L18.75 10.5729H17.5C17.0858 10.5729 16.75 10.9086 16.75 11.3229C16.75 11.7371 17.0858 12.0729 17.5 12.0729H18.75L18.75 13.3229Z" fill="white"/>
</svg>
