<svg width="96" height="15" viewBox="0 0 96 15" fill="none" xmlns="http://www.w3.org/2000/svg">
<g opacity="0.6">
<path d="M9.51669 14.0291L10.6138 12.9632C10.8615 12.7227 10.8593 12.3244 10.6091 12.0866L4.25161 6.04292C4.0014 5.80505 3.99924 5.40681 4.24687 5.16625L6.05833 3.4065C6.17179 3.29628 6.32375 3.23462 6.48193 3.23462H11.4964C11.6546 3.23462 11.8065 3.29628 11.92 3.4065L13.7363 5.171C13.9821 5.40975 13.9821 5.80435 13.7363 6.04311L11.9321 7.79581C11.6864 8.03457 11.6864 8.42917 11.9321 8.66792L13.0861 9.78897C13.322 10.0181 13.6974 10.0181 13.9333 9.78897L17.7893 6.04311C18.035 5.80435 18.035 5.40975 17.7893 5.171L13.219 0.731208C13.1056 0.620984 12.9536 0.559326 12.7954 0.559326H5.44272C5.28454 0.559326 5.13258 0.620984 5.01912 0.731208L0.448869 5.171C0.203096 5.40975 0.203097 5.80435 0.44887 6.04311L8.66948 14.0291C8.90539 14.2582 9.28078 14.2582 9.51669 14.0291Z" fill="white"/>
<path d="M26.8014 12.0969C25.9217 12.0969 25.1832 11.9112 24.586 11.54C23.9968 11.1687 23.5529 10.6562 23.2542 10.0024C22.9556 9.34869 22.8063 8.59405 22.8063 7.73853C22.8063 6.88301 22.9556 6.12434 23.2542 5.46252C23.5609 4.8007 24.0089 4.28416 24.5981 3.9129C25.1953 3.53356 25.9338 3.34389 26.8135 3.34389C27.4511 3.34389 28.008 3.44882 28.4842 3.65866C28.9604 3.86044 29.3438 4.15099 29.6343 4.53033C29.933 4.90159 30.1307 5.34549 30.2276 5.86203H28.9685C28.8474 5.45042 28.6013 5.12354 28.23 4.88141C27.8587 4.63928 27.3825 4.51822 26.8014 4.51822C26.1558 4.51822 25.6352 4.66753 25.2397 4.96616C24.8523 5.26478 24.5698 5.65622 24.3922 6.14048C24.2147 6.61667 24.1259 7.13321 24.1259 7.69011C24.1259 8.26315 24.2187 8.79583 24.4044 9.28816C24.59 9.78049 24.8846 10.176 25.2881 10.4746C25.6917 10.7732 26.2082 10.9225 26.8377 10.9225C27.2252 10.9225 27.5682 10.8701 27.8668 10.7651C28.1654 10.6521 28.4156 10.4948 28.6174 10.293C28.8192 10.0831 28.9564 9.84102 29.029 9.56661H30.3728C30.2679 10.0912 30.054 10.5432 29.7312 10.9225C29.4084 11.3019 29.0008 11.5924 28.5084 11.7942C28.0161 11.996 27.4471 12.0969 26.8014 12.0969ZM33.9325 12V4.61507H31.2207V3.44075H37.9155V4.61507H35.2158V12H33.9325ZM42.7382 12.0969C41.8504 12.0969 41.1079 11.9112 40.5106 11.54C39.9215 11.1687 39.4776 10.6562 39.1789 10.0024C38.8803 9.34062 38.731 8.58598 38.731 7.73853C38.731 7.10093 38.8117 6.51578 38.9731 5.9831C39.1426 5.44234 39.3928 4.97423 39.7237 4.57875C40.0546 4.18327 40.4663 3.88061 40.9586 3.67077C41.459 3.45285 42.0361 3.34389 42.6898 3.34389C43.3274 3.34389 43.8883 3.44478 44.3726 3.64656C44.8569 3.84026 45.2564 4.12274 45.5711 4.49401C45.894 4.86527 46.1119 5.31321 46.2249 5.83782H44.869C44.7963 5.55534 44.6591 5.31724 44.4573 5.12354C44.2636 4.92984 44.0175 4.78053 43.7189 4.6756C43.4283 4.57068 43.0974 4.51822 42.7261 4.51822C42.2419 4.51822 41.8303 4.60296 41.4913 4.77245C41.1523 4.94194 40.8738 5.176 40.6559 5.47463C40.4461 5.76518 40.2927 6.10416 40.1959 6.49157C40.099 6.87898 40.0506 7.29059 40.0506 7.72643C40.0506 8.30754 40.1434 8.84022 40.3291 9.32448C40.5147 9.80873 40.8052 10.1961 41.2007 10.4867C41.5962 10.7772 42.1127 10.9225 42.7503 10.9225C43.2427 10.9225 43.6664 10.8378 44.0215 10.6683C44.3766 10.4907 44.6551 10.2405 44.8569 9.91769C45.0586 9.58678 45.1636 9.18727 45.1716 8.71915H42.5203V7.59326H46.4307V8.22279C46.4307 9.00567 46.2854 9.68767 45.9949 10.2688C45.7043 10.8499 45.2846 11.3019 44.7358 11.6247C44.187 11.9395 43.5211 12.0969 42.7382 12.0969ZM48.4563 12.1211C48.2141 12.1211 48.0124 12.0444 47.8509 11.891C47.6976 11.7377 47.6209 11.5359 47.6209 11.2857C47.6209 11.0355 47.7016 10.8337 47.863 10.6804C48.0245 10.519 48.2222 10.4383 48.4563 10.4383C48.6903 10.4383 48.884 10.519 49.0374 10.6804C49.1988 10.8337 49.2795 11.0355 49.2795 11.2857C49.2795 11.5359 49.1988 11.7377 49.0374 11.891C48.884 12.0444 48.6903 12.1211 48.4563 12.1211ZM51.2855 12V3.44075H53.1135L55.5954 7.95645L58.0288 3.44075H59.8084V12H58.5372V4.95405L55.8375 9.86927H55.2806L52.5688 4.95405V12H51.2855ZM65.6815 12.0969C64.8017 12.0969 64.0552 11.9112 63.4418 11.54C62.8364 11.1606 62.3764 10.64 62.0616 9.97822C61.7469 9.31641 61.5895 8.56581 61.5895 7.72643C61.5895 6.87898 61.7469 6.12434 62.0616 5.46252C62.3764 4.8007 62.8405 4.28416 63.4539 3.9129C64.0673 3.53356 64.8138 3.34389 65.6936 3.34389C66.5814 3.34389 67.3279 3.52953 67.9333 3.90079C68.5386 4.27206 68.9986 4.7886 69.3134 5.45042C69.6282 6.11223 69.7855 6.86687 69.7855 7.71432C69.7855 8.5537 69.6282 9.3043 69.3134 9.96612C68.9986 10.6279 68.5345 11.1485 67.9211 11.5278C67.3158 11.9072 66.5693 12.0969 65.6815 12.0969ZM65.6936 10.9225C66.3392 10.9225 66.8679 10.7732 67.2795 10.4746C67.6911 10.176 67.9938 9.78452 68.1875 9.30026C68.3812 8.81601 68.478 8.29139 68.478 7.72643C68.478 7.29867 68.4215 6.89108 68.3086 6.50368C68.2036 6.11627 68.0382 5.77325 67.8122 5.47463C67.5862 5.176 67.2956 4.94194 66.9405 4.77245C66.5854 4.60296 66.1697 4.51822 65.6936 4.51822C65.056 4.51822 64.5273 4.66753 64.1076 4.96616C63.696 5.26478 63.3893 5.65622 63.1875 6.14048C62.9858 6.62474 62.8849 7.15339 62.8849 7.72643C62.8849 8.29139 62.9817 8.81601 63.1754 9.30026C63.3772 9.78452 63.6839 10.176 64.0955 10.4746C64.5152 10.7732 65.0479 10.9225 65.6936 10.9225ZM71.5609 12V3.44075H73.05L77.3478 10.1235V3.44075H78.619V12H77.1662L72.8442 5.35356V12H71.5609ZM80.8711 12V3.44075H86.7669V4.61507H82.1543V7.18164H86.2342V8.34385H82.1543V10.8257H86.7669V12H80.8711ZM90.7651 12V8.79179L87.678 3.44075H89.1671L91.4189 7.54483L93.6586 3.44075H95.1114L92.0363 8.77969V12H90.7651Z" fill="white"/>
</g>
</svg>
