<svg width="16" height="16" viewBox="0 0 16 16" fill="none" xmlns="http://www.w3.org/2000/svg">
  <path
    d="M12.4729 10.3799C12.1817 10.3799 11.9457 10.1439 11.9457 9.85275V4.05431L6.14728 4.05431C5.85616 4.05431 5.62015 3.81829 5.62015 3.52717C5.62015 3.23606 5.85616 3.00004 6.14728 3.00004L12.4729 3.00004C12.764 3.00004 13 3.23606 13 3.52717V9.85275C13 10.1439 12.764 10.3799 12.4729 10.3799Z"
    fill="currentColor" />
  <path
    d="M3.1544 12.8456C2.94853 12.6397 2.94853 12.306 3.1544 12.1001L12.1001 3.15434C12.306 2.94855 12.6398 2.94855 12.8456 3.15434C13.0515 3.36021 13.0515 3.69399 12.8456 3.89985L3.89983 12.8456C3.69397 13.0515 3.36026 13.0515 3.1544 12.8456Z"
    fill="currentColor" />
</svg>
