<svg width="21" height="20" viewBox="0 0 21 20" fill="none" xmlns="http://www.w3.org/2000/svg">
<circle cx="10.5" cy="10" r="10" fill="white" fill-opacity="0.7"/>
<path d="M14.4709 9.38755C14.4123 9.44607 14.3328 9.47894 14.25 9.47894C14.1672 9.47894 14.0878 9.44607 14.0292 9.38755L10.8125 6.17141L10.8125 14.5834C10.8125 14.6663 10.7796 14.7458 10.721 14.8044C10.6624 14.863 10.5829 14.8959 10.5 14.8959C10.4171 14.8959 10.3377 14.863 10.279 14.8044C10.2204 14.7458 10.1875 14.6663 10.1875 14.5834L10.1875 6.17141L6.97085 9.38755C6.91161 9.44275 6.83326 9.4728 6.7523 9.47137C6.67134 9.46994 6.5941 9.43715 6.53684 9.37989C6.47959 9.32264 6.44679 9.24539 6.44536 9.16443C6.44393 9.08348 6.47398 9.00512 6.52918 8.94588L10.2792 5.19588C10.3378 5.13736 10.4172 5.10449 10.5 5.10449C10.5828 5.10449 10.6623 5.13736 10.7209 5.19588L14.4709 8.94589C14.5294 9.00448 14.5622 9.08391 14.5622 9.16672C14.5622 9.24953 14.5294 9.32896 14.4709 9.38755Z" fill="black"/>
</svg>
