<svg width="31" height="30" viewBox="0 0 31 30" fill="none" xmlns="http://www.w3.org/2000/svg">
<circle cx="15.5" cy="15" r="15" fill="white"/>
<path d="M21.4563 14.0812C21.3684 14.169 21.2492 14.2183 21.125 14.2183C21.0008 14.2183 20.8817 14.169 20.7938 14.0812L15.9688 9.25699V21.875C15.9688 21.9993 15.9194 22.1185 15.8315 22.2064C15.7436 22.2943 15.6243 22.3437 15.5 22.3437C15.3757 22.3437 15.2565 22.2943 15.1686 22.2064C15.0807 22.1185 15.0313 21.9993 15.0313 21.875V9.25699L10.2063 14.0812C10.1174 14.164 9.99989 14.2091 9.87845 14.2069C9.75701 14.2048 9.64115 14.1556 9.55526 14.0697C9.46938 13.9838 9.42018 13.868 9.41804 13.7465C9.4159 13.6251 9.46098 13.5076 9.54378 13.4187L15.1688 7.7937C15.2567 7.70592 15.3758 7.65662 15.5 7.65662C15.6242 7.65662 15.7434 7.70592 15.8313 7.7937L21.4563 13.4187C21.5441 13.5066 21.5934 13.6257 21.5934 13.75C21.5934 13.8742 21.5441 13.9933 21.4563 14.0812Z" fill="black"/>
</svg>
