<svg width="25" height="24" viewBox="0 0 25 24" fill="none" xmlns="http://www.w3.org/2000/svg">
<path opacity="0.2" d="M20.5 13C20.5 17.4183 16.9183 21 12.5 21C8.08172 21 4.5 17.4183 4.5 13C4.5 8.58172 8.08172 5 12.5 5C16.9183 5 20.5 8.58172 20.5 13Z" fill="#001919"/>
<path fill-rule="evenodd" clip-rule="evenodd" d="M7.96967 10.4697C7.67678 10.7626 7.67678 11.2374 7.96967 11.5303L11.9696 15.5303C12.1103 15.671 12.301 15.75 12.5 15.75C12.6989 15.75 12.8896 15.671 13.0303 15.5303L17.0303 11.5303C17.3232 11.2374 17.3232 10.7626 17.0303 10.4697C16.7374 10.1768 16.2626 10.1768 15.9697 10.4697L13.25 13.1894L13.25 1C13.25 0.585787 12.9142 0.25 12.5 0.25C12.0858 0.25 11.75 0.585787 11.75 1L11.75 13.1893L9.03033 10.4697C8.73744 10.1768 8.26257 10.1768 7.96967 10.4697Z" fill="#001919"/>
</svg>
