<svg width="12" height="12" viewBox="0 0 12 12" fill="none" xmlns="http://www.w3.org/2000/svg">
<circle opacity="0.4" cx="5.99996" cy="6.00008" r="5.83333" fill="#09E5E5"/>
<path fill-rule="evenodd" clip-rule="evenodd" d="M5.99992 3.521C5.59721 3.521 5.27075 3.84746 5.27075 4.25016C5.27075 4.49179 5.07488 4.68766 4.83325 4.68766C4.59163 4.68766 4.39575 4.49179 4.39575 4.25016C4.39575 3.36421 5.11396 2.646 5.99992 2.646C6.88588 2.646 7.60409 3.36421 7.60409 4.25016C7.60409 4.56886 7.5107 4.86708 7.34965 5.11736C7.24877 5.27413 7.13084 5.4238 7.02209 5.55895C7.0022 5.58367 6.98265 5.60786 6.96344 5.63164C6.87321 5.74332 6.79038 5.84584 6.71384 5.95103C6.52509 6.21045 6.43742 6.4054 6.43742 6.5835V6.87516C6.43742 7.11679 6.24154 7.31266 5.99992 7.31266C5.75829 7.31266 5.56242 7.11679 5.56242 6.87516V6.5835C5.56242 6.11726 5.79133 5.7317 6.00631 5.43623C6.09715 5.31138 6.1967 5.18824 6.28721 5.07628C6.30534 5.05385 6.32311 5.03187 6.34038 5.01041C6.44841 4.87616 6.54036 4.75804 6.61382 4.64388C6.68674 4.53056 6.72909 4.39598 6.72909 4.25016C6.72909 3.84746 6.40263 3.521 5.99992 3.521Z" fill="#09E5E5"/>
<path fill-rule="evenodd" clip-rule="evenodd" d="M6 7.896C6.24162 7.896 6.4375 8.09187 6.4375 8.3335V8.91683C6.4375 9.15845 6.24162 9.35433 6 9.35433C5.75838 9.35433 5.5625 9.15845 5.5625 8.91683V8.3335C5.5625 8.09187 5.75838 7.896 6 7.896Z" fill="#09E5E5"/>
</svg>
