<svg width="12" height="12" viewBox="0 0 12 12" fill="none" xmlns="http://www.w3.org/2000/svg">
<circle opacity="0.4" cx="5.99996" cy="6.00008" r="5.83333" fill="#09E5E5"/>
<path fill-rule="evenodd" clip-rule="evenodd" d="M4.57478 3.7085C4.66919 3.16629 4.79558 2.67894 4.94581 2.26582C5.11687 1.79539 5.31176 1.4409 5.50944 1.21097C5.70815 0.979839 5.87523 0.911427 6.00006 0.911427C6.1249 0.911427 6.29198 0.979839 6.49069 1.21097C6.68837 1.4409 6.88326 1.79539 7.05432 2.26582C7.20455 2.67894 7.33094 3.16629 7.42535 3.7085C6.96864 3.66492 6.49093 3.64192 6.00006 3.64192C5.5092 3.64192 5.03149 3.66492 4.57478 3.7085ZM3.80437 3.80437C3.9081 3.1348 4.05836 2.52723 4.24596 2.01133C4.43426 1.49351 4.66728 1.04826 4.94476 0.725502C5.2212 0.403956 5.57654 0.166748 6.00006 0.166748C6.42359 0.166748 6.77893 0.403956 7.05537 0.725502C7.33285 1.04826 7.56587 1.49351 7.75417 2.01133C7.94177 2.52723 8.09203 3.1348 8.19576 3.80437C8.86533 3.9081 9.4729 4.05836 9.9888 4.24596C10.5066 4.43426 10.9519 4.66728 11.2746 4.94476C11.5962 5.2212 11.8334 5.57654 11.8334 6.00006C11.8334 6.42359 11.5962 6.77893 11.2746 7.05537C10.9519 7.33285 10.5066 7.56587 9.9888 7.75417C9.4729 7.94177 8.86533 8.09203 8.19576 8.19576C8.09203 8.86533 7.94177 9.4729 7.75417 9.9888C7.56587 10.5066 7.33285 10.9519 7.05537 11.2746C6.77893 11.5962 6.42359 11.8334 6.00006 11.8334C5.57654 11.8334 5.2212 11.5962 4.94476 11.2746C4.66728 10.9519 4.43426 10.5066 4.24596 9.9888C4.05836 9.4729 3.9081 8.86533 3.80437 8.19576C3.1348 8.09203 2.52723 7.94177 2.01133 7.75417C1.49351 7.56587 1.04825 7.33285 0.725501 7.05537C0.403956 6.77893 0.166748 6.42359 0.166748 6.00006C0.166748 5.57654 0.403956 5.2212 0.725501 4.94476C1.04825 4.66728 1.49351 4.43426 2.01133 4.24596C2.52723 4.05836 3.1348 3.9081 3.80437 3.80437ZM3.7085 7.42535C3.16629 7.33094 2.67894 7.20455 2.26581 7.05432C1.79539 6.88326 1.4409 6.68837 1.21097 6.49069C0.979839 6.29198 0.911427 6.1249 0.911427 6.00006C0.911427 5.87523 0.979839 5.70815 1.21097 5.50944C1.4409 5.31176 1.79539 5.11687 2.26581 4.94581C2.67894 4.79558 3.16629 4.66919 3.7085 4.57478C3.66492 5.03149 3.64192 5.5092 3.64192 6.00006C3.64192 6.49093 3.66492 6.96864 3.7085 7.42535ZM4.46796 7.53217C4.41523 7.04912 4.38659 6.53483 4.38659 6.00006C4.38659 5.4653 4.41523 4.95101 4.46796 4.46796C4.95101 4.41523 5.4653 4.38659 6.00006 4.38659C6.53483 4.38659 7.04912 4.41523 7.53217 4.46796C7.5849 4.95101 7.61354 5.4653 7.61354 6.00006C7.61354 6.53483 7.5849 7.04912 7.53217 7.53217C7.04912 7.5849 6.53483 7.61354 6.00006 7.61354C5.4653 7.61354 4.95101 7.5849 4.46796 7.53217ZM4.57478 8.29163C4.66919 8.83384 4.79558 9.32119 4.94581 9.73431C5.11687 10.2047 5.31176 10.5592 5.50944 10.7892C5.70815 11.0203 5.87523 11.0887 6.00006 11.0887C6.1249 11.0887 6.29198 11.0203 6.49069 10.7892C6.68837 10.5592 6.88326 10.2047 7.05432 9.73431C7.20455 9.32119 7.33094 8.83384 7.42535 8.29163C6.96864 8.33521 6.49093 8.35821 6.00006 8.35821C5.5092 8.35821 5.03149 8.33521 4.57478 8.29163ZM8.29163 7.42535C8.83384 7.33094 9.32119 7.20455 9.73431 7.05432C10.2047 6.88326 10.5592 6.68837 10.7892 6.49069C11.0203 6.29198 11.0887 6.1249 11.0887 6.00006C11.0887 5.87523 11.0203 5.70815 10.7892 5.50944C10.5592 5.31176 10.2047 5.11687 9.73431 4.94581C9.32119 4.79558 8.83384 4.66919 8.29163 4.57478C8.33521 5.03149 8.35821 5.5092 8.35821 6.00006C8.35821 6.49093 8.33521 6.96864 8.29163 7.42535Z" fill="#09E5E5"/>
</svg>
