<svg width="14" height="14" viewBox="0 0 14 14" fill="none" xmlns="http://www.w3.org/2000/svg">
<path opacity="0.4" d="M2.33337 7.00008C2.33337 5.71142 3.37804 4.66675 4.66671 4.66675H9.33337C10.622 4.66675 11.6667 5.71142 11.6667 7.00008V10.5001C11.6667 11.7887 10.622 12.8334 9.33337 12.8334H4.66671C3.37804 12.8334 2.33337 11.7887 2.33337 10.5001V7.00008Z" fill="#09E5E5"/>
<path fill-rule="evenodd" clip-rule="evenodd" d="M7 7.72925C7.24162 7.72925 7.4375 7.92512 7.4375 8.16675V9.33341C7.4375 9.57504 7.24162 9.77091 7 9.77091C6.75838 9.77091 6.5625 9.57504 6.5625 9.33341V8.16675C6.5625 7.92512 6.75838 7.72925 7 7.72925Z" fill="#09E5E5"/>
<path fill-rule="evenodd" clip-rule="evenodd" d="M5.10425 3.50008C5.10425 2.45304 5.95304 1.60425 7.00008 1.60425C8.04712 1.60425 8.89591 2.45304 8.89591 3.50008V4.85915C9.20573 4.95909 9.49904 5.0958 9.77069 5.26413C9.77084 5.25946 9.77091 5.25478 9.77091 5.25008V3.50008C9.77091 1.96979 8.53037 0.729248 7.00008 0.729248C5.46979 0.729248 4.22925 1.96979 4.22925 3.50008V5.25008C4.22925 5.25478 4.22932 5.25946 4.22947 5.26413C4.50112 5.0958 4.79443 4.95909 5.10425 4.85915V3.50008Z" fill="#09E5E5"/>
</svg>
