<svg width="12" height="14" viewBox="0 0 12 14" fill="none" xmlns="http://www.w3.org/2000/svg">
<g opacity="0.4">
<path fill-rule="evenodd" clip-rule="evenodd" d="M6 1.60425C3.34213 1.60425 1.1875 3.75888 1.1875 6.41675V8.02092H0.3125V6.41675C0.3125 3.27563 2.85888 0.729248 6 0.729248C9.14112 0.729248 11.6875 3.27563 11.6875 6.41675V8.02092H10.8125V6.41675C10.8125 3.75888 8.65787 1.60425 6 1.60425Z" fill="#09E5E5"/>
<path fill-rule="evenodd" clip-rule="evenodd" d="M11.25 7.72925C11.4916 7.72925 11.6875 7.92512 11.6875 8.16675V9.33342C11.6875 11.508 9.92462 13.2709 7.75 13.2709H6C5.75838 13.2709 5.5625 13.075 5.5625 12.8334C5.5625 12.5918 5.75838 12.3959 6 12.3959H7.75C9.44137 12.3959 10.8125 11.0248 10.8125 9.33342V8.16675C10.8125 7.92512 11.0084 7.72925 11.25 7.72925Z" fill="#09E5E5"/>
</g>
<path fill-rule="evenodd" clip-rule="evenodd" d="M7.3125 7.5835C7.3125 6.37537 8.29188 5.396 9.5 5.396C10.7081 5.396 11.6875 6.37537 11.6875 7.5835V8.75016C11.6875 9.95829 10.7081 10.9377 9.5 10.9377C8.29188 10.9377 7.3125 9.95829 7.3125 8.75016V7.5835Z" fill="#09E5E5"/>
<path fill-rule="evenodd" clip-rule="evenodd" d="M0.3125 7.5835C0.3125 6.37537 1.29188 5.396 2.5 5.396C3.70812 5.396 4.6875 6.37537 4.6875 7.5835V8.75016C4.6875 9.95829 3.70812 10.9377 2.5 10.9377C1.29188 10.9377 0.3125 9.95829 0.3125 8.75016V7.5835Z" fill="#09E5E5"/>
</svg>
