<svg width="42" height="42" viewBox="0 0 42 42" fill="none" xmlns="http://www.w3.org/2000/svg">
<g clip-path="url(#clip0_1183_386)">
<path d="M20.525 41.05C31.8606 41.05 41.05 31.8606 41.05 20.525C41.05 9.18935 31.8606 0 20.525 0C9.18935 0 0 9.18935 0 20.525C0 31.8606 9.18935 41.05 20.525 41.05Z" fill="#D11C3A"/>
<path d="M28.1344 12.7164L9.62085 9.3092L19.3638 33.8263L32.9398 17.2857L28.1344 12.7164ZM27.8368 14.2172L30.6692 16.9099L22.9236 18.312L27.8368 14.2172ZM21.2406 18.031L13.0767 11.2604L26.4206 13.7157L21.2406 18.031ZM20.6594 19.2292L19.3279 30.2357L12.1506 12.1699L20.6594 19.2279V19.2292ZM21.891 19.8129L30.4691 18.2607L20.6299 30.246L21.891 19.8129Z" fill="white"/>
</g>
<defs>
<clipPath id="clip0_1183_386">
<rect width="41.05" height="41.05" fill="white"/>
</clipPath>
</defs>
</svg>
