<svg width="16" height="16" viewBox="0 0 16 16" fill="none" xmlns="http://www.w3.org/2000/svg">
  <path fill-rule="evenodd" clip-rule="evenodd"
    d="M10.4693 2.22032C10.61 2.07987 10.8006 2.00098 10.9993 2.00098C11.1981 2.00098 11.3887 2.07987 11.5293 2.22032L13.7793 4.47032C13.9198 4.61094 13.9987 4.80157 13.9987 5.00032C13.9987 5.19907 13.9198 5.38969 13.7793 5.53032L11.5293 7.78032C11.4607 7.854 11.3779 7.91311 11.2859 7.9541C11.1939 7.99509 11.0946 8.01713 10.9939 8.01891C10.8932 8.02069 10.7931 8.00216 10.6997 7.96444C10.6064 7.92672 10.5215 7.87057 10.4503 7.79936C10.3791 7.72814 10.3229 7.6433 10.2852 7.54991C10.2475 7.45653 10.229 7.3565 10.2307 7.25579C10.2325 7.15509 10.2546 7.05578 10.2956 6.96378C10.3366 6.87178 10.3957 6.78898 10.4693 6.72032L11.4393 5.75032H5.74934C5.55043 5.75032 5.35966 5.6713 5.21901 5.53065C5.07836 5.38999 4.99934 5.19923 4.99934 5.00032C4.99934 4.8014 5.07836 4.61064 5.21901 4.46999C5.35966 4.32933 5.55043 4.25032 5.74934 4.25032H11.4393L10.4693 3.28032C10.3289 3.13969 10.25 2.94907 10.25 2.75032C10.25 2.55157 10.3289 2.36094 10.4693 2.22032ZM5.52934 8.22032C5.66979 8.36094 5.74868 8.55157 5.74868 8.75032C5.74868 8.94907 5.66979 9.13969 5.52934 9.28032L4.55934 10.2503H10.2493C10.4483 10.2503 10.639 10.3293 10.7797 10.47C10.9203 10.6106 10.9993 10.8014 10.9993 11.0003C10.9993 11.1992 10.9203 11.39 10.7797 11.5306C10.639 11.6713 10.4483 11.7503 10.2493 11.7503H4.55934L5.52934 12.7203C5.60303 12.789 5.66213 12.8718 5.70312 12.9638C5.74411 13.0558 5.76615 13.1551 5.76793 13.2558C5.76971 13.3565 5.75118 13.4565 5.71346 13.5499C5.67574 13.6433 5.6196 13.7281 5.54838 13.7994C5.47716 13.8706 5.39233 13.9267 5.29894 13.9644C5.20555 14.0022 5.10552 14.0207 5.00482 14.0189C4.90411 14.0171 4.8048 13.9951 4.7128 13.9541C4.6208 13.9131 4.538 13.854 4.46934 13.7803L2.21934 11.5303C2.07889 11.3897 2 11.1991 2 11.0003C2 10.8016 2.07889 10.6109 2.21934 10.4703L4.46934 8.22032C4.60997 8.07987 4.80059 8.00098 4.99934 8.00098C5.19809 8.00098 5.38871 8.07987 5.52934 8.22032Z"
    fill="currentColor" />
</svg>
