<svg width="284" height="44" viewBox="0 0 433 148" fill="none" xmlns="http://www.w3.org/2000/svg">
<g filter="url(#filter0_ddddd_21_76)">
<path d="M7 53.2709L25.8689 10.7293H35.5453L54.4746 53.2709H44.1933L28.7112 15.7127H32.5819L17.0392 53.2709H7ZM16.4346 44.1548L19.0349 36.6798H40.8068L43.4677 44.1548H16.4346ZM68.054 53.2709L49.79 10.7293H60.3733L76.3392 48.4091H70.1101L86.3177 10.7293H96.0548L77.73 53.2709H68.054ZM91.3985 53.2709L110.267 10.7293H119.943L138.873 53.2709H128.591L113.109 15.7127H116.98L101.438 53.2709H91.3985ZM100.833 44.1548L103.433 36.6798H125.205L127.866 44.1548H100.833ZM161.725 54C158.459 54 155.415 53.4735 152.592 52.4201C149.81 51.326 147.392 49.7864 145.335 47.8013C143.279 45.8161 141.666 43.4863 140.497 40.8124C139.368 38.1384 138.804 35.2008 138.804 31.9999C138.804 28.7994 139.368 25.8618 140.497 23.1878C141.666 20.5138 143.279 18.1841 145.335 16.1989C147.432 14.2138 149.871 12.6943 152.653 11.6409C155.435 10.547 158.479 10 161.785 10C165.454 10 168.76 10.6483 171.703 11.9448C174.687 13.2007 177.186 15.0646 179.202 17.5359L172.913 23.3701C171.461 21.7092 169.849 20.4732 168.074 19.6631C166.301 18.8123 164.365 18.3867 162.269 18.3867C160.293 18.3867 158.479 18.711 156.826 19.3591C155.173 20.0073 153.741 20.9394 152.532 22.1548C151.322 23.3701 150.375 24.8084 149.689 26.4697C149.044 28.1309 148.722 29.9745 148.722 31.9999C148.722 34.0257 149.044 35.8693 149.689 37.5305C150.375 39.1918 151.322 40.6301 152.532 41.8454C153.741 43.0608 155.173 43.9929 156.826 44.6411C158.479 45.2892 160.293 45.6135 162.269 45.6135C164.365 45.6135 166.301 45.2082 168.074 44.3978C169.849 43.547 171.461 42.271 172.913 40.5691L179.202 46.4033C177.186 48.875 174.687 50.7588 171.703 52.0555C168.76 53.3518 165.434 54 161.725 54ZM204.285 54C200.939 54 197.834 53.4531 194.971 52.3591C192.149 51.2654 189.69 49.7258 187.593 47.7406C185.537 45.7551 183.924 43.4257 182.755 40.7514C181.626 38.0774 181.062 35.1605 181.062 31.9999C181.062 28.8397 181.626 25.9228 182.755 23.2488C183.924 20.5745 185.557 18.2451 187.654 16.2596C189.75 14.2744 192.21 12.7348 195.032 11.6409C197.854 10.547 200.918 10 204.225 10C207.571 10 210.635 10.547 213.417 11.6409C216.239 12.7348 218.678 14.2744 220.735 16.2596C222.831 18.2451 224.464 20.5745 225.633 23.2488C226.802 25.8821 227.387 28.7994 227.387 31.9999C227.387 35.1605 226.802 38.0977 225.633 40.8124C224.464 43.4863 222.831 45.8161 220.735 47.8013C218.678 49.7461 216.239 51.2654 213.417 52.3591C210.635 53.4531 207.591 54 204.285 54ZM204.225 45.6135C206.119 45.6135 207.853 45.2892 209.425 44.6411C211.038 43.9929 212.45 43.0608 213.659 41.8454C214.868 40.6301 215.796 39.1918 216.441 37.5305C217.126 35.8693 217.469 34.0257 217.469 31.9999C217.469 29.9745 217.126 28.1309 216.441 26.4697C215.796 24.8084 214.868 23.3701 213.659 22.1548C212.49 20.9394 211.099 20.0073 209.486 19.3591C207.873 18.711 206.119 18.3867 204.225 18.3867C202.329 18.3867 200.576 18.711 198.963 19.3591C197.391 20.0073 196 20.9394 194.79 22.1548C193.581 23.3701 192.633 24.8084 191.948 26.4697C191.303 28.1309 190.98 29.9745 190.98 31.9999C190.98 33.9854 191.303 35.829 191.948 37.5305C192.633 39.1918 193.56 40.6301 194.73 41.8454C195.939 43.0608 197.35 43.9929 198.963 44.6411C200.576 45.2892 202.329 45.6135 204.225 45.6135ZM233.541 53.2709V10.7293H243.338V53.2709H233.541ZM252.175 53.2709V10.7293H260.279L285.257 41.3592H281.323V10.7293H291V53.2709H282.957L257.92 22.641H261.851V53.2709H252.175Z" fill="url(#paint0_linear_21_76)"/>
</g>
<defs>
<filter id="filter0_ddddd_21_76" x="0" y="0" width="433" height="148" filterUnits="userSpaceOnUse" color-interpolation-filters="sRGB">
<feFlood flood-opacity="0" result="BackgroundImageFix"/>
<feColorMatrix in="SourceAlpha" type="matrix" values="0 0 0 0 0 0 0 0 0 0 0 0 0 0 0 0 0 0 127 0" result="hardAlpha"/>
<feOffset dx="4" dy="2"/>
<feGaussianBlur stdDeviation="5.5"/>
<feColorMatrix type="matrix" values="0 0 0 0 0 0 0 0 0 0 0 0 0 0 0 0 0 0 0.39 0"/>
<feBlend mode="normal" in2="BackgroundImageFix" result="effect1_dropShadow_21_76"/>
<feColorMatrix in="SourceAlpha" type="matrix" values="0 0 0 0 0 0 0 0 0 0 0 0 0 0 0 0 0 0 127 0" result="hardAlpha"/>
<feOffset dx="17" dy="10"/>
<feGaussianBlur stdDeviation="10"/>
<feColorMatrix type="matrix" values="0 0 0 0 0 0 0 0 0 0 0 0 0 0 0 0 0 0 0.34 0"/>
<feBlend mode="normal" in2="effect1_dropShadow_21_76" result="effect2_dropShadow_21_76"/>
<feColorMatrix in="SourceAlpha" type="matrix" values="0 0 0 0 0 0 0 0 0 0 0 0 0 0 0 0 0 0 127 0" result="hardAlpha"/>
<feOffset dx="39" dy="21"/>
<feGaussianBlur stdDeviation="13.5"/>
<feColorMatrix type="matrix" values="0 0 0 0 0 0 0 0 0 0 0 0 0 0 0 0 0 0 0.2 0"/>
<feBlend mode="normal" in2="effect2_dropShadow_21_76" result="effect3_dropShadow_21_76"/>
<feColorMatrix in="SourceAlpha" type="matrix" values="0 0 0 0 0 0 0 0 0 0 0 0 0 0 0 0 0 0 127 0" result="hardAlpha"/>
<feOffset dx="69" dy="38"/>
<feGaussianBlur stdDeviation="16"/>
<feColorMatrix type="matrix" values="0 0 0 0 0 0 0 0 0 0 0 0 0 0 0 0 0 0 0.06 0"/>
<feBlend mode="normal" in2="effect3_dropShadow_21_76" result="effect4_dropShadow_21_76"/>
<feColorMatrix in="SourceAlpha" type="matrix" values="0 0 0 0 0 0 0 0 0 0 0 0 0 0 0 0 0 0 127 0" result="hardAlpha"/>
<feOffset dx="108" dy="60"/>
<feGaussianBlur stdDeviation="17"/>
<feColorMatrix type="matrix" values="0 0 0 0 0 0 0 0 0 0 0 0 0 0 0 0 0 0 0.01 0"/>
<feBlend mode="normal" in2="effect4_dropShadow_21_76" result="effect5_dropShadow_21_76"/>
<feBlend mode="normal" in="SourceGraphic" in2="effect5_dropShadow_21_76" result="shape"/>
</filter>
<linearGradient id="paint0_linear_21_76" x1="22.8136" y1="10" x2="291.035" y2="53.7877" gradientUnits="userSpaceOnUse">
<stop stop-color="#FFD46A"/>
<stop offset="1" stop-color="#EDA900"/>
</linearGradient>
</defs>
</svg>
