<svg width="31" height="30" viewBox="0 0 31 30" fill="none" xmlns="http://www.w3.org/2000/svg">
<mask id="mask0_1146_657" style="mask-type:luminance" maskUnits="userSpaceOnUse" x="2" y="3" width="28" height="23">
<path d="M18.35 3.59998H12.9001C7.76224 3.59998 5.19262 3.59998 3.59716 5.19679C2.44723 6.34536 2.12569 7.9994 2.03576 10.753H29.2144C29.1245 7.9994 28.8029 6.34536 27.653 5.19679C26.0575 3.59998 23.4879 3.59998 18.35 3.59998ZM12.9001 25.3995H18.35C23.4879 25.3995 26.0575 25.3995 27.653 23.8027C29.2484 22.2059 29.2498 19.6376 29.2498 14.4998C29.2498 13.8985 29.2489 13.3308 29.2471 12.7967H2.00307C2.00034 13.3308 1.99943 13.8985 2.00034 14.4998C2.00034 19.6376 2.00034 22.2073 3.59716 23.8027C5.19398 25.3982 7.76224 25.3995 12.9001 25.3995Z" fill="white"/>
<path fill-rule="evenodd" clip-rule="evenodd" d="M6.42896 19.9496C6.42896 19.6786 6.53661 19.4187 6.72825 19.227C6.91988 19.0354 7.1798 18.9277 7.45081 18.9277H12.9007C13.1717 18.9277 13.4316 19.0354 13.6233 19.227C13.8149 19.4187 13.9226 19.6786 13.9226 19.9496C13.9226 20.2206 13.8149 20.4805 13.6233 20.6722C13.4316 20.8638 13.1717 20.9714 12.9007 20.9714H7.45081C7.1798 20.9714 6.91988 20.8638 6.72825 20.6722C6.53661 20.4805 6.42896 20.2206 6.42896 19.9496ZM15.285 19.9496C15.285 19.6786 15.3927 19.4187 15.5843 19.227C15.776 19.0354 16.0359 18.9277 16.3069 18.9277H18.3506C18.6216 18.9277 18.8815 19.0354 19.0732 19.227C19.2648 19.4187 19.3725 19.6786 19.3725 19.9496C19.3725 20.2206 19.2648 20.4805 19.0732 20.6722C18.8815 20.8638 18.6216 20.9714 18.3506 20.9714H16.3069C16.0359 20.9714 15.776 20.8638 15.5843 20.6722C15.3927 20.4805 15.285 20.2206 15.285 19.9496Z" fill="black"/>
</mask>
<g mask="url(#mask0_1146_657)">
<path d="M-0.724121 -1.84991H31.9752V30.8494H-0.724121V-1.84991Z" fill="white" fill-opacity="0.5"/>
</g>
</svg>
