<svg width="21" height="21" viewBox="0 0 21 21" fill="none" xmlns="http://www.w3.org/2000/svg">
<path d="M20.1828 20.4764C20.1015 20.4765 20.0234 20.4448 19.9651 20.3882C19.9068 20.3317 19.8728 20.2546 19.8704 20.1734C19.7954 17.688 19.6392 13.6124 19.5408 13.2266L19.5079 13.1063C19.3861 12.6377 19.2689 12.1862 18.9487 11.9988C18.4957 11.7363 16.8227 10.9053 16.807 10.9053C16.77 10.8873 16.7369 10.8623 16.7095 10.8315C16.6822 10.8008 16.6612 10.7649 16.6477 10.726C16.6342 10.6872 16.6285 10.646 16.6309 10.6049C16.6333 10.5639 16.6438 10.5237 16.6618 10.4866C16.6797 10.4496 16.7048 10.4165 16.7355 10.3891C16.7663 10.3618 16.8021 10.3408 16.841 10.3273C16.8799 10.3138 16.921 10.3081 16.9621 10.3105C17.0032 10.3129 17.0434 10.3234 17.0804 10.3414C17.1507 10.3757 18.7987 11.1833 19.2674 11.4583C19.8126 11.7707 19.975 12.3955 20.1187 12.9485L20.1484 13.0657C20.3046 13.6374 20.4796 19.4876 20.4999 20.1531C20.5011 20.1941 20.4943 20.235 20.4797 20.2734C20.4652 20.3117 20.4432 20.3469 20.4151 20.3768C20.3869 20.4066 20.3532 20.4307 20.3157 20.4475C20.2783 20.4644 20.2379 20.4736 20.1968 20.4749L20.1828 20.4764Z" fill="white"/>
<path d="M17.1241 20.4951C17.0769 20.4954 17.0304 20.4847 16.9882 20.4638C16.5939 20.2589 16.2458 19.9755 15.965 19.6312C15.5494 19.1079 15.3807 18.5768 15.2558 17.941C15.2122 17.6468 15.1996 17.3489 15.2183 17.0521C15.2261 16.6772 15.237 16.2898 15.1277 16.0774C15.0339 15.8931 14.6372 15.1963 14.2154 14.459C14.0092 14.0982 13.7889 13.7139 13.5796 13.3452C12.9547 12.2408 12.6423 11.6847 12.5611 11.4847C12.4783 11.3228 12.4324 11.1445 12.4267 10.9628C12.4211 10.781 12.4558 10.6002 12.5283 10.4334C12.673 10.1496 12.9154 9.92765 13.2109 9.80858C13.5093 9.67892 14.106 9.57582 14.7496 10.3553L17.7692 13.9998L17.2896 14.4028L14.2701 10.7615C13.8295 10.2288 13.5546 10.3491 13.464 10.3897C13.3081 10.4478 13.1773 10.5583 13.0938 10.7021C13.0612 10.7884 13.0477 10.8808 13.0545 10.9728C13.0612 11.0648 13.088 11.1542 13.1328 11.2348C13.2437 11.491 13.9045 12.6532 14.1217 13.0359L14.7559 14.1497C15.1995 14.9308 15.5822 15.5962 15.6822 15.7931C15.8634 16.1477 15.8525 16.6148 15.8384 17.0678C15.8216 17.319 15.8305 17.5713 15.865 17.8207C15.9743 18.3831 16.1118 18.8158 16.4492 19.2438C16.6732 19.5134 16.9475 19.7368 17.2568 19.9015C17.3205 19.9323 17.3718 19.9838 17.4023 20.0475C17.4329 20.1112 17.441 20.1835 17.4252 20.2524C17.4094 20.3213 17.3707 20.3828 17.3155 20.4269C17.2602 20.471 17.1916 20.495 17.1209 20.4951H17.1241Z" fill="white"/>
<path d="M14.1859 19.2111C14.0837 19.2108 13.982 19.1983 13.8828 19.1736L8.19202 17.8005C8.02692 17.7606 7.87133 17.6884 7.73417 17.5883C7.59701 17.4881 7.48099 17.3618 7.39275 17.2166C7.3045 17.0715 7.24579 16.9104 7.21996 16.7425C7.19413 16.5746 7.20171 16.4033 7.24224 16.2384L10.3321 3.42893C10.3722 3.26394 10.4445 3.10847 10.5447 2.97142C10.6449 2.83437 10.7712 2.71843 10.9163 2.63022C11.0614 2.54201 11.2224 2.48326 11.3902 2.45734C11.558 2.43142 11.7293 2.43884 11.8943 2.47916L17.5851 3.85227C17.7503 3.892 17.906 3.96401 18.0433 4.06415C18.1805 4.16429 18.2966 4.29058 18.3849 4.43577C18.4732 4.58095 18.5319 4.74215 18.5576 4.91011C18.5833 5.07806 18.5756 5.24944 18.5348 5.41439L16.7134 12.9282C16.706 12.9702 16.69 13.0103 16.6665 13.0459C16.643 13.0815 16.6124 13.1119 16.5767 13.1352C16.541 13.1586 16.5009 13.1743 16.4588 13.1816C16.4168 13.1888 16.3737 13.1874 16.3322 13.1773C16.2907 13.1673 16.2518 13.1489 16.2177 13.1232C16.1836 13.0975 16.1552 13.0651 16.1341 13.028C16.113 12.9909 16.0998 12.9499 16.0952 12.9075C16.0906 12.865 16.0947 12.8221 16.1073 12.7814L17.9209 5.2738C17.9606 5.10259 17.9314 4.92265 17.8396 4.77276C17.7479 4.62287 17.6009 4.51501 17.4304 4.47243L11.7474 3.09932C11.5764 3.05878 11.3962 3.0874 11.2462 3.17896C11.0961 3.27052 10.9882 3.41762 10.946 3.58827L7.85616 16.3977C7.83568 16.4823 7.83208 16.5701 7.84557 16.6562C7.85907 16.7422 7.88939 16.8247 7.9348 16.899C7.98022 16.9733 8.03983 17.0379 8.11023 17.0891C8.18064 17.1403 8.26045 17.1772 8.3451 17.1975L14.0359 18.5722C14.1208 18.5926 14.2088 18.5962 14.295 18.5826C14.3812 18.569 14.4639 18.5386 14.5383 18.4931C14.6127 18.4475 14.6774 18.3877 14.7288 18.3171C14.7801 18.2465 14.8169 18.1665 14.8373 18.0817L15.2294 16.4118C15.237 16.3701 15.2529 16.3304 15.2763 16.2951C15.2997 16.2598 15.33 16.2296 15.3654 16.2064C15.4008 16.1832 15.4406 16.1674 15.4823 16.16C15.524 16.1526 15.5667 16.1538 15.6079 16.1634C15.6492 16.1731 15.688 16.191 15.7221 16.2161C15.7562 16.2412 15.7848 16.273 15.8062 16.3095C15.8277 16.3461 15.8414 16.3865 15.8467 16.4286C15.852 16.4706 15.8487 16.5132 15.8371 16.5539L15.445 18.2269C15.3757 18.5083 15.2139 18.7583 14.9856 18.9367C14.7573 19.1152 14.4757 19.2118 14.1859 19.2111Z" fill="white"/>
<path d="M10.1619 4.72617L10.3087 4.11881L18.2514 6.03911L18.1045 6.64646L10.1619 4.72617Z" fill="white"/>
<path d="M7.75464 15.6929L7.90148 15.0856L15.6179 16.9512L15.4711 17.5585L7.75464 15.6929Z" fill="white"/>
<path d="M15.2012 4.9302C15.1764 4.93025 15.1517 4.9271 15.1277 4.92083L13.5859 4.54904C13.5047 4.52957 13.4346 4.47864 13.3909 4.40745C13.3473 4.33626 13.3337 4.25065 13.3532 4.16945C13.3726 4.08824 13.4236 4.0181 13.4948 3.97445C13.5659 3.9308 13.6516 3.91722 13.7328 3.93669L15.2746 4.30848C15.3498 4.3256 15.4161 4.36996 15.4606 4.43303C15.5051 4.49609 15.5246 4.57339 15.5155 4.65003C15.5064 4.72667 15.4692 4.79722 15.4112 4.84808C15.3531 4.89895 15.2783 4.92653 15.2012 4.92552V4.9302Z" fill="white"/>
<path d="M11.3411 16.9913C11.281 16.9905 11.2227 17.012 11.1775 17.0516C11.1323 17.0912 11.1033 17.1462 11.0961 17.2059C11.0889 17.2656 11.1041 17.3258 11.1386 17.375C11.1732 17.4242 11.2247 17.4589 11.2833 17.4724C11.302 17.4747 11.3209 17.4747 11.3395 17.4724C11.3942 17.4726 11.4474 17.4543 11.4905 17.4206C11.5335 17.3869 11.564 17.3396 11.577 17.2865C11.5917 17.2236 11.581 17.1574 11.5475 17.1022C11.5139 17.047 11.46 17.0072 11.3973 16.9913C11.3786 16.9897 11.3598 16.9897 11.3411 16.9913Z" fill="white"/>
<path d="M7.45146 12.4206H7.41865L7.19058 12.3941C3.31183 11.9035 0.5 9.42601 0.5 6.48766C0.5 3.18689 4.10382 0.500031 8.53245 0.500031C10.4179 0.500031 12.2503 0.995224 13.6875 1.89501C13.7551 1.94009 13.8025 2.00977 13.8196 2.08924C13.8367 2.1687 13.8222 2.25171 13.7791 2.32063C13.736 2.38955 13.6677 2.43896 13.5888 2.45837C13.5098 2.47777 13.4264 2.46565 13.3563 2.42457C12.0175 1.59352 10.3023 1.12488 8.53245 1.12488C4.44905 1.12488 1.12485 3.53055 1.12485 6.48766C1.12485 9.10578 3.70704 11.3302 7.26713 11.7723L7.48114 11.7973C7.564 11.8015 7.64182 11.8384 7.69748 11.8999C7.75314 11.9614 7.78208 12.0425 7.77794 12.1254C7.7738 12.2082 7.73691 12.286 7.67539 12.3417C7.61387 12.3974 7.53275 12.4263 7.44989 12.4222L7.45146 12.4206Z" fill="white"/>
<path d="M3.1072 7.82484C3.04297 7.825 2.98024 7.80537 2.92756 7.7686C2.89399 7.74493 2.86542 7.71487 2.84347 7.68015C2.82153 7.64542 2.80665 7.60671 2.79969 7.56623C2.79273 7.52575 2.79381 7.48429 2.80289 7.44423C2.81196 7.40417 2.82885 7.36629 2.85258 7.33277C3.03271 7.07723 3.1293 6.77218 3.12907 6.45954C3.1298 6.1473 3.03315 5.8426 2.85258 5.58787C2.80812 5.52006 2.79177 5.43761 2.80699 5.35796C2.8222 5.27831 2.86779 5.20769 2.93412 5.16104C3.00045 5.11439 3.08232 5.09535 3.16242 5.10795C3.24253 5.12056 3.3146 5.16382 3.36339 5.22858C3.61753 5.58933 3.75394 6.01982 3.75394 6.4611C3.75394 6.90238 3.61753 7.33287 3.36339 7.69362C3.33434 7.73443 3.2959 7.76765 3.25131 7.79049C3.20672 7.81332 3.1573 7.8251 3.1072 7.82484Z" fill="white"/>
<path d="M4.32097 8.44804C4.263 8.44793 4.20621 8.43171 4.15694 8.40117C4.08657 8.35762 4.03636 8.28792 4.01732 8.20738C3.99829 8.12684 4.01198 8.04204 4.05541 7.97159C4.33631 7.51752 4.48511 6.99416 4.48511 6.46023C4.48511 5.9263 4.33631 5.40294 4.05541 4.94888C4.0117 4.87844 3.99776 4.79353 4.01665 4.71283C4.03555 4.63212 4.08573 4.56222 4.15616 4.51851C4.22659 4.4748 4.3115 4.46086 4.39221 4.47976C4.47292 4.49865 4.54282 4.54884 4.58653 4.61927C4.92856 5.17212 5.10975 5.80935 5.10975 6.45945C5.10975 7.10955 4.92856 7.74678 4.58653 8.29963C4.55858 8.34495 4.51951 8.38237 4.47303 8.40834C4.42655 8.43431 4.37421 8.44798 4.32097 8.44804Z" fill="white"/>
<path d="M5.58154 9.0917C5.52686 9.09137 5.47322 9.0767 5.42599 9.04914C5.37876 9.02159 5.33958 8.98212 5.31238 8.93468C5.28518 8.88724 5.27091 8.83349 5.271 8.77881C5.27108 8.72413 5.28551 8.67042 5.31286 8.62307C5.69752 7.96579 5.90027 7.21796 5.90027 6.4564C5.90027 5.69484 5.69752 4.94701 5.31286 4.28973C5.2755 4.21833 5.26719 4.13526 5.28964 4.05787C5.31209 3.98048 5.36358 3.91475 5.43334 3.87443C5.5031 3.8341 5.58575 3.82229 5.66402 3.84146C5.74229 3.86063 5.81012 3.9093 5.85335 3.97731C6.29339 4.73052 6.52521 5.5872 6.52507 6.45952C6.52562 7.33261 6.2932 8.19002 5.85179 8.9433C5.82342 8.9893 5.78361 9.02715 5.73625 9.05316C5.68888 9.07917 5.63558 9.09245 5.58154 9.0917Z" fill="white"/>
<path d="M6.89533 9.7729C6.8406 9.77328 6.78673 9.75928 6.73912 9.73229C6.70339 9.71201 6.67202 9.68488 6.64679 9.65246C6.62156 9.62004 6.60298 9.58297 6.59209 9.54336C6.58121 9.50375 6.57825 9.46238 6.58337 9.42162C6.5885 9.38086 6.60161 9.34151 6.62196 9.30583C7.11446 8.43809 7.37336 7.4574 7.37334 6.45964C7.37436 5.46244 7.11595 4.48213 6.62352 3.61501C6.60301 3.57931 6.58972 3.53993 6.58443 3.4991C6.57914 3.45827 6.58194 3.4168 6.59267 3.37706C6.61435 3.29679 6.66703 3.22842 6.73912 3.18699C6.77481 3.16647 6.8142 3.15319 6.85503 3.1479C6.89585 3.1426 6.93732 3.1454 6.97707 3.15614C7.05734 3.17782 7.12571 3.23049 7.16714 3.30258C7.71328 4.26505 7.99967 5.35302 7.99819 6.45964C7.99778 7.56572 7.71093 8.65284 7.16558 9.61513C7.13838 9.66287 7.09908 9.70259 7.05163 9.73029C7.00418 9.75799 6.95027 9.77269 6.89533 9.7729Z" fill="white"/>
</svg>
