<svg width="20" height="20" viewBox="0 0 20 20" fill="none" xmlns="http://www.w3.org/2000/svg">
<path d="M12.7 1.66663H9.455C7.985 1.66663 6.82 1.66663 5.90917 1.78996C4.97083 1.91663 4.21167 2.18329 3.61333 2.78413C3.01417 3.38496 2.74833 4.14746 2.6225 5.08913C2.5 6.00413 2.5 7.17329 2.5 8.64913V13.5141C2.5 14.7708 3.26667 15.8475 4.35583 16.2991C4.3 15.5408 4.3 14.4783 4.3 13.5933V9.41829C4.3 8.35079 4.3 7.42996 4.39833 6.69329C4.50417 5.90329 4.7425 5.14663 5.35417 4.53246C5.96583 3.91829 6.72 3.67913 7.50667 3.57246C8.24 3.47413 9.15667 3.47413 10.2208 3.47413H12.7792C13.8425 3.47413 14.7575 3.47413 15.4917 3.57246C15.2718 3.01104 14.8878 2.52891 14.3898 2.18895C13.8918 1.84898 13.303 1.66696 12.7 1.66663Z" fill="white" fill-opacity="0.6"/>
<path d="M5.5 9.49751C5.5 7.22585 5.5 6.09001 6.20333 5.38418C6.90583 4.67834 8.03667 4.67834 10.3 4.67834H12.7C14.9625 4.67834 16.0942 4.67834 16.7975 5.38418C17.5008 6.09001 17.5 7.22585 17.5 9.49751V13.5142C17.5 15.7858 17.5 16.9217 16.7975 17.6275C16.0942 18.3333 14.9625 18.3333 12.7 18.3333H10.3C8.0375 18.3333 6.90583 18.3333 6.20333 17.6275C5.5 16.9217 5.5 15.7858 5.5 13.5142V9.49751Z" fill="white" fill-opacity="0.6"/>
</svg>
