<svg width="31" height="30" viewBox="0 0 31 30" fill="none" xmlns="http://www.w3.org/2000/svg">
<path d="M19.55 2.5H14.6825C12.4775 2.5 10.73 2.5 9.36375 2.685C7.95625 2.875 6.8175 3.275 5.92 4.17625C5.02125 5.0775 4.6225 6.22125 4.43375 7.63375C4.25 9.00625 4.25 10.76 4.25 12.9737V20.2712C4.25 22.1562 5.4 23.7712 7.03375 24.4487C6.95 23.3113 6.95 21.7175 6.95 20.39V14.1275C6.95 12.5262 6.95 11.145 7.0975 10.04C7.25625 8.855 7.61375 7.72 8.53125 6.79875C9.44875 5.8775 10.58 5.51875 11.76 5.35875C12.86 5.21125 14.235 5.21125 15.8312 5.21125H19.6687C21.2637 5.21125 22.6362 5.21125 23.7375 5.35875C23.4076 4.51662 22.8317 3.79342 22.0847 3.28348C21.3377 2.77354 20.4544 2.50051 19.55 2.5Z" fill="#E97DE2"/>
<path d="M8.75 14.2462C8.75 10.8387 8.75 9.13496 9.805 8.07621C10.8587 7.01746 12.555 7.01746 15.95 7.01746H19.55C22.9437 7.01746 24.6412 7.01746 25.6962 8.07621C26.7512 9.13496 26.75 10.8387 26.75 14.2462V20.2712C26.75 23.6787 26.75 25.3825 25.6962 26.4412C24.6412 27.5 22.9437 27.5 19.55 27.5H15.95C12.5562 27.5 10.8587 27.5 9.805 26.4412C8.75 25.3825 8.75 23.6787 8.75 20.2712V14.2462Z" fill="#E97DE2"/>
</svg>
