<svg width="21" height="20" viewBox="0 0 21 20" fill="none" xmlns="http://www.w3.org/2000/svg">
<g clip-path="url(#clip0_234_142)">
<path d="M5.29528 20.0001C4.85778 19.6907 4.41559 19.387 3.98382 19.0699C3.6333 18.8126 3.29007 18.5443 2.95257 18.2704C2.30621 17.7454 2.30257 16.8365 2.95361 16.3146C3.58694 15.8068 4.23226 15.3146 4.87653 14.8204C5.53017 14.3188 6.30517 14.6407 6.42028 15.4579C6.42392 15.4834 6.42861 15.5089 6.43486 15.548H10.3208C9.73017 14.8422 9.31976 14.06 9.10257 13.1683C8.84944 13.2745 8.60986 13.387 8.36247 13.4771C5.15465 14.6459 1.58174 12.6381 0.943194 9.28548C0.59684 7.46673 1.04632 5.83965 2.26194 4.43288C2.29997 4.38861 2.33642 4.34017 2.3833 4.30683C2.50674 4.21725 2.64111 4.20736 2.75986 4.30788C2.88382 4.41308 2.91507 4.55163 2.81819 4.69017C2.73278 4.81204 2.62653 4.91881 2.53278 5.03496C0.157778 7.97975 1.82653 12.4631 5.54684 13.1344C8.27392 13.6266 10.913 11.835 11.4052 9.12194C11.7182 7.3959 11.2349 5.88913 10.0203 4.61881C9.92392 4.51829 9.82601 4.46933 9.68174 4.47506C9.3859 4.48704 9.08955 4.47871 8.72965 4.47871C9.71715 5.13548 10.3599 5.97871 10.6489 7.06933C10.9385 8.16308 10.8166 9.21777 10.2869 10.2188C9.38642 11.9188 7.44736 12.8245 5.57028 12.4282C3.73122 12.0402 2.28434 10.4287 2.14319 8.60788C2.05257 7.43913 2.3458 6.38183 3.08694 5.46413C3.82132 4.55579 4.78174 4.03808 5.91976 3.87298C5.87861 3.64225 5.84059 3.42871 5.79372 3.16569C5.44319 3.26048 5.08226 3.3334 4.74007 3.45735C4.43122 3.56933 4.14007 3.73131 3.84684 3.88183C3.63642 3.98965 3.46194 3.97246 3.3708 3.81413C3.27965 3.65527 3.34424 3.4886 3.54736 3.36673C4.20569 2.97194 4.91194 2.711 5.67549 2.61465C5.78799 2.60058 5.82913 2.55631 5.82965 2.44121C5.83069 2.25371 5.82444 2.05996 5.86715 1.88027C5.99319 1.35475 6.45049 1.02142 7.0208 1.02038C8.54788 1.01881 10.0744 1.01985 11.6015 1.01985C12.5239 1.01985 13.4468 1.01985 14.3692 1.01985C14.4453 1.01985 14.5218 1.01985 14.5937 1.01985C14.6234 0.883397 14.6385 0.767251 14.675 0.657876C14.8666 0.0849591 15.5661 -0.157749 16.0604 0.205792C16.7708 0.729751 17.4703 1.27038 18.152 1.83131C18.7229 2.30163 18.713 3.20944 18.1359 3.68183C17.4625 4.23236 16.7739 4.76569 16.0744 5.28288C15.5286 5.68652 14.7932 5.38652 14.6463 4.72506C14.6297 4.65006 14.6172 4.57454 14.601 4.49017H10.7135C11.3119 5.19954 11.7161 5.97975 11.938 6.87923C12.0036 6.84954 12.0599 6.82663 12.1145 6.80006C15.4218 5.19329 19.3687 7.14381 20.1005 10.7469C20.7234 13.8126 18.6666 16.8521 15.6036 17.3923C15.3508 17.4367 15.2206 17.5884 15.213 17.8475C15.1916 18.5537 14.714 19.0199 14.0067 19.023C13.6557 19.0245 13.3052 19.0251 12.9541 19.023C12.7161 19.0214 12.5838 18.9084 12.5869 18.7162C12.5901 18.5318 12.713 18.4282 12.9484 18.4251C13.2666 18.4209 13.5859 18.411 13.9031 18.4266C14.4015 18.4511 14.6593 18.1928 14.6172 17.7152C14.6114 17.6516 14.6166 17.587 14.6166 17.512C14.3354 17.4844 14.0656 17.4657 13.7984 17.4303C12.7984 17.2975 11.9078 16.9063 11.1057 16.2975C11.0073 16.223 10.863 16.173 10.7395 16.1725C9.37497 16.1636 8.0109 16.1672 6.64632 16.1667C6.11194 16.1667 5.9109 15.998 5.81715 15.4735C5.76767 15.1959 5.52132 15.0808 5.29736 15.2511C4.62497 15.7615 3.95621 16.2766 3.29684 16.8037C2.98226 17.0553 2.97601 17.5235 3.29007 17.7761C3.95257 18.3094 4.62757 18.8271 5.30569 19.3412C5.5208 19.5048 5.76663 19.3896 5.81611 19.1251C5.91924 18.5771 6.10205 18.424 6.65569 18.424C8.22132 18.424 9.78747 18.424 11.3531 18.424C11.6734 18.424 11.8062 18.512 11.8062 18.7214C11.8062 18.9329 11.6718 19.0235 11.3562 19.0235C9.79684 19.0235 8.23747 19.0235 6.67809 19.0235C6.60153 19.0235 6.52444 19.0235 6.46403 19.0235C6.40413 19.2105 6.36715 19.3824 6.29528 19.5376C6.1833 19.7792 5.95153 19.8912 5.72497 20.0021H5.29632L5.29528 20.0001ZM14.5843 15.6094C14.7453 15.5943 14.9073 15.5844 15.0677 15.5631C17.213 15.2761 18.6604 13.2636 18.2474 11.1443C17.6968 8.32142 14.302 7.15058 12.1265 9.036C12.0604 9.09329 12.0078 9.1886 11.9895 9.27454C11.8156 10.0844 11.502 10.8329 10.9994 11.4922C10.8609 11.674 10.8104 11.8506 10.8364 12.0646C10.8515 12.187 10.8573 12.3105 10.8765 12.4324C11.1645 14.2563 12.738 15.5995 14.5849 15.6094H14.5843ZM6.47757 4.44121C4.40465 4.44017 2.72392 6.10319 2.72028 8.1584C2.71715 10.2344 4.38799 11.9214 6.45361 11.9271C8.5109 11.9329 10.2052 10.2386 10.2078 8.17298C10.2099 6.13548 8.51767 4.44225 6.47757 4.44121ZM10.752 1.61725C9.55726 1.61725 8.36194 1.61725 7.16715 1.61725C7.08278 1.61725 6.99788 1.61725 6.91455 1.62663C6.62288 1.65735 6.42861 1.86308 6.42497 2.15683C6.41976 2.55267 6.41924 2.94902 6.42497 3.34538C6.42965 3.63548 6.63382 3.84381 6.9234 3.86725C7.00726 3.87402 7.09215 3.8735 7.17653 3.8735C9.5859 3.8735 11.9953 3.8735 14.4047 3.8735C14.9255 3.8735 15.1333 4.0485 15.2208 4.5584C15.2708 4.8485 15.5177 4.96152 15.7515 4.7834C16.4177 4.2761 17.0812 3.76517 17.7359 3.24277C18.0599 2.98392 18.0656 2.51673 17.7427 2.25735C17.0849 1.72923 16.4156 1.21517 15.7437 0.704751C15.5187 0.533917 15.2724 0.646417 15.2224 0.923501C15.1265 1.45475 14.9343 1.61673 14.3953 1.61673C13.1807 1.61673 11.9661 1.61673 10.752 1.61673V1.61725ZM12.0968 8.29017C13.2557 7.5386 14.4916 7.3136 15.8047 7.70475C17.1203 8.09694 18.0599 8.94433 18.5838 10.212C19.4932 12.4126 18.4672 14.9084 16.2797 15.8449C15.2057 16.3042 14.1047 16.3355 13.0208 15.9006C11.426 15.2605 10.5323 14.0443 10.2541 12.3501C10.0843 12.4839 9.94007 12.6167 9.77705 12.7199C9.65205 12.799 9.64215 12.8855 9.67184 13.0126C10.2828 15.6261 12.8099 17.2844 15.4645 16.8115C18.4604 16.2782 20.3343 13.2037 19.3614 10.3245C18.6703 8.27871 17.1984 7.11465 15.0437 6.85527C14.0349 6.73392 13.0849 6.95683 12.1916 7.43131C12.1375 7.45996 12.064 7.52402 12.064 7.57142C12.0625 7.80267 12.0828 8.03392 12.0974 8.29121L12.0968 8.29017Z" fill="white"/>
<path d="M14.2672 13.4381C14.2672 12.9022 14.2693 12.4292 14.2636 11.9563C14.2631 11.9126 14.2167 11.8579 14.1766 11.8287C14.1089 11.7803 14.0292 11.749 13.9552 11.7089C13.5709 11.4996 13.3683 11.1792 13.4115 10.7386C13.4547 10.2907 13.6839 9.96414 14.1105 9.7907C14.1578 9.77143 14.2068 9.75476 14.2688 9.73185C14.2688 9.65632 14.2641 9.57872 14.2698 9.50216C14.2823 9.32716 14.3927 9.21049 14.5448 9.20424C14.7047 9.19799 14.8469 9.31934 14.8354 9.50007C14.8235 9.68445 14.9047 9.73705 15.0594 9.78705C15.2099 9.83549 15.3537 9.92039 15.4828 10.0136C15.6172 10.1105 15.6292 10.2548 15.5386 10.3933C15.4537 10.5235 15.2938 10.5433 15.1443 10.4532C15.0776 10.4131 15.012 10.3719 14.9438 10.335C14.9224 10.3235 14.8943 10.3261 14.8433 10.3178C14.8433 10.6938 14.8375 11.0605 14.8506 11.4261C14.8521 11.4709 14.9495 11.5277 15.0131 11.5516C15.4188 11.7042 15.7193 11.9542 15.8256 12.3943C15.975 13.0105 15.6183 13.674 15.0073 13.8923C14.8844 13.936 14.8328 13.9839 14.8381 14.1209C14.8474 14.3792 14.7474 14.5042 14.561 14.5079C14.3672 14.5115 14.2745 14.386 14.2677 14.1141C14.2667 14.0699 14.2615 14.0256 14.2615 14.0235C13.9933 13.9152 13.7438 13.8313 13.5105 13.7152C13.2964 13.6084 13.2453 13.4469 13.3365 13.2902C13.4266 13.136 13.5881 13.1193 13.7927 13.2272C13.9328 13.3011 14.0828 13.3568 14.2677 13.4376L14.2672 13.4381ZM14.8417 12.1157V13.336C15.1547 13.1943 15.3037 12.9433 15.2849 12.6261C15.2698 12.3719 15.1349 12.2068 14.8417 12.1157ZM14.2573 10.3433C14.0313 10.4844 13.9636 10.6662 13.9787 10.8891C13.9907 11.0605 14.098 11.148 14.2573 11.2183V10.3433Z" fill="white"/>
<path d="M7.62915 7.91673C7.92707 8.13028 8.14009 8.39538 8.22186 8.7558C8.36821 9.40059 8.04269 10.0532 7.42342 10.286C7.24582 10.3527 7.1854 10.4298 7.1953 10.6141C7.20675 10.835 7.07707 10.962 6.88853 10.9553C6.70623 10.949 6.62394 10.837 6.60259 10.6704C6.59217 10.5881 6.59373 10.5042 6.58957 10.4105H6.31925C6.24998 10.8391 6.18175 10.9506 5.99321 10.949C5.79478 10.9475 5.71144 10.8094 5.68228 10.4329C5.33436 10.3136 5.30884 10.2782 5.30884 9.90788C5.30884 8.73913 5.30884 7.56986 5.30884 6.40111C5.30884 6.06621 5.35623 6.00475 5.6828 5.92403C5.69894 5.69798 5.66353 5.39382 6.0078 5.40423C6.32342 5.41361 6.29478 5.69798 6.30155 5.9334H6.58696C6.59269 5.84017 6.59321 5.75632 6.60467 5.67403C6.62811 5.50475 6.75103 5.38705 6.90207 5.39694C7.06457 5.40788 7.20311 5.50892 7.18644 5.66048C7.15415 5.95788 7.31613 6.09434 7.51925 6.26257C7.96561 6.6334 8.03748 7.27142 7.72863 7.76309C7.69842 7.81153 7.66613 7.85892 7.62863 7.91621L7.62915 7.91673ZM5.92446 9.79017C6.2854 9.79017 6.63384 9.7985 6.98228 9.78809C7.34686 9.77663 7.64113 9.4709 7.66925 9.09486C7.69478 8.75528 7.43853 8.38184 7.09425 8.34798C6.71144 8.311 6.32238 8.33965 5.92446 8.33965V9.79017ZM5.92186 7.71778C6.22446 7.71778 6.51561 7.73236 6.80415 7.71361C7.08488 7.69538 7.31248 7.42871 7.32238 7.14746C7.33228 6.86934 7.11144 6.57611 6.83696 6.55528C6.53644 6.53236 6.2328 6.55007 5.92186 6.55007V7.71725V7.71778Z" fill="white"/>
</g>
<defs>
<clipPath id="clip0_234_142">
<rect width="20" height="20" fill="white" transform="translate(0.5 6.10352e-05)"/>
</clipPath>
</defs>
</svg>
