<svg width="21" height="24" viewBox="0 0 21 24" fill="none" xmlns="http://www.w3.org/2000/svg">
<path d="M11.5208 10.6825C13.4041 10.6983 14.9946 10.8091 16.2924 11.0148C17.5901 11.2206 18.6583 11.6558 19.4971 12.3205C20.3359 12.9852 20.7553 13.9585 20.7553 15.2404C20.7553 17.4718 19.8294 19.0227 17.9778 19.8932C16.1262 20.7636 13.9739 21.2305 11.5208 21.2938V24H8.69591V21.2226C6.43281 21.0168 4.45457 20.4471 2.76119 19.5134C1.08365 18.5638 0.244873 17.0524 0.244873 14.9792L3.4971 14.8843C3.4971 16.9575 5.23004 18.1523 8.69591 18.4688V13.4837C6.87593 13.452 5.36456 13.3096 4.16179 13.0564C2.95902 12.8032 2.00155 12.3284 1.28938 11.632C0.593043 10.9357 0.244873 9.93867 0.244873 8.64095C0.244873 6.56776 1.07573 5.10386 2.73746 4.24926C4.39918 3.39466 6.38533 2.88823 8.69591 2.72997V0H11.5208V2.70623C13.8472 2.81701 15.9679 3.33136 17.8829 4.24926C19.7978 5.15134 20.7553 6.74184 20.7553 9.02077H17.503C17.503 7.84965 16.8621 7.00297 15.5802 6.48071C14.2983 5.95846 12.9452 5.64194 11.5208 5.53116V10.6825ZM3.3784 8.56973C3.3784 9.85163 5.15091 10.548 8.69591 10.6588V5.57863C7.25575 5.72107 6.00551 6.02176 4.94517 6.48071C3.90066 6.93966 3.3784 7.636 3.3784 8.56973ZM17.6217 15.3116C17.6217 14.5678 17.0362 14.0851 15.8651 13.8635C14.7098 13.6419 13.2617 13.5232 11.5208 13.5074V18.5401C13.23 18.4926 14.6702 18.2235 15.8413 17.7329C17.0124 17.2423 17.6059 16.4431 17.6217 15.3353V15.3116Z" fill="white" fill-opacity="0.5"/>
</svg>
