<svg width="16" height="16" viewBox="0 0 16 16" fill="none" xmlns="http://www.w3.org/2000/svg">
  <path
    d="M3.7244 11.6237C3.89182 11.6237 4.05594 11.5512 4.15058 11.4187C4.29529 11.2154 4.2219 10.9499 3.98719 10.8244C2.678 10.1274 1.67433 9.11392 1.0855 7.89297C0.970097 7.64525 0.970097 7.35557 1.08745 7.1028C2.22983 4.72185 4.94359 3.18073 8.00001 3.18073C9.43584 3.18073 10.821 3.52399 12.0068 4.17306C12.2409 4.30034 12.549 4.24161 12.697 4.03998C12.845 3.83845 12.7757 3.57176 12.5429 3.44395C11.1965 2.70672 9.62597 2.31685 8.00001 2.31685C4.53805 2.31685 1.461 4.06708 0.161818 6.7762C-0.0535922 7.23757 -0.0535923 7.76273 0.159743 8.22061C0.832718 9.6143 1.97376 10.7673 3.46234 11.5598C3.5444 11.603 3.63501 11.6237 3.7244 11.6237Z"
    fill="currentColor" />
  <path
    d="M12.277 3.38C12.1097 3.38 11.9456 3.45253 11.851 3.58507C11.7063 3.78844 11.7797 4.05405 12.0143 4.17958C13.323 4.87677 14.3263 5.89063 14.9149 7.11199C15.0303 7.3598 15.0303 7.64958 14.913 7.90243C13.771 10.2842 11.0583 11.8258 8.00304 11.8258C6.56776 11.8258 5.18313 11.4825 3.99778 10.8332C3.76377 10.7058 3.45579 10.7646 3.30784 10.9663C3.1599 11.1679 3.22917 11.4347 3.46188 11.5625C4.80777 12.3 6.3777 12.69 8.00304 12.69C11.4637 12.69 14.5396 10.9392 15.8382 8.22914C16.0536 7.76762 16.0536 7.24228 15.8403 6.78424C15.1676 5.39008 14.027 4.23665 12.539 3.44392C12.457 3.40071 12.3664 3.38 12.277 3.38Z"
    fill="currentColor" />
  <path
    d="M6.46575 9.25682C6.59238 9.25682 6.71914 9.21539 6.81646 9.13303C7.01331 8.96546 7.01588 8.69243 6.82257 8.52191C6.50641 8.24436 6.3324 7.88149 6.3324 7.50027C6.3324 6.70662 7.0806 6.0605 7.99963 6.0605C8.44108 6.0605 8.86128 6.21077 9.18268 6.4838C9.3788 6.65136 9.69557 6.64957 9.89034 6.47852C10.0844 6.30864 10.0817 6.03509 9.88436 5.86752C9.37477 5.43505 8.70521 5.19662 7.99963 5.19662C6.52839 5.19662 5.33203 6.22976 5.33203 7.50027C5.33203 8.10959 5.60814 8.68779 6.10954 9.12785C6.20699 9.21359 6.33631 9.25682 6.46575 9.25682Z"
    fill="currentColor" />
  <path
    d="M9.56698 5.77C9.44041 5.77 9.3137 5.81144 9.21643 5.8938C9.01966 6.06136 9.01709 6.33436 9.21032 6.50488C9.52634 6.78241 9.70027 7.14526 9.70027 7.52647C9.70027 8.32008 8.9524 8.96616 8.03378 8.96616C7.59253 8.96616 7.17251 8.8159 6.85126 8.54289C6.65522 8.37533 6.3386 8.37712 6.14391 8.54817C5.94997 8.71804 5.95267 8.99157 6.14989 9.15913C6.65925 9.59158 7.32852 9.83 8.03378 9.83C9.50437 9.83 10.7002 8.79691 10.7002 7.52647C10.7002 6.91718 10.4242 6.339 9.92303 5.89897C9.82562 5.81323 9.69636 5.77 9.56698 5.77Z"
    fill="currentColor" />
</svg>
