<svg width="16" height="16" viewBox="0 0 16 16" fill="none" xmlns="http://www.w3.org/2000/svg">
  <path
    d="M7.99979 12.6834C11.4617 12.6834 14.5388 10.9332 15.838 8.22405C16.0534 7.76269 16.0534 7.23753 15.8399 6.77964C15.4172 5.88813 14.7629 5.06221 13.9473 4.38899C13.7479 4.22427 13.4305 4.2306 13.2404 4.40281C13.0496 4.57501 13.0563 4.84856 13.2563 5.01328C13.9713 5.60362 14.5442 6.32693 14.913 7.10497C15.0297 7.35553 15.0297 7.64521 14.9116 7.89746C13.7698 10.2783 11.0562 11.8195 7.99979 11.8195C7.1401 11.8195 6.29384 11.6939 5.48556 11.4468C5.22338 11.368 4.93935 11.4849 4.84666 11.7101C4.75458 11.9353 4.89062 12.1818 5.15146 12.2618C6.06769 12.5411 7.02604 12.6834 7.99979 12.6834Z"
    fill="currentColor" />
  <path
    d="M8.20568 9.79223C8.22107 9.79223 8.23645 9.79171 8.25172 9.79055C9.52684 9.69026 10.5359 8.81836 10.652 7.71773C10.6773 7.47993 10.4738 7.27029 10.1991 7.24835C9.92836 7.22473 9.68095 7.40158 9.65555 7.63949C9.58485 8.31387 8.94203 8.86845 8.16111 8.93004C7.88562 8.95197 7.68291 9.16162 7.70818 9.39942C7.73224 9.62403 7.95034 9.79223 8.20568 9.79223Z"
    fill="currentColor" />
  <path
    d="M1.16376 13.8354C1.29186 13.8354 1.41983 13.7933 1.51728 13.7086L15.1889 1.90227C15.3843 1.73354 15.3843 1.45988 15.1889 1.29116C14.9935 1.12243 14.6768 1.12243 14.4814 1.29116L0.809624 13.0976C0.61424 13.2664 0.61424 13.5399 0.809624 13.7086C0.907682 13.7933 1.03578 13.8354 1.16376 13.8354Z"
    fill="currentColor" />
  <path
    d="M3.7244 11.6237C3.89182 11.6237 4.05594 11.5512 4.15058 11.4187C4.29529 11.2154 4.2219 10.9499 3.98719 10.8244C2.678 10.1274 1.67433 9.11392 1.0855 7.89297C0.970097 7.64525 0.970097 7.35557 1.08745 7.1028C2.22983 4.72185 4.94359 3.18073 8.00001 3.18073C9.43584 3.18073 10.821 3.52399 12.0068 4.17306C12.2409 4.30034 12.549 4.24161 12.697 4.03998C12.845 3.83845 12.7757 3.57176 12.5429 3.44395C11.1965 2.70672 9.62597 2.31685 8.00001 2.31685C4.53805 2.31685 1.461 4.06708 0.161818 6.7762C-0.0535922 7.23757 -0.0535923 7.76273 0.159743 8.22061C0.832718 9.6143 1.97376 10.7673 3.46234 11.5598C3.5444 11.603 3.63501 11.6237 3.7244 11.6237Z"
    fill="currentColor" />
  <path
    d="M6.46575 9.25682C6.59238 9.25682 6.71914 9.21539 6.81646 9.13303C7.01331 8.96546 7.01588 8.69243 6.82257 8.52191C6.50641 8.24436 6.3324 7.88149 6.3324 7.50027C6.3324 6.70662 7.0806 6.0605 7.99963 6.0605C8.44108 6.0605 8.86128 6.21077 9.18268 6.4838C9.3788 6.65136 9.69557 6.64957 9.89034 6.47852C10.0844 6.30864 10.0817 6.03509 9.88436 5.86752C9.37477 5.43505 8.70521 5.19662 7.99963 5.19662C6.52839 5.19662 5.33203 6.22976 5.33203 7.50027C5.33203 8.10959 5.60814 8.68779 6.10954 9.12785C6.20699 9.21359 6.33631 9.25682 6.46575 9.25682Z"
    fill="currentColor" />
</svg>
