<svg width="24" height="24" viewBox="0 0 24 24" fill="none" xmlns="http://www.w3.org/2000/svg">
  <path
    d="M12.0043 21C12.2968 21 12.5275 20.9171 12.6965 20.7514C12.8654 20.5914 12.9499 20.38 12.9499 20.1171V18.5229L14.1002 19.1829C14.3082 19.3314 14.5292 19.4 14.7631 19.3886C15.0036 19.3771 15.2018 19.2743 15.3578 19.08C15.4878 18.9086 15.53 18.7229 15.4845 18.5229C15.4455 18.3229 15.309 18.1571 15.0751 18.0257L12.9499 16.9029V15.9L12.716 13.1143L15.3675 14.6743L16.3619 15.18L16.4106 17.3486C16.4171 17.5943 16.5081 17.7857 16.6836 17.9229C16.859 18.0543 17.0638 18.1114 17.2977 18.0943C17.5707 18.0771 17.7721 17.9829 17.9021 17.8114C18.0321 17.6343 18.0743 17.4286 18.0289 17.1943L17.9509 15.9857L19.5204 16.7829C19.7803 16.9143 20.0338 16.9543 20.2807 16.9029C20.5277 16.8514 20.7194 16.7171 20.8559 16.5C20.9924 16.2829 21.0249 16.0657 20.9534 15.8486C20.8884 15.6314 20.7292 15.46 20.4757 15.3343L18.9062 14.5286L20.1345 13.9886C20.3815 13.9029 20.5602 13.7686 20.6707 13.5857C20.7812 13.3971 20.7747 13.1943 20.6512 12.9771C20.5472 12.7886 20.3847 12.6629 20.1638 12.6C19.9493 12.5371 19.7218 12.5629 19.4814 12.6771L17.3075 13.7229L16.3131 13.2171L13.4373 12L16.3229 10.7743L17.3075 10.2686L19.4716 11.3229C19.7186 11.4371 19.9526 11.46 20.1735 11.3914C20.3945 11.3229 20.557 11.1943 20.6609 11.0057C20.7779 10.7943 20.7812 10.5971 20.6707 10.4143C20.5667 10.2314 20.388 10.0943 20.1345 10.0029L18.9062 9.46286L20.4757 8.66571C20.7357 8.52857 20.8981 8.35714 20.9631 8.15143C21.0346 7.94 21.0021 7.72286 20.8657 7.5C20.7227 7.28286 20.5277 7.14857 20.2807 7.09714C20.0338 7.04 19.7836 7.07714 19.5301 7.20857L17.9509 8.00571L18.0289 6.80571C18.0743 6.56571 18.0321 6.36 17.9021 6.18857C17.7721 6.01143 17.5739 5.91714 17.3075 5.90571C17.067 5.88857 16.859 5.94571 16.6836 6.07714C16.5081 6.20857 16.4171 6.39714 16.4106 6.64286L16.3521 8.82L15.3675 9.32571L12.716 10.8943L12.9499 8.09143V7.08857L15.0751 5.96571C15.309 5.83429 15.4455 5.67143 15.4845 5.47714C15.53 5.27714 15.4878 5.08857 15.3578 4.91143C15.2018 4.71714 15.0036 4.61429 14.7631 4.60286C14.5292 4.58571 14.3082 4.65429 14.1002 4.80857L12.9499 5.47714V3.87429C12.9499 3.61714 12.8654 3.40857 12.6965 3.24857C12.5275 3.08286 12.2968 3 12.0043 3C11.7184 3 11.4876 3.08286 11.3122 3.24857C11.1432 3.40857 11.0587 3.61714 11.0587 3.87429V5.47714L9.89865 4.80857C9.67769 4.65429 9.45347 4.58571 9.22601 4.60286C8.99855 4.61429 8.80358 4.71714 8.6411 4.91143C8.51112 5.08857 8.46563 5.27714 8.50462 5.47714C8.55012 5.67143 8.69309 5.83143 8.93356 5.95714L11.0587 7.08857V8.09143L11.2829 10.8943L8.63135 9.32571L7.64676 8.81143L7.58827 6.64286C7.58177 6.39714 7.49078 6.20857 7.31531 6.07714C7.13984 5.94571 6.93512 5.88857 6.70116 5.90571C6.4282 5.91714 6.22674 6.01143 6.09676 6.18857C5.97328 6.36 5.93103 6.56286 5.97003 6.79714L6.05776 8.00571L4.47851 7.20857C4.22505 7.08286 3.9716 7.04571 3.71814 7.09714C3.47117 7.14857 3.27946 7.28286 3.14298 7.5C3 7.72286 2.96426 7.94 3.03574 8.15143C3.10723 8.36286 3.26971 8.53429 3.52317 8.66571L5.09267 9.46286L3.87411 10.0029C3.62065 10.0943 3.43868 10.2314 3.3282 10.4143C3.22421 10.5971 3.23071 10.7971 3.34769 11.0143C3.45168 11.2029 3.6109 11.3314 3.82537 11.4C4.04633 11.4629 4.2803 11.4371 4.52726 11.3229L6.68166 10.2771L7.67601 10.7743L10.5615 12L7.67601 13.2171L6.69141 13.7229L4.52726 12.6686C4.2803 12.5543 4.04633 12.5314 3.82537 12.6C3.6109 12.6686 3.45168 12.7943 3.34769 12.9771C3.23071 13.2 3.22421 13.4029 3.3282 13.5857C3.43868 13.7629 3.62065 13.8971 3.87411 13.9886L5.10242 14.5286L3.53292 15.3343C3.27946 15.46 3.11373 15.6314 3.03574 15.8486C2.96426 16.0657 3 16.28 3.14298 16.4914C3.28595 16.72 3.48092 16.86 3.72788 16.9114C3.97484 16.9571 4.22505 16.9143 4.47851 16.7829L6.05776 15.9943L5.97003 17.1857C5.92453 17.4257 5.96678 17.6343 6.09676 17.8114C6.22674 17.9829 6.4282 18.0771 6.70116 18.0943C6.93512 18.1057 7.13984 18.0457 7.31531 17.9143C7.49078 17.7829 7.58177 17.5943 7.58827 17.3486L7.64676 15.1714L8.63135 14.6743L11.2829 13.1057L11.0587 15.9V16.9029L8.93356 18.0257C8.69309 18.1571 8.55012 18.3229 8.50462 18.5229C8.46563 18.7229 8.51112 18.9086 8.6411 19.08C8.79708 19.2743 8.9888 19.3771 9.21626 19.3886C9.45022 19.4 9.67769 19.3314 9.89865 19.1829L11.0587 18.5143V20.1171C11.0587 20.3743 11.1432 20.5857 11.3122 20.7514C11.4876 20.9171 11.7184 21 12.0043 21Z"
    fill="currentColor" />
</svg>
