<svg width="20" height="20" viewBox="0 0 20 20" fill="none" xmlns="http://www.w3.org/2000/svg">
  <path
    d="M10.0001 4C11.1963 4.00003 12.3652 4.3576 13.3567 5.0268C14.3481 5.696 15.117 6.64627 15.5644 7.75562C16.0119 8.86496 16.1175 10.0827 15.8678 11.2526C15.6181 12.4224 15.0244 13.4909 14.163 14.3208C13.3016 15.1508 12.2117 15.7043 11.0334 15.9103C9.85514 16.1164 8.64214 15.9655 7.55021 15.4771C6.45828 14.9887 5.53725 14.1851 4.90539 13.1694C4.27352 12.1537 3.95967 10.9724 4.00413 9.777C4.00829 9.67821 3.99288 9.57958 3.95877 9.48677C3.92467 9.39396 3.87255 9.30881 3.80542 9.23622C3.73829 9.16363 3.65747 9.10503 3.5676 9.06379C3.47774 9.02256 3.38061 8.99949 3.28179 8.99593C3.18298 8.99237 3.08445 9.00839 2.99185 9.04305C2.89925 9.07772 2.81442 9.13035 2.74224 9.19792C2.67005 9.2655 2.61195 9.34667 2.57125 9.43679C2.53056 9.5269 2.50809 9.62417 2.50513 9.723C2.4412 11.451 2.97631 13.1479 4.01988 14.5267C5.06344 15.9054 6.55136 16.8812 8.23175 17.2889C9.91215 17.6965 11.6818 17.511 13.2411 16.7638C14.8005 16.0165 16.0537 14.7534 16.7887 13.1883C17.5237 11.6231 17.6953 9.85208 17.2745 8.17494C16.8536 6.49779 15.8662 5.01757 14.4794 3.98485C13.0925 2.95213 11.3914 2.43034 9.66396 2.50782C7.93656 2.58529 6.28898 3.25727 5.00013 4.41V3.25C5.00013 3.05109 4.92111 2.86032 4.78046 2.71967C4.63981 2.57902 4.44904 2.5 4.25013 2.5C4.05122 2.5 3.86045 2.57902 3.7198 2.71967C3.57915 2.86032 3.50013 3.05109 3.50013 3.25V6.25C3.50013 6.664 3.83613 7 4.25013 7H7.25013C7.44904 7 7.63981 6.92098 7.78046 6.78033C7.92111 6.63968 8.00013 6.44891 8.00013 6.25C8.00013 6.05109 7.92111 5.86032 7.78046 5.71967C7.63981 5.57902 7.44904 5.5 7.25013 5.5H6.03113C7.12631 4.53168 8.53826 3.99806 10.0001 4ZM10.5001 6.25C10.5001 6.05109 10.4211 5.86032 10.2805 5.71967C10.1398 5.57902 9.94904 5.5 9.75013 5.5C9.55122 5.5 9.36045 5.57902 9.2198 5.71967C9.07915 5.86032 9.00013 6.05109 9.00013 6.25V10.25C9.00013 10.664 9.33613 11 9.75013 11H12.7501C12.949 11 13.1398 10.921 13.2805 10.7803C13.4211 10.6397 13.5001 10.4489 13.5001 10.25C13.5001 10.0511 13.4211 9.86032 13.2805 9.71967C13.1398 9.57902 12.949 9.5 12.7501 9.5H10.5001V6.25Z"
    fill="currentColor" />
</svg>
