<svg width="44" height="44" viewBox="0 0 44 44" fill="none" xmlns="http://www.w3.org/2000/svg">
  <path
    d="M43.9983 0L43.9023 2.59071C43.8418 4.23221 43.5085 8.63571 41.7328 14.0637C41.0705 16.0893 40.2827 18.0401 39.3728 19.9134C38.4383 18.2157 37.3974 16.5879 36.2524 15.0342C37.829 11.0748 38.5332 7.5392 38.848 5.15033C36.5039 5.4591 33.0561 6.14319 29.1862 7.65812C27.7045 6.47706 26.1503 5.39527 24.5273 4.41441C26.2643 3.59339 28.0684 2.87712 29.9346 2.26612C35.3626 0.490975 39.7667 0.157658 41.4082 0.0965585L43.9983 0Z"
    fill="currentColor" />
  <path
    d="M43.903 41.4094C43.8425 39.7674 43.5091 35.3639 41.7335 29.9359C41.0679 27.9005 40.2758 25.941 39.3604 24.06C39.0216 23.3622 38.6654 22.676 38.2912 22.0006C38.2306 21.8915 38.1701 21.7824 38.109 21.6738C38.0959 21.6493 38.0822 21.6253 38.0675 21.6007C38.0217 21.5189 37.9753 21.4376 37.9284 21.3569C37.9011 21.3089 37.8733 21.2609 37.8449 21.2123C37.7822 21.1043 37.72 20.9979 37.6567 20.8905C37.5853 20.7688 37.5122 20.6472 37.4396 20.526C37.4391 20.5255 37.4391 20.5244 37.438 20.5239C37.367 20.406 37.2956 20.2893 37.2236 20.1725C37.2187 20.1638 37.2132 20.1551 37.2077 20.1464C37.1532 20.0591 37.0997 19.9723 37.0446 19.8856C37.0103 19.8294 36.9743 19.7738 36.9388 19.717C36.8051 19.5059 36.6693 19.2953 36.5318 19.0864C36.3262 18.7744 36.1172 18.4639 35.9028 18.1574C35.815 18.0297 35.725 17.9021 35.6344 17.7755C35.6061 17.7351 35.5772 17.6942 35.5477 17.6538C35.5117 17.6036 35.4762 17.554 35.4402 17.5044C35.3868 17.4302 35.3328 17.356 35.2788 17.2823C34.2237 15.841 33.0797 14.4636 31.8474 13.151C31.6865 12.9792 31.5233 12.8085 31.3591 12.6388C31.1895 12.4746 31.0187 12.3115 30.8469 12.1505C30.045 11.3977 29.2185 10.6776 28.368 9.9908C27.8268 9.55329 27.2759 9.12941 26.7151 8.71863C26.5858 8.62371 26.4559 8.52933 26.3261 8.43714C26.2465 8.37931 26.1668 8.32258 26.0861 8.26584C25.9944 8.20093 25.9033 8.1371 25.8111 8.07382C25.75 8.03072 25.6878 7.98762 25.6267 7.94616C25.6262 7.94562 25.6251 7.94562 25.6245 7.94453C25.5269 7.87688 25.4287 7.81033 25.3305 7.74432C25.2296 7.67558 25.1276 7.60794 25.0261 7.54084C24.9923 7.51792 24.9579 7.49556 24.9241 7.47319C24.8417 7.41864 24.7583 7.36463 24.6753 7.31062C24.5777 7.24734 24.48 7.18406 24.3818 7.12242C24.3071 7.07441 24.2318 7.02695 24.1571 6.98003C24.0747 6.92712 23.9912 6.87529 23.9083 6.82401C23.8298 6.77601 23.7518 6.72691 23.6732 6.67945C23.6236 6.64944 23.575 6.61889 23.5254 6.58944C23.4637 6.55179 23.4015 6.5147 23.3388 6.47651C23.18 6.38104 23.0197 6.28667 22.8593 6.19393C22.7513 6.13065 22.6432 6.069 22.5341 6.00681C22.515 5.99536 22.4949 5.98335 22.4752 5.97244C22.3978 5.92826 22.3197 5.88461 22.2412 5.84042C22.161 5.79515 22.0803 5.75041 22.0001 5.70568H21.9995C19.5021 4.32549 16.8541 3.17661 14.0637 2.26394C8.63571 0.490975 4.23221 0.157658 2.59071 0.0965585L0 0L0.096013 2.59071C0.157112 4.23221 0.490975 8.63571 2.26612 14.0637C3.17934 16.8541 4.32877 19.5037 5.70841 22.0001C4.32822 24.4969 3.17879 27.1455 2.26612 29.9353C0.490975 35.3639 0.157658 39.7674 0.096013 41.4094L0 43.9996L2.59071 43.9036C4.23221 43.8425 8.63626 43.5086 14.0637 41.7335C16.8535 40.8208 19.5037 39.6714 22.0001 38.2917C22.1403 38.2132 22.2799 38.1351 22.4196 38.0566C22.437 38.0468 22.4539 38.0375 22.4703 38.0277C22.6121 37.9464 22.7534 37.8657 22.8936 37.7838C22.9411 37.7565 22.9891 37.7287 23.036 37.7004C23.2968 37.5471 23.5559 37.3916 23.8129 37.2328C24.0114 37.1106 24.2084 36.9868 24.4047 36.8613C24.5029 36.7986 24.6011 36.7353 24.6988 36.6715C24.7877 36.6137 24.8761 36.5558 24.9645 36.4975C25.558 36.1063 26.1417 35.6999 26.7151 35.2799C26.7151 35.2793 26.7156 35.2793 26.7156 35.2793C27.4412 34.7485 28.1498 34.1948 28.8432 33.6182C29.5273 33.0503 30.195 32.46 30.8469 31.8485C31.0187 31.6876 31.1895 31.5244 31.3591 31.3602C31.5233 31.1906 31.6865 31.0198 31.8474 30.848C33.0797 29.536 34.2243 28.1574 35.2788 26.7167C35.611 27.4248 35.9148 28.1258 36.1914 28.8137C37.8116 32.8348 38.5296 36.4298 38.8482 38.8498C36.4249 38.5307 32.8195 37.81 28.7897 36.1838C27.8443 36.9028 26.8705 37.5825 25.8695 38.2213C25.2623 38.6092 24.6448 38.9818 24.018 39.3408C25.9115 40.2649 27.8852 41.0635 29.9359 41.7335C35.3633 43.5091 39.7674 43.8425 41.4089 43.9036L43.999 43.9996L43.903 41.4094ZM5.15033 5.15033C7.98381 5.52347 12.431 6.44596 17.284 8.71972C15.8427 9.77477 14.4647 10.9193 13.1521 12.1516C12.9803 12.3131 12.8095 12.4757 12.6399 12.6399C12.4762 12.8095 12.3131 12.9803 12.1516 13.1521C11.4015 13.9513 10.6836 14.7751 9.99844 15.6223C9.5582 16.1662 9.13214 16.7204 8.72027 17.2834C6.44542 12.431 5.52347 7.98381 5.15033 5.15033ZM27.9561 27.9561C26.7052 29.1623 25.4238 30.2375 24.1314 31.1971C23.4223 31.7236 22.7109 32.2145 22.0006 32.6728C19.9925 31.3793 17.9806 29.8246 16.0445 27.9561C14.7244 26.5869 13.5602 25.181 12.5341 23.7648C12.0747 24.498 11.6487 25.2301 11.2542 25.9562C10.8058 26.7843 10.3983 27.6054 10.0284 28.4138C10.7044 29.2485 11.4124 30.0602 12.1516 30.8474C12.3131 31.0193 12.4762 31.19 12.6399 31.3597C12.8095 31.5239 12.9803 31.6865 13.1521 31.8479C14.4641 33.0803 15.8427 34.2243 17.2845 35.2793C12.4315 37.5547 7.98381 38.4761 5.15033 38.8492C5.52347 36.0163 6.44596 31.5692 8.71972 26.7167H8.72027C8.72627 26.7025 8.73282 26.6894 8.73882 26.6752C8.80701 26.5307 8.87574 26.3872 8.94557 26.2421C9.20906 25.6977 9.49001 25.1483 9.7895 24.5968C9.84787 24.4893 9.90734 24.3813 9.9668 24.2738C10.0257 24.1674 10.0857 24.06 10.1463 23.9536C10.1485 23.9503 10.1496 23.9476 10.1512 23.9449C10.1992 23.8603 10.2472 23.7763 10.2963 23.6917C10.4949 23.3459 10.7022 22.9989 10.9166 22.6514C10.9842 22.5429 11.0513 22.4343 11.12 22.3263C11.1882 22.2177 11.257 22.1097 11.3279 22.0012C11.7212 21.3896 12.1385 20.7792 12.5821 20.1709C13.5962 18.7771 14.7445 17.3931 16.044 16.0451C17.9801 14.1777 19.9914 12.623 21.9995 11.3284C22.5783 11.7005 23.1577 12.096 23.7359 12.5139C25.1619 13.5444 26.5781 14.7156 27.9556 16.0445C29.8229 17.9806 31.3777 19.9931 32.6722 22.0006C31.3782 24.0087 29.8235 26.0195 27.9556 27.9561H27.9561Z"
    fill="currentColor" />
</svg>
