<svg width="27" height="21" viewBox="0 0 27 21" fill="none" xmlns="http://www.w3.org/2000/svg">
<path d="M8.5 10C9.82608 10 11.0979 9.47322 12.0355 8.53553C12.9732 7.59785 13.5 6.32608 13.5 5C13.5 3.67392 12.9732 2.40215 12.0355 1.46447C11.0979 0.526784 9.82608 0 8.5 0C7.17392 0 5.90215 0.526784 4.96447 1.46447C4.02678 2.40215 3.5 3.67392 3.5 5C3.5 6.32608 4.02678 7.59785 4.96447 8.53553C5.90215 9.47322 7.17392 10 8.5 10ZM19.75 10C20.7446 10 21.6984 9.60491 22.4017 8.90165C23.1049 8.19839 23.5 7.24456 23.5 6.25C23.5 5.25544 23.1049 4.30161 22.4017 3.59835C21.6984 2.89509 20.7446 2.5 19.75 2.5C18.7554 2.5 17.8016 2.89509 17.0983 3.59835C16.3951 4.30161 16 5.25544 16 6.25C16 7.24456 16.3951 8.19839 17.0983 8.90165C17.8016 9.60491 18.7554 10 19.75 10ZM2.71875 11.875C2.09715 11.875 1.50101 12.1219 1.06147 12.5615C0.62193 13.001 0.375 13.5971 0.375 14.2188V15C0.375 15 0.375 20.625 8.5 20.625C16.625 20.625 16.625 15 16.625 15V14.2188C16.625 13.5971 16.3781 13.001 15.9385 12.5615C15.499 12.1219 14.9029 11.875 14.2812 11.875H2.71875ZM16.4212 18.8056C17.2812 19.1544 18.3706 19.375 19.7494 19.375C26.3119 19.375 26.3119 14.375 26.3119 14.375V14.2188C26.3119 13.5973 26.065 13.0012 25.6256 12.5617C25.1862 12.1222 24.5902 11.8752 23.9688 11.875H17.0044C17.5663 12.5265 17.8749 13.3584 17.8737 14.2188V15.0281L17.8731 15.0638L17.8694 15.1575C17.866 15.2296 17.8587 15.3192 17.8475 15.4262C17.8162 15.7053 17.7661 15.982 17.6975 16.2544C17.4605 17.1867 17.0252 18.0569 16.4212 18.8056Z" fill="white" fill-opacity="0.5"/>
</svg>
