<svg width="40" height="40" viewBox="0 0 40 40" fill="none" xmlns="http://www.w3.org/2000/svg">
  <g opacity="0.6">
    <path
      d="M13.7943 9.76093C17.1873 9.88186 19.8409 12.7298 19.7201 16.1245C19.5975 19.5175 16.7496 22.1711 13.3548 22.0486C9.96186 21.9277 7.30994 19.0798 7.43073 15.685C7.55166 12.2921 10.3996 9.64014 13.7943 9.76093Z"
      fill="currentColor" />
    <path
      d="M27.3322 5C23.9307 5 21.1831 7.74742 21.1831 11.1491C21.1831 14.5507 23.9305 17.2981 27.3322 17.2981C30.7338 17.2981 33.4812 14.5507 33.4812 11.1491C33.4795 7.74589 30.7338 5 27.3322 5Z"
      fill="currentColor" />
    <path
      d="M37.2738 30.2459C37.4475 30.2459 37.5787 30.1591 37.7098 30.0722C37.841 29.941 37.8836 29.7673 37.8836 29.5919C37.3164 23.6608 32.7823 19.1268 27.3318 19.1268C23.8878 19.1268 20.7467 20.9579 18.7422 23.9678C21.2273 25.2759 23.1894 27.5004 24.324 30.2459L37.2738 30.2459Z"
      fill="currentColor" />
    <path
      d="M3.00028 34.3016C3.00028 34.4753 3.04456 34.6508 3.17402 34.7819C3.26088 34.9131 3.43632 35 3.61006 35H23.5368C23.7105 35 23.8859 34.9131 23.9728 34.7819C24.104 34.6508 24.1465 34.4771 24.1465 34.3016C24.0154 33.1672 23.7974 32.1214 23.4056 31.1181C23.3613 31.0739 23.3613 31.0313 23.3613 30.987C22.2712 28.1084 20.1779 25.8857 17.6483 24.7088C17.604 24.7088 17.604 24.7089 17.604 24.6646C16.3402 24.0974 15.0321 23.7925 13.5928 23.7925C8.14574 23.8368 3.56729 28.3709 3 34.302L3.00028 34.3016Z"
      fill="currentColor" />
  </g>
</svg>
