<svg width="25" height="24" viewBox="0 0 25 24" fill="none" xmlns="http://www.w3.org/2000/svg">
<path opacity="0.4" d="M3.25 17L3.25 13C3.25 10.7909 5.04086 9 7.25 9L17.25 9C19.4591 9 21.25 10.7909 21.25 13L21.25 17C21.25 19.2091 19.4591 21 17.25 21L7.25 21C5.04086 21 3.25 19.2091 3.25 17Z" fill="white"/>
<path fill-rule="evenodd" clip-rule="evenodd" d="M8.71967 6.53033C8.42678 6.23744 8.42678 5.76256 8.71967 5.46967L11.7197 2.46967C12.0126 2.17678 12.4874 2.17678 12.7803 2.46967L15.7803 5.46967C16.0732 5.76256 16.0732 6.23744 15.7803 6.53033C15.4874 6.82322 15.0126 6.82322 14.7197 6.53033L13 4.81066L13 15C13 15.4142 12.6642 15.75 12.25 15.75C11.8358 15.75 11.5 15.4142 11.5 15L11.5 4.81066L9.78033 6.53033C9.48744 6.82322 9.01256 6.82322 8.71967 6.53033Z" fill="white"/>
</svg>
