<svg width="31" height="30" viewBox="0 0 31 30" fill="none" xmlns="http://www.w3.org/2000/svg">
<path d="M22.5312 10.3126H16.4375V18.8086C16.4375 19.0573 16.3387 19.2957 16.1629 19.4716C15.9871 19.6474 15.7486 19.7461 15.5 19.7461C15.2514 19.7461 15.0129 19.6474 14.8371 19.4716C14.6613 19.2957 14.5625 19.0573 14.5625 18.8086V10.3126H8.46875C7.59879 10.3135 6.76474 10.6595 6.14958 11.2746C5.53443 11.8898 5.18843 12.7238 5.1875 13.5938V24.8438C5.18843 25.7138 5.53443 26.5478 6.14958 27.163C6.76474 27.7781 7.59879 28.1241 8.46875 28.1251H22.5312C23.4012 28.1241 24.2353 27.7781 24.8504 27.163C25.4656 26.5478 25.8116 25.7138 25.8125 24.8438V13.5938C25.8116 12.7238 25.4656 11.8898 24.8504 11.2746C24.2353 10.6595 23.4012 10.3135 22.5312 10.3126ZM16.4375 5.07603L19.5248 8.16275C19.7021 8.33114 19.9381 8.42363 20.1825 8.4205C20.427 8.41737 20.6606 8.31887 20.8334 8.14599C21.0063 7.97312 21.1048 7.73955 21.108 7.49508C21.1111 7.25062 21.0186 7.0146 20.8502 6.83736L16.1627 2.14986C15.9869 1.97418 15.7485 1.87549 15.5 1.87549C15.2515 1.87549 15.0131 1.97418 14.8373 2.14986L10.1498 6.83736C9.98141 7.0146 9.88892 7.25062 9.89205 7.49508C9.89518 7.73955 9.99368 7.97312 10.1666 8.14599C10.3394 8.31887 10.573 8.41737 10.8175 8.4205C11.0619 8.42363 11.2979 8.33114 11.4752 8.16275L14.5625 5.07603V10.3126H16.4375V5.07603Z" fill="white"/>
</svg>
