<svg width="20" height="20" viewBox="0 0 20 20" fill="none" xmlns="http://www.w3.org/2000/svg">
<path d="M5.41665 14.5833H8.27082V11.8125H10.4166V9.04168H12.5625V6.25001H14.5833V5.41668H11.7291V8.18751H9.58332V10.9583H7.43748V13.75H5.41665V14.5833ZM4.67915 16.6667C4.29581 16.6667 3.97554 16.5383 3.71831 16.2817C3.46109 16.025 3.33276 15.7045 3.33331 15.32V4.68001C3.33331 4.29612 3.46193 3.97584 3.71915 3.71918C3.97637 3.46251 4.29665 3.3339 4.67998 3.33334H15.3208C15.7041 3.33334 16.0244 3.46195 16.2816 3.71918C16.5389 3.9764 16.6672 4.29668 16.6666 4.68001V15.3208C16.6666 15.7042 16.5383 16.0245 16.2816 16.2817C16.025 16.5389 15.7044 16.6672 15.32 16.6667H4.67915Z" fill="white"/>
</svg>
