<svg width="4" height="15" viewBox="0 0 4 15" fill="none" xmlns="http://www.w3.org/2000/svg">
<path d="M0.708333 9.53672L0.0625 0.5H3.9375L3.29167 9.53672H0.708333ZM2 14.5C1.41667 14.5 0.9375 14.322 0.5625 13.9661C0.1875 13.6102 0 13.1883 0 12.7006C0 12.1996 0.1875 11.7844 0.5625 11.4548C0.9375 11.1121 1.41667 10.9407 2 10.9407C2.59722 10.9407 3.07639 11.1121 3.4375 11.4548C3.8125 11.7844 4 12.1996 4 12.7006C4 13.1883 3.8125 13.6102 3.4375 13.9661C3.07639 14.322 2.59722 14.5 2 14.5Z" fill="currentColor"/>
</svg>
