<svg width="65" height="21" viewBox="0 0 65 21" fill="none" xmlns="http://www.w3.org/2000/svg">
<path d="M27.8943 20.5906L22.6798 20.5906L25.9413 0.366455L31.1555 0.366455L27.8943 20.5906Z" fill="white" fill-opacity="0.9"/>
<path d="M46.7968 0.861146C45.7682 0.451938 44.1369 0.00012207 42.1198 0.00012207C36.9703 0.00012207 33.3441 2.75391 33.3219 6.691C33.2791 9.59578 35.9181 11.2092 37.8919 12.1777C39.9093 13.1674 40.5951 13.8134 40.5951 14.6956C40.5746 16.0505 38.9649 16.675 37.4636 16.675C35.3818 16.675 34.2663 16.353 32.5711 15.5992L31.8845 15.2761L31.1548 19.816C32.3778 20.3747 34.631 20.8706 36.9703 20.8923C42.4417 20.8923 46.0038 18.1811 46.046 13.9855C46.0668 11.6833 44.6733 9.9192 41.669 8.47767C39.8452 7.55231 38.7283 6.92835 38.7283 5.98153C38.7497 5.1208 39.673 4.23918 41.7317 4.23918C43.4269 4.196 44.6724 4.60464 45.616 5.01356L46.0876 5.22832L46.7968 0.861146Z" fill="white" fill-opacity="0.9"/>
<path d="M53.7272 13.4259C54.1567 12.2641 55.8091 7.76737 55.8091 7.76737C55.7874 7.81055 56.2377 6.58407 56.4951 5.83114L56.8596 7.57377C56.8596 7.57377 57.847 12.4148 58.0614 13.4259C57.2465 13.4259 54.7572 13.4259 53.7272 13.4259ZM60.1638 0.366455L56.1304 0.366455C54.8866 0.366455 53.9417 0.731911 53.405 2.04446L45.6596 20.5904L51.131 20.5904C51.131 20.5904 52.0318 18.0942 52.2254 17.5566C52.8256 17.5566 58.1481 17.5566 58.9203 17.5566C59.07 18.2667 59.5425 20.5904 59.5425 20.5904L64.3706 20.5904L60.1638 0.366455Z" fill="white" fill-opacity="0.9"/>
<path d="M18.324 0.366455L13.2173 14.1574L12.6593 11.3604C11.7152 8.13311 8.75422 4.62668 5.44995 2.88318L10.1275 20.5692L15.6416 20.5692L23.8379 0.366455L18.324 0.366455Z" fill="white" fill-opacity="0.9"/>
<path d="M8.47545 0.366455L0.0858896 0.366455L6.10352e-05 0.775091C6.54444 2.45339 10.8787 6.49885 12.6594 11.3613L10.8356 2.06648C10.5353 0.774805 9.61261 0.409063 8.47545 0.366455Z" fill="white" fill-opacity="0.9"/>
</svg>
