<svg width="21" height="22" viewBox="0 0 21 22" fill="none" xmlns="http://www.w3.org/2000/svg">
<path d="M3.57372 4.2774C3.54579 4.27744 3.51816 4.2716 3.49263 4.26026C3.4671 4.24893 3.44424 4.23235 3.42553 4.21161L3.42351 4.20958C3.39298 4.17511 3.37519 4.1312 3.37313 4.0852C3.37106 4.03919 3.38484 3.99387 3.41216 3.9568C3.43948 3.91972 3.47868 3.89314 3.52324 3.88149C3.56779 3.86984 3.61499 3.87382 3.65696 3.89277C3.69893 3.91171 3.73314 3.94449 3.75386 3.98561C3.77459 4.02674 3.78058 4.07373 3.77084 4.11873C3.7611 4.16374 3.73621 4.20405 3.70034 4.23293C3.66447 4.2618 3.61977 4.2775 3.57372 4.2774Z" fill="white" stroke="white" stroke-width="0.5"/>
<path d="M17.423 18.1287C17.3951 18.1288 17.3675 18.1229 17.3419 18.1116C17.3164 18.1003 17.2935 18.0838 17.2748 18.0631L17.2728 18.0609C17.242 18.0262 17.224 17.982 17.2218 17.9357C17.2196 17.8894 17.2334 17.8437 17.2609 17.8064C17.2883 17.769 17.3278 17.7422 17.3726 17.7304C17.4175 17.7186 17.465 17.7226 17.5073 17.7417C17.5496 17.7608 17.584 17.7938 17.6049 17.8352C17.6257 17.8767 17.6317 17.924 17.6218 17.9693C17.6119 18.0146 17.5868 18.0552 17.5506 18.0842C17.5144 18.1132 17.4694 18.1289 17.423 18.1287Z" fill="white" stroke="white" stroke-width="0.5"/>
<path d="M10.4989 21C10.2315 21 9.96384 20.9894 9.7035 20.969C9.67259 20.9666 9.64266 20.9571 9.61601 20.9412C9.58935 20.9254 9.56669 20.9036 9.54977 20.8777C9.53285 20.8517 9.52213 20.8222 9.51842 20.7914C9.51471 20.7606 9.51812 20.7294 9.52838 20.7001C9.59267 20.5118 9.64447 20.3195 9.68345 20.1244C9.97822 18.7392 9.88955 17.6962 9.41238 16.935C9.34841 16.8322 9.27755 16.7344 9.20224 16.6314C9.01472 16.4009 8.86854 16.1398 8.77022 15.8594C8.70798 15.6135 8.68266 15.3597 8.69511 15.1063C8.70042 14.9372 8.69121 14.7678 8.66758 14.6002C8.56959 14.0214 8.11166 13.492 7.30612 13.0262C7.11892 12.9383 6.96445 12.7933 6.86499 12.612C6.81829 12.4931 6.79985 12.3649 6.81114 12.2377C6.8686 11.7229 7.02733 11.2245 7.27818 10.7713C7.34236 10.6355 7.40633 10.4997 7.46504 10.3626C7.67275 9.87672 7.85232 9.1959 7.52719 8.7082C7.46646 8.61568 7.36908 8.51041 7.2715 8.52296C7.18922 8.5409 7.11201 8.57708 7.04557 8.62884L5.58249 9.58399L5.56528 9.59512C5.36812 9.73744 5.14873 9.84607 4.91603 9.91661C4.70314 9.96355 4.48246 9.96246 4.27003 9.91344C4.05761 9.86441 3.85878 9.76867 3.68799 9.63318C3.6032 9.5707 3.52481 9.49997 3.45396 9.42203C3.2929 9.24343 3.07658 9.12402 2.83962 9.08292C2.60267 9.04181 2.35877 9.08138 2.14696 9.19529L2.07206 9.2376C1.68154 9.45584 1.27097 9.69128 0.890981 9.949C0.858796 9.97078 0.821022 9.98283 0.782169 9.98373C0.743317 9.98462 0.705029 9.97431 0.671878 9.95403C0.638726 9.93375 0.612112 9.90436 0.595214 9.86936C0.578316 9.83437 0.571847 9.79525 0.576581 9.75667C0.855432 7.55137 1.8596 5.50137 3.43108 3.92924C4.44493 2.90886 5.66918 2.12194 7.01844 1.62337C7.06047 1.60783 7.10647 1.60668 7.14922 1.62009C7.19197 1.6335 7.22907 1.66071 7.2547 1.69746C7.46727 2.00159 7.63436 2.33508 7.75069 2.68743C7.76446 2.72792 7.77802 2.77124 7.79118 2.81416C7.83551 3.01566 7.92703 3.20375 8.05821 3.36299C8.10109 3.4037 8.15384 3.43252 8.21126 3.4466C8.39752 3.49838 8.56139 3.61039 8.67727 3.76513C8.79316 3.91987 8.85453 4.10864 8.8518 4.30194L8.85788 5.06699C8.85263 5.16559 8.86511 5.26432 8.89472 5.35851C8.94802 5.44954 9.02194 5.52678 9.11053 5.58404C9.30122 5.73125 9.50594 5.85934 9.72172 5.96646C9.81857 6.01618 9.93005 6.02947 10.0359 6.00391C10.1417 5.97834 10.2348 5.91563 10.2983 5.82718C10.3638 5.75035 10.3991 5.65221 10.3973 5.55122C10.3955 5.45024 10.3568 5.3534 10.2886 5.27895C10.2849 5.2747 10.2815 5.27045 10.2782 5.266C10.239 5.22328 10.2009 5.18603 10.1628 5.14858C9.99279 4.98115 9.78124 4.77283 9.80168 4.47159C9.80414 4.43588 9.81602 4.40146 9.83611 4.37183C9.8562 4.34221 9.88379 4.31844 9.91607 4.30296C10.5807 3.9837 11.4231 3.68003 12.0444 4.17096C12.2911 4.39389 12.4783 4.67488 12.589 4.98844L13.647 7.4012C13.7232 7.5843 13.8587 7.73655 14.0316 7.83363C14.4193 8.03426 14.6809 7.8148 15.0659 7.42874L15.1005 7.39392C15.6876 6.80682 16.6189 6.10959 17.7131 6.15656C18.2347 6.20529 18.7453 6.3357 19.2264 6.54303L19.4244 6.61571C19.4745 6.63393 19.5154 6.67118 19.5382 6.71936C20.4625 8.67582 20.7292 10.8787 20.2986 12.9993C20.2918 13.0322 20.2769 13.063 20.2553 13.0888C20.2336 13.1146 20.2059 13.1346 20.1746 13.1469C20.1432 13.1593 20.1093 13.1636 20.0759 13.1596C20.0425 13.1556 20.0106 13.1432 19.9831 13.1238C19.5491 12.8155 19.1144 12.5058 18.6792 12.1945L18.3895 11.9874C18.2399 11.8779 18.0858 11.7836 17.9643 11.8127C17.8961 11.8385 17.8327 11.8757 17.7769 11.9227C17.5326 12.1063 17.2876 12.2892 17.042 12.4711C16.5697 12.8278 16.0988 13.1523 15.5263 13.1367C15.0586 13.1282 14.6527 12.8899 14.2602 12.6598C13.8464 12.4168 13.4554 12.1885 13.0544 12.2739C12.6457 12.3605 12.3509 12.7648 12.1395 13.1076C11.994 13.3452 11.861 13.5829 11.7452 13.8129C11.699 13.8887 11.6713 13.9743 11.6642 14.0627C11.678 14.2018 11.8786 14.3093 12.0519 14.3866C12.3611 14.5571 12.7057 14.6536 13.0584 14.6686C13.3026 14.6415 13.5409 14.5757 13.7644 14.4737C14.0493 14.3405 14.3576 14.2648 14.6717 14.251C15.3467 14.2583 15.8269 14.7334 16.2913 15.1928C16.4 15.3003 16.5079 15.407 16.6173 15.506C17.0611 15.8853 17.55 16.2083 18.0731 16.4676C18.2004 16.5362 18.3253 16.6026 18.452 16.669C18.478 16.6827 18.5007 16.7018 18.5186 16.725C18.5364 16.7483 18.549 16.7752 18.5555 16.8038C18.5619 16.8324 18.5621 16.8621 18.5559 16.8907C18.5498 16.9194 18.5375 16.9464 18.5199 16.9699C18.2291 17.3581 17.9111 17.7253 17.5684 18.0685C16.6427 19.0007 15.5411 19.7399 14.3275 20.2431C13.114 20.7463 11.8126 21.0035 10.4989 21ZM9.98935 20.5819C10.1578 20.5908 10.3285 20.5951 10.4989 20.5951C11.7591 20.5985 13.0075 20.3518 14.1717 19.8692C15.3359 19.3866 16.3927 18.6778 17.2809 17.7837C17.5541 17.51 17.811 17.2205 18.0502 16.9166C17.9935 16.8867 17.937 16.8559 17.8801 16.8255C17.3278 16.5512 16.8118 16.2092 16.344 15.8074C16.2306 15.7048 16.1184 15.5938 16.0055 15.4821C15.5803 15.0608 15.1773 14.6628 14.6661 14.6573C14.4048 14.678 14.149 14.7438 13.9101 14.8519C13.6463 14.9712 13.3647 15.0464 13.0765 15.0746C12.6593 15.0658 12.2504 14.9569 11.8841 14.7571C11.7091 14.6784 11.2984 14.4939 11.2601 14.1026C11.2557 13.9393 11.297 13.778 11.3794 13.637C11.503 13.392 11.6411 13.1446 11.793 12.8968C12.047 12.4851 12.4098 11.9978 12.9682 11.8791C13.5235 11.7601 14.0006 12.0411 14.4634 12.312C14.8278 12.5253 15.1704 12.7268 15.5323 12.7333C15.9672 12.7411 16.3826 12.4616 16.7976 12.1486C17.0434 11.9664 17.288 11.7842 17.5327 11.5998C17.6304 11.5194 17.7429 11.4589 17.8637 11.4216C18.1876 11.3406 18.4711 11.5489 18.6241 11.6609L18.912 11.8664C19.2602 12.115 19.6086 12.3634 19.957 12.6118C20.047 12.0793 20.0921 11.5403 20.0919 11.0003C20.0952 9.6078 19.7924 8.23158 19.2051 6.96898L19.0837 6.92424C18.6419 6.73352 18.1736 6.61152 17.6949 6.56247C16.7454 6.52765 15.9134 7.15057 15.3846 7.68139L15.3501 7.71601C15.0007 8.06604 14.5223 8.54604 13.8423 8.19378C13.5876 8.05501 13.3877 7.83368 13.2755 7.5662L12.2185 5.15283C12.1316 4.90122 11.9859 4.67404 11.7934 4.49022C11.383 4.1663 10.7609 4.36207 10.228 4.6042C10.2873 4.70011 10.3607 4.78657 10.4457 4.8607C10.4928 4.90726 10.5396 4.95362 10.5821 5.00079C10.586 5.00504 10.5904 5.01071 10.5951 5.01658C10.7238 5.16173 10.7967 5.3479 10.8008 5.54185C10.8049 5.7358 10.74 5.9249 10.6175 6.07538C10.4963 6.23755 10.3218 6.35188 10.1247 6.39834C9.9276 6.44479 9.72044 6.4204 9.53952 6.32945C9.30028 6.21073 9.07332 6.06874 8.86193 5.90553C8.71708 5.80812 8.5998 5.67501 8.52141 5.51905C8.46904 5.37622 8.44537 5.22445 8.45177 5.07246L8.44569 4.30579C8.44805 4.20253 8.41682 4.10131 8.35668 4.01733C8.29655 3.93336 8.21078 3.87119 8.11226 3.84016C7.98413 3.80874 7.86672 3.74368 7.77215 3.65168C7.59199 3.44768 7.46549 3.202 7.40411 2.93684L7.36483 2.81538C7.27736 2.54998 7.15755 2.29637 7.00812 2.06025C5.77226 2.54092 4.65094 3.27542 3.71653 4.21631C2.31657 5.6179 1.38332 7.41743 1.04423 9.36919C1.32078 9.19772 1.60218 9.03758 1.87224 8.88696L1.94897 8.84364C2.23989 8.68826 2.57405 8.63351 2.89935 8.68792C3.22464 8.74234 3.52279 8.90287 3.74731 9.14447C3.80163 9.20423 3.86171 9.25847 3.92667 9.30643C4.0496 9.40632 4.19322 9.4776 4.34712 9.5151C4.50101 9.5526 4.66132 9.55539 4.81643 9.52325C5.00632 9.46226 5.18529 9.37144 5.34664 9.2542L6.8245 8.28833C6.94854 8.19477 7.0953 8.13599 7.24964 8.11807C7.37478 8.12012 7.49719 8.15497 7.60465 8.21912C7.71211 8.28328 7.80086 8.3745 7.86204 8.48369C8.28718 9.1218 8.0821 9.94414 7.83491 10.5215C7.77418 10.6632 7.70838 10.8031 7.64218 10.9434C7.41597 11.3492 7.27082 11.7951 7.21482 12.2563C7.20815 12.3208 7.21504 12.3861 7.23506 12.4478C7.30114 12.5444 7.39274 12.6207 7.49966 12.6683C8.42424 13.2029 8.94837 13.8275 9.06741 14.5308C9.0952 14.7214 9.10631 14.914 9.10061 15.1065C9.08914 15.3205 9.10878 15.5351 9.15892 15.7434C9.24541 15.9794 9.37114 16.1992 9.53081 16.3933C9.60673 16.4984 9.68528 16.6069 9.75634 16.7211C10.2918 17.575 10.3979 18.716 10.0803 20.2084C10.0505 20.3455 10.0211 20.4683 9.98935 20.5819Z" fill="white" stroke="white" stroke-width="0.5"/>
<path d="M14.311 8.31584C14.1475 8.31331 13.9869 8.271 13.8434 8.19255C13.5887 8.05378 13.3887 7.83245 13.2765 7.56496L12.2185 5.15281C12.1317 4.9012 11.9859 4.67402 11.7934 4.4902C11.383 4.16628 10.7609 4.36205 10.2281 4.60418C10.2874 4.70009 10.3607 4.78656 10.4457 4.86068C10.4929 4.90724 10.5396 4.9536 10.5822 5.00077C10.586 5.00502 10.5905 5.01069 10.5951 5.01656C10.7238 5.16171 10.7967 5.34788 10.8009 5.54183C10.805 5.73578 10.74 5.92488 10.6176 6.07536C10.4963 6.23753 10.3219 6.35186 10.1247 6.39832C9.92765 6.44477 9.72049 6.42038 9.53956 6.32943C9.30032 6.21071 9.07337 6.06872 8.86197 5.90551C8.71712 5.8081 8.59984 5.67499 8.52145 5.51904C8.46908 5.3762 8.44542 5.22444 8.45181 5.07244L8.44574 4.30577C8.4481 4.20252 8.41686 4.10129 8.35673 4.01731C8.2966 3.93334 8.21082 3.87117 8.11231 3.84014C7.98418 3.80872 7.86676 3.74366 7.7722 3.65166C7.59203 3.44766 7.46554 3.20198 7.40415 2.93682L7.36487 2.81536C7.26085 2.50003 7.11135 2.20159 6.92111 1.92945C6.90345 1.9041 6.89182 1.87504 6.88712 1.84451C6.88242 1.81397 6.88477 1.78276 6.894 1.75328C6.90322 1.72379 6.91907 1.69681 6.94033 1.67439C6.96159 1.65197 6.9877 1.63472 7.01666 1.62396C9.36275 0.754239 11.9495 0.795012 14.2671 1.73824C16.5846 2.68146 18.4646 4.45869 19.5366 6.71955C19.5538 6.75581 19.5598 6.79637 19.5539 6.83606C19.5479 6.87575 19.5304 6.91278 19.5034 6.94246C19.4763 6.97214 19.4411 6.99312 19.4022 7.00274C19.3632 7.01236 19.3223 7.01019 19.2845 6.99649L19.0843 6.9228C18.6426 6.73208 18.1742 6.61008 17.6955 6.56103C16.7461 6.52621 15.914 7.14914 15.3852 7.67995L15.3508 7.71457C15.088 7.97856 14.7516 8.31584 14.311 8.31584ZM11.2628 3.91383C11.545 3.907 11.821 3.99814 12.0436 4.17175C12.2905 4.39436 12.478 4.67506 12.589 4.98842L13.647 7.40119C13.7233 7.58428 13.8587 7.73653 14.0317 7.83361C14.4193 8.03424 14.6809 7.81478 15.066 7.42872L15.1006 7.3939C15.6877 6.8068 16.6189 6.10957 17.7132 6.15654C18.1349 6.18836 18.5495 6.28392 18.9426 6.43997C17.8629 4.44331 16.1108 2.89367 13.9972 2.06597C11.8836 1.23828 9.54512 1.18603 7.39666 1.91852C7.54265 2.16099 7.66107 2.41903 7.74972 2.68781C7.76349 2.7283 7.77706 2.77163 7.79021 2.81455C7.83454 3.01604 7.92606 3.20414 8.05724 3.36338C8.10012 3.40409 8.15287 3.43291 8.21029 3.44699C8.39655 3.49877 8.56042 3.61078 8.6763 3.76552C8.79219 3.92026 8.85356 4.10903 8.85083 4.30233L8.85691 5.06738C8.85166 5.16597 8.86414 5.26471 8.89375 5.3589C8.94705 5.44992 9.02097 5.52717 9.10956 5.58443C9.30025 5.73164 9.50497 5.85973 9.72075 5.96685C9.8176 6.01657 9.92908 6.02985 10.0349 6.00429C10.1407 5.97873 10.2338 5.91601 10.2973 5.82756C10.3629 5.75074 10.3981 5.65259 10.3963 5.55161C10.3945 5.45063 10.3558 5.35379 10.2876 5.27934C10.284 5.27509 10.2805 5.27084 10.2773 5.26638C10.238 5.22367 10.1999 5.18642 10.1619 5.14896C9.99182 4.98154 9.78027 4.77322 9.80072 4.47198C9.80317 4.43627 9.81505 4.40184 9.83514 4.37222C9.85524 4.3426 9.88283 4.31883 9.9151 4.30334C10.3311 4.0781 10.7908 3.94524 11.2628 3.91383Z" fill="white" stroke="white" stroke-width="0.5"/>
<path d="M18.3576 17.0521C18.3249 17.0521 18.2927 17.0442 18.2637 17.029C18.1356 16.9618 18.0092 16.8946 17.8811 16.8253C17.3287 16.551 16.8127 16.209 16.3449 15.8072C16.2315 15.7046 16.1194 15.5936 16.0064 15.4819C15.5813 15.0606 15.1782 14.6626 14.667 14.6571C14.4058 14.6785 14.1502 14.7443 13.9111 14.8517C13.6473 14.971 13.3656 15.0462 13.0774 15.0744C12.6603 15.0656 12.2513 14.9567 11.885 14.7569C11.7101 14.6782 11.2993 14.4937 11.2611 14.1024C11.2566 13.9391 11.2979 13.7778 11.3803 13.6368C11.504 13.3918 11.6421 13.1444 11.7939 12.8968C12.048 12.4849 12.4108 11.9976 12.9691 11.8789C13.5244 11.7599 14.0016 12.0409 14.4644 12.3118C14.8288 12.5251 15.1713 12.7266 15.5333 12.7331C15.9682 12.741 16.3836 12.4614 16.7986 12.1484C17.0444 11.9662 17.2889 11.784 17.5337 11.5996C17.6314 11.5192 17.7438 11.4587 17.8647 11.4214C18.1886 11.3404 18.472 11.5487 18.6251 11.6607L18.913 11.8662C19.3473 12.1766 19.7817 12.4861 20.2161 12.7948C20.2424 12.8135 20.2639 12.8383 20.2788 12.867C20.2936 12.8957 20.3013 12.9275 20.3013 12.9598V12.9618C20.3013 12.9754 20.3 12.989 20.2973 13.0023C20.0028 14.4398 19.396 15.795 18.52 16.9721C18.501 16.9971 18.4764 17.0174 18.4483 17.0312C18.4201 17.0451 18.3891 17.0522 18.3576 17.0521ZM14.6563 14.2522H14.6715C15.3464 14.2595 15.8266 14.7347 16.2911 15.194C16.3998 15.3015 16.5077 15.4082 16.617 15.5072C17.0608 15.8865 17.5498 16.2095 18.0728 16.4688C18.1483 16.5093 18.223 16.5498 18.2975 16.5891C19.0582 15.5275 19.5945 14.322 19.8738 13.0462C19.4756 12.7628 19.0769 12.4787 18.6777 12.1937L18.388 11.9866C18.2384 11.8771 18.0843 11.7828 17.9629 11.8119C17.8946 11.8377 17.8312 11.8749 17.7754 11.9219C17.5311 12.1055 17.2862 12.2884 17.0405 12.4703C16.5682 12.827 16.0973 13.1515 15.5248 13.1359C15.0571 13.1274 14.6512 12.8891 14.2587 12.659C13.8449 12.416 13.454 12.1877 13.0529 12.2731C12.6442 12.3598 12.3494 12.764 12.1381 13.1068C11.9925 13.3445 11.8595 13.5821 11.7437 13.8121C11.6976 13.8879 11.6698 13.9735 11.6627 14.0619C11.6765 14.201 11.8771 14.3085 12.0504 14.3858C12.3597 14.5563 12.7042 14.6528 13.057 14.6678C13.3011 14.6407 13.5394 14.5749 13.7629 14.4729C14.0441 14.3436 14.3472 14.2687 14.6563 14.2522Z" fill="white" stroke="white" stroke-width="0.5"/>
<path d="M9.71943 20.9696H9.70344C7.20074 20.7589 4.86774 19.6183 3.16421 17.7728C1.46068 15.9273 0.51017 13.5107 0.5 10.9991C0.500491 10.5842 0.525978 10.1697 0.576323 9.75792C0.579829 9.72925 0.58943 9.70167 0.604479 9.67702C0.619529 9.65236 0.639679 9.63122 0.663577 9.615C1.05632 9.34817 1.476 9.10746 1.87117 8.88619L1.9479 8.84286C2.23902 8.68733 2.57345 8.63257 2.89896 8.68714C3.22448 8.74171 3.52277 8.90254 3.74725 9.14451C3.80157 9.20426 3.86165 9.25851 3.92662 9.30647C4.04955 9.40635 4.19317 9.47763 4.34706 9.51514C4.50096 9.55264 4.66127 9.55542 4.81637 9.52329C5.00626 9.4623 5.18524 9.37148 5.34658 9.25424L6.82444 8.28836C6.94849 8.1948 7.09525 8.13603 7.24958 8.1181C7.37472 8.12016 7.49713 8.155 7.60459 8.21916C7.71205 8.28331 7.8008 8.37454 7.86198 8.48372C8.28712 9.12183 8.08204 9.94417 7.83486 10.5216C7.77412 10.6633 7.70833 10.8032 7.64213 10.9435C7.41591 11.3492 7.27076 11.7951 7.21476 12.2563C7.20809 12.3209 7.21499 12.3861 7.23501 12.4478C7.30108 12.5444 7.39269 12.6207 7.4996 12.6683C8.42418 13.203 8.94831 13.8275 9.06735 14.5308C9.09515 14.7214 9.10626 14.9141 9.10055 15.1066C9.08908 15.3206 9.10872 15.5351 9.15886 15.7435C9.24535 15.9795 9.37109 16.1992 9.53075 16.3933C9.60667 16.4984 9.68522 16.6069 9.75628 16.7211C10.2918 17.575 10.3978 18.7158 10.0802 20.2082C10.0376 20.4205 9.98108 20.6298 9.91095 20.8346C9.89697 20.8742 9.87103 20.9085 9.83671 20.9326C9.8024 20.9568 9.76142 20.9698 9.71943 20.9696ZM0.96745 9.89842C0.926182 10.2639 0.905297 10.6313 0.904894 10.9991C0.914721 13.3816 1.80637 15.676 3.40787 17.4399C5.00938 19.2038 7.20729 20.3122 9.57772 20.5514C9.61558 20.4255 9.6504 20.2864 9.68441 20.1244C9.97917 18.7399 9.8905 17.6969 9.41333 16.9357C9.34936 16.8328 9.2785 16.7351 9.20319 16.632C9.01572 16.4016 8.86956 16.1404 8.77117 15.8601C8.70893 15.6142 8.68362 15.3603 8.69606 15.107C8.70137 14.9378 8.69216 14.7685 8.66853 14.6009C8.57055 14.0221 8.11261 13.4927 7.30708 13.0268C7.11941 12.939 6.96455 12.7937 6.86493 12.612C6.81823 12.4931 6.7998 12.365 6.81108 12.2377C6.86854 11.7229 7.02727 11.2246 7.27813 10.7714C7.3423 10.6355 7.40628 10.4997 7.46498 10.3626C7.6727 9.87676 7.85227 9.19593 7.52714 8.70824C7.4664 8.61572 7.36903 8.51045 7.27145 8.523C7.18916 8.54094 7.11195 8.57712 7.04552 8.62888L5.58263 9.58402L5.56522 9.59516C5.36807 9.73747 5.14867 9.84611 4.91598 9.91664C4.70308 9.96358 4.4824 9.9625 4.26998 9.91347C4.05756 9.86445 3.85872 9.76871 3.68793 9.63322C3.60314 9.57073 3.52475 9.5 3.4539 9.42206C3.29284 9.24347 3.07652 9.12406 2.83957 9.08295C2.60261 9.04184 2.35871 9.08141 2.14691 9.19532L2.072 9.23763C1.70739 9.44231 1.32558 9.66055 0.96745 9.89842Z" fill="white" stroke="white" stroke-width="0.5"/>
</svg>
