<svg width="16" height="12" viewBox="0 0 16 12" fill="none" xmlns="http://www.w3.org/2000/svg">
<path opacity="0.4" d="M0.5 2.25C0.5 1.00736 1.50736 0 2.75 0H13.25C14.4926 0 15.5 1.00736 15.5 2.25V9.75C15.5 10.9926 14.4926 12 13.25 12H2.75C1.50736 12 0.5 10.9926 0.5 9.75V2.25Z" fill="#09E5E5"/>
<path d="M3.5 8.25C3.5 7.00736 4.50736 6 5.75 6V6C6.99264 6 8 7.00736 8 8.25V8.25C8 8.66421 7.66421 9 7.25 9H4.25C3.83579 9 3.5 8.66421 3.5 8.25V8.25Z" fill="#09E5E5"/>
<path fill-rule="evenodd" clip-rule="evenodd" d="M13.0625 4.5C13.0625 4.81066 12.8107 5.0625 12.5 5.0625L10.25 5.0625C9.93934 5.0625 9.6875 4.81066 9.6875 4.5C9.6875 4.18934 9.93934 3.9375 10.25 3.9375L12.5 3.9375C12.8107 3.9375 13.0625 4.18934 13.0625 4.5Z" fill="#09E5E5"/>
<path fill-rule="evenodd" clip-rule="evenodd" d="M13.0625 7.5C13.0625 7.81066 12.8107 8.0625 12.5 8.0625L10.25 8.0625C9.93934 8.0625 9.6875 7.81066 9.6875 7.5C9.6875 7.18934 9.93934 6.9375 10.25 6.9375L12.5 6.9375C12.8107 6.9375 13.0625 7.18934 13.0625 7.5Z" fill="#09E5E5"/>
<circle cx="5.75" cy="4.5" r="1.5" fill="#09E5E5"/>
</svg>
