<svg width="16" height="14" viewBox="0 0 16 14" fill="none" xmlns="http://www.w3.org/2000/svg">
<path fill-rule="evenodd" clip-rule="evenodd" d="M7.48762 2.06833C5.89485 0.952239 3.65953 0.44646 1.99575 0.258454C1.17232 0.165407 0.5 0.853018 0.5 1.70138V10.15C0.5 10.9983 1.17232 11.6862 1.99575 11.7792C3.65953 11.9672 5.89485 12.473 7.48762 13.5891C7.64068 13.6964 7.82034 13.75 8 13.75V2.22921C7.82034 2.22921 7.64068 2.17559 7.48762 2.06833ZM2.19421 4.10497C2.24175 3.79797 2.52917 3.58764 2.83617 3.63519C3.81325 3.78651 4.91361 4.03943 5.95296 4.44135C6.24271 4.55339 6.38677 4.87911 6.27472 5.16887C6.16267 5.45862 5.83695 5.60267 5.5472 5.49063C4.60322 5.12559 3.58558 4.88966 2.66399 4.74693C2.35699 4.69939 2.14666 4.41197 2.19421 4.10497ZM2.83617 6.63519C2.52917 6.58764 2.24175 6.79797 2.19421 7.10497C2.14666 7.41197 2.35699 7.69939 2.66399 7.74693C3.12842 7.81886 3.61868 7.91467 4.11247 8.03926C4.4137 8.11525 4.71949 7.93267 4.79549 7.63145C4.87149 7.33023 4.68891 7.02444 4.38768 6.94844C3.85593 6.81428 3.33097 6.71181 2.83617 6.63519Z" fill="#09E5E5"/>
<path opacity="0.4" d="M8.51238 2.06833C10.1052 0.952239 12.3405 0.44646 14.0043 0.258454C14.8277 0.165407 15.5 0.853018 15.5 1.70138V10.15C15.5 10.9983 14.8277 11.6862 14.0043 11.7792C12.3405 11.9672 10.1052 12.473 8.51238 13.5891C8.35932 13.6964 8.17966 13.75 8 13.75V2.22921C8.17966 2.22921 8.35932 2.17559 8.51238 2.06833Z" fill="#09E5E5"/>
</svg>
